$MeshFormat
2.2 0 8
$EndMeshFormat
$Nodes
29
1 -7.9602041944577956e-19 -0.012999999999999999 0.024479000000000001
2 -0.018917819479397791 -0.012999999999999998 0.024542734160293345
3 -0.033298149999999999 -0.012999999999999998 0.034479000000000003
4 -0.040000000000000001 -0.012999999999999998 0.024479000000000001
5 -5.4087552125385467e-19 -0.001750621523434936 0.024479000000000001
6 -0.017852131759238627 -5.7261752745936682e-05 0.034479000000000003
7 -0.040000000000000001 0.0032847963520889643 0.024479000000000001
8 -0.039374195218694029 0.0019977198889933015 0.033769882670494245
9 -0.028651456674504413 0.0027666807456081469 0.024479000000000001
10 -0.023443910008786532 0.0061849351672097 0.034479000000000003
11 7.9602041944577956e-19 0.012999999999999999 0.024479000000000001
12 -0.022771122225421873 0.013000000000000001 0.024479000000000001
13 -0.033298149999999999 0.013000000000000001 0.034479000000000003
14 -0.039510130000000004 0.013000000000000001 0.031991075000000008
15 -0.040000000000000001 0.013000000000000001 0.024479000000000001
16 -0.033298149999999999 0.0049042452492280061 0.03447900000000001
17 -0.014841485543349128 0.0037593950364179134 0.024479000000000001
18 -7.9602041944577956e-19 -0.012999999999999999 0.02979158447350749
19 -0.01412332466214513 0.0052592704124387228 0.034479000000000003
20 -0.026230283514165897 0.013000000000000001 0.034479000000000003
21 -0.0064693009618076768 -0.012999999999999999 0.024479000000000001
22 -0.038880299032794489 -0.0054739422497203571 0.039195842764854404
23 7.9602041944577956e-19 0.012999999999999999 0.030493590098303436
24 -0.013250891977378176 -0.013000000000000001 0.034479000000000003
25 4.4049484141627967e-19 0.0071938266890170998 0.030519238541012537
26 -0.011335203433521948 0.012999999999999999 0.034479000000000003
27 -2.1353238382423412e-19 -0.0034872484698919505 0.032596742120615051
28 -0.0015000000000000005 -0.0010035170978911307 0.034479000000000003
29 -0.0047888667652136591 -0.006324880450219169 0.034479000000000003
$EndNodes
$Elements
46
1 4 2 0 0 16 7 15 14
2 4 2 0 0 15 16 14 13
3 4 2 0 0 21 24 29 18
4 4 2 0 0 16 13 15 20
5 4 2 0 0 26 17 25 11
6 4 2 0 0 17 12 11 26
7 4 2 0 0 4 3 9 2
8 4 2 0 0 5 17 11 27
9 4 2 0 0 9 16 3 7
10 4 2 0 0 4 9 3 7
11 4 2 0 0 21 2 17 6
12 4 2 0 0 18 21 5 27
13 4 2 0 0 18 21 27 29
14 4 2 0 0 24 6 3 2
15 4 2 0 0 16 9 3 10
16 4 2 0 0 3 9 6 10
17 4 2 0 0 6 9 17 10
18 4 2 0 0 9 12 10 20
19 4 2 0 0 18 1 5 21
20 4 2 0 0 27 17 11 25
21 4 2 0 0 19 12 10 17
22 4 2 0 0 9 20 15 12
23 4 2 0 0 9 16 7 15
24 4 2 0 0 16 20 15 9
25 4 2 0 0 10 9 17 12
26 4 2 0 0 26 20 19 12
27 4 2 0 0 29 17 6 21
28 4 2 0 0 6 19 17 29
29 4 2 0 0 17 12 26 19
30 4 2 0 0 4 7 3 22
31 4 2 0 0 19 10 6 17
32 4 2 0 0 20 10 19 12
33 4 2 0 0 29 6 24 21
34 4 2 0 0 21 17 27 29
35 4 2 0 0 23 26 25 11
36 4 2 0 0 7 8 14 16
37 4 2 0 0 6 2 17 9
38 4 2 0 0 24 6 2 21
39 4 2 0 0 9 3 6 2
40 4 2 0 0 16 9 10 20
41 4 2 0 0 26 17 19 25
42 4 2 0 0 25 27 17 28
43 4 2 0 0 17 5 21 27
44 4 2 0 0 17 29 28 27
45 4 2 0 0 19 17 28 25
46 4 2 0 0 19 29 28 17
$EndElements
