$MeshFormat
2.2 0 8
$EndMeshFormat
$Nodes
28
1 0.039999999105930328 -0.013000000268220903 0.024478999897837639
2 0.039316608049365522 -0.013000000268220903 0.034517979131084078
3 0.033298149704933167 -0.013000000268220903 0.034478999674320221
4 0.02144024741293573 -0.013000000268220903 0.024478999897837639
5 0.018568688712548465 -0.013000000268220903 0.034478999674320221
6 0.0015000000130385152 -0.013000000268220901 0.034478999674320221
7 -9.6123206811547171e-18 -0.013000000268220901 0.024478999897837639
8 0.0015000000130385158 -0.0027933485253015533 0.034478999674320221
9 0.02044417651025271 -0.00034335734016838735 0.034478999674320221
10 0.039999999105930328 0.00029572402127086786 0.024478999897837639
11 0.033298149704933167 0.00083752208788590596 0.034478999674320221
12 0.016693209081826005 0.0014786112044602778 0.024478999897837639
13 0.039417503601241667 0.00037774830489626683 0.033203160109786523
14 0.039999999105930328 0.0130000002682209 0.024478999897837639
15 0.039510129019618034 0.0130000002682209 0.031991074793040752
16 0.033298149704933167 0.0130000002682209 0.034478999674320221
17 0.019811637874227017 0.0130000002682209 0.034478999674320221
18 -1.1204361030566968e-17 0.013000000268220901 0.024478999897837639
19 0.006592221859486355 0.013000000268220901 0.029478423919920414
20 -9.9770394449738582e-18 -0.0070436889163361781 0.030465547250922174
21 0.012650148452761996 0.013000000268220901 0.024478999897837639
22 -1.0563974065578347e-17 0.0025416882376518139 0.030635767392561013
23 0.007538534902061164 0.013000000268220901 0.034478999674320221
24 0.012383535260333528 0.0042049831066816807 0.034478999674320221
25 -9.6864782502507086e-18 -0.013000000268220901 0.036411024172977417
26 -1.0742579327831915e-17 0.005458525212618975 0.024485838122854764
27 -1.1204361030566968e-17 0.013000000268220901 0.033953974804519275
28 0.026081489063864243 0.0130000002682209 0.024478999897837639
$EndNodes
$Elements
42
1 4 2 0 0 26 12 20 22
2 4 2 0 0 28 12 17 9
3 4 2 0 0 3 12 5 4
4 4 2 0 0 12 5 9 3
5 4 2 0 0 19 18 27 26
6 4 2 0 0 9 28 10 16
7 4 2 0 0 14 16 10 28
8 4 2 0 0 3 10 12 4
9 4 2 0 0 23 24 17 21
10 4 2 0 0 1 10 3 4
11 4 2 0 0 17 9 16 28
12 4 2 0 0 19 21 18 26
13 4 2 0 0 12 9 10 3
14 4 2 0 0 13 1 10 3
15 4 2 0 0 3 1 2 13
16 4 2 0 0 13 3 10 11
17 4 2 0 0 10 11 3 9
18 4 2 0 0 12 20 7 26
19 4 2 0 0 19 21 12 24
20 4 2 0 0 24 9 17 12
21 4 2 0 0 5 12 9 24
22 4 2 0 0 24 19 22 12
23 4 2 0 0 21 12 26 19
24 4 2 0 0 22 19 26 12
25 4 2 0 0 14 16 13 10
26 4 2 0 0 13 14 15 16
27 4 2 0 0 13 16 11 10
28 4 2 0 0 21 23 24 19
29 4 2 0 0 28 21 17 12
30 4 2 0 0 24 12 17 21
31 4 2 0 0 6 20 7 12
32 4 2 0 0 4 7 12 6
33 4 2 0 0 24 12 8 6
34 4 2 0 0 11 16 9 10
35 4 2 0 0 6 25 7 20
36 4 2 0 0 22 27 26 19
37 4 2 0 0 6 12 4 5
38 4 2 0 0 10 28 9 12
39 4 2 0 0 6 5 24 12
40 4 2 0 0 20 12 6 8
41 4 2 0 0 22 12 8 24
42 4 2 0 0 20 12 8 22
$EndElements
