$MeshFormat
2.2 0 8
$EndMeshFormat
$Nodes
130
1 -7.9602041944577956e-19 -0.012999999999999999 0.024479000000000001
2 -0.0015000000000000009 -0.012999999999999999 0.034479000000000003
3 -0.024817974510816888 -0.012999999999999998 0.024479000000000001
4 -0.034135894999999999 -0.012999999999999998 0.024479000000000001
5 -0.033298149999999999 -0.012999999999999998 0.034479000000000003
6 -0.03931892 -0.012999999999999998 0.034493200000000002
7 -0.039701340000000002 -0.012999999999999998 0.02948895
8 -0.040000000000000001 -0.012999999999999998 0.024479000000000001
9 7.9602041944577956e-19 0.012999999999999999 0.024479000000000001
10 -0.0014999999999999992 0.012999999999999999 0.034479000000000003
11 -0.024584601015057144 0.013000000000000001 0.024479000000000001
12 -0.028197654999999999 0.013000000000000001 0.034479000000000003
13 -0.034135894999999999 0.013000000000000001 0.024479000000000001
14 -0.033298149999999999 0.013000000000000001 0.034479000000000003
15 -0.03931892 0.013000000000000001 0.034493200000000002
16 -0.039701340000000002 0.013000000000000001 0.02948895
17 -0.040000000000000001 0.013000000000000001 0.024479000000000001
18 -0.039699411760978964 0.0068694082776409081 0.029514182441088364
19 -0.0028542845001066652 -0.0010893178241192544 0.030978662794541052
20 -0.0048182458734891374 0.012999999999999999 0.031173237010855916
21 -0.027861119919797523 -0.0050861911529615084 0.034479000000000003
22 -0.007102371632794249 -0.0061129403538211042 0.030311926942197635
23 -0.013980820285073633 -0.0078905245445473338 0.029753215458051579
24 -0.0069423695575754956 0.00058462196452173365 0.029453636381831547
25 -0.012669785873661597 9.259455340197747e-05 0.029833935491319422
26 -0.026533499384746084 -0.0002855633990487254 0.02975185920346186
27 -0.034486051573362139 0.00031648071122148335 0.028602176125796026
28 -0.0086088967515402254 0.012999999999999999 0.028967621072817799
29 -0.006750209363529101 0.0075113345071267058 0.030178283454439136
30 -0.013575295851328485 0.007428038090640068 0.030058568031538595
31 -0.019579569282994196 0.0078308567133040761 0.030715554387584137
32 -0.025979647547325208 0.0080914683751345876 0.029187280566605158
33 -0.033421586941757737 0.0074574457944580263 0.029368409035684433
34 -0.011640513484352813 -0.012999999999999999 0.029662924347362785
35 -0.012816160559429355 0.012999999999999999 0.029950356365877912
36 -0.0255579655461875 0.013000000000000001 0.030001600229936511
37 -0.0057700493229287352 -0.010285669653922809 0.034479000000000003
38 -0.021043096219181587 -0.0024485687140681136 0.028521468195311109
39 -4.0289989906452417e-19 -0.0065798546870009991 0.031054898381079891
40 -0.0052768097047966762 -0.0058285444697253981 0.024479000000000001
41 -6.4291508170836854e-19 -0.010499600083158525 0.034948842346654352
42 -0.015704761924420229 -0.0097876920503865115 0.024479000000000001
43 -0.019132043201050223 -0.0067192108571170663 0.02897701906738499
44 -0.036251827276994858 0.0097481785622912029 0.032524946364709775
45 -0.019402047294710855 0.013000000000000001 0.028644246652678437
46 -0.010263305573903312 0.0098324011808042545 0.027114372088841241
47 -0.02491695764380665 -0.012999999999999998 0.034479000000000003
48 -0.0090036544169190789 -0.0091041943859794163 0.024479000000000001
49 -0.0057044042361999473 -0.012999999999999999 0.030844401977017044
50 -0.022331394231605926 0.008178880068085535 0.024479000000000001
51 -0.021317811567491272 -0.0075886890260895776 0.024479000000000001
52 1.9517301205040848e-19 0.0031874171750793049 0.031384387418611034
53 -0.004969132768695878 0.0086351838329572269 0.024479000000000001
54 4.1676463928897279e-19 0.0068062830781763454 0.029305822875654659
55 -0.023292359932057954 0.003287692050386514 0.024479000000000001
56 -0.013841677812422218 0.0018777658975563704 0.024479000000000001
57 -0.023219345056915298 0.0097024942526328234 0.034479000000000003
58 -0.026354052030112422 -0.0069985655068290509 0.029198477308568085
59 -0.029624093303920847 0.0067644526963249376 0.024479000000000001
60 -6.7827410825683193e-20 -0.0011077056809017469 0.033964279520521251
61 -0.0094769562843936665 -2.4407973058605929e-05 0.024479000000000001
62 -0.017759454429525492 -0.0011930493213751648 0.024479000000000001
63 -0.029897137207858557 -0.002892976766220981 0.024479000000000001
64 -0.0046027385353168268 0.0028172986827530431 0.024479000000000001
65 -0.010704888659217256 0.0059668034886701986 0.024479000000000001
66 -0.0048787823204839344 0.0033759520961006116 0.032140284496166335
67 -3.7206766904527099e-19 -0.0060763261587637998 0.024479000000000001
68 -7.9602041944577956e-19 -0.012999999999999999 0.03157855182468805
69 -0.0048700272978805395 -0.004429819128048117 0.034479000000000003
70 -0.0098680527956441569 -0.0043521790685354588 0.034479000000000003
71 -0.024323750354187289 -0.0011664688003611668 0.024479000000000001
72 -0.018945343795883571 0.0030595242240607219 0.034479000000000003
73 -0.021149539518889746 0.0030822039453724122 0.028140055819224449
74 -1.7371519422992129e-19 -0.0028369844162556678 0.02850982555216253
75 -0.0029004210417577204 0.0097662757936361859 0.028939292480644547
76 -0.01331846192442023 -0.012999999999999999 0.024479000000000001
77 -0.022674407812834512 -0.0049836274613238515 0.034479000000000003
78 -0.039329546568622399 -0.0029949484792521656 0.034354143449535482
79 -0.017317513943145506 0.00655687888042558 0.024479000000000001
80 -0.020576570856548015 0.013000000000000001 0.034479000000000003
81 -0.01331846192442023 0.012999999999999999 0.024479000000000001
82 -0.028170410753622137 0.0093916282545165649 0.034479000000000003
83 -0.02730223909465828 0.0053222235818693852 0.034479000000000003
84 -0.033298149999999999 0.0099796896893682308 0.034479000000000003
85 -0.016642652420855514 -0.0040761492217613561 0.034479000000000003
86 -0.039326857957935384 0.005480344047178694 0.034389325919151371
87 -0.006233790428279682 -0.012999999999999999 0.024479000000000001
88 -0.006659230962210114 0.012999999999999999 0.024479000000000001
89 0 0 0.024479000000000001
90 -0.040000000000000001 -0.0043371942643967319 0.024479000000000001
91 -0.039701340000000002 2.4310059476430392e-18 0.02948895
92 3.2712087784502242e-19 0.0053422893535144452 0.024479000000000001
93 -0.040000000000000001 0.0022381898363762944 0.024479000000000001
94 -0.0015000000000000005 -0.0075713393078456169 0.034479000000000003
95 -0.0049890185016538396 0.00022309329000688919 0.034479000000000003
96 -0.033298149999999999 -0.0018878349117669964 0.03447900000000001
97 -0.036520608675715861 0.0008685001276682202 0.033941722769928198
98 -0.033298149999999999 -0.0092054101121556865 0.034479000000000003
99 -0.0014999999999999996 0.0075713393078456152 0.034479000000000003
100 -0.010189038991000973 0.012999999999999999 0.034479000000000003
101 -0.016684705632756806 0.013000000000000001 0.034479000000000003
102 -0.033298149999999999 0.0050855445704366033 0.034479000000000003
103 -0.010040098645857469 -0.012999999999999999 0.034479000000000003
104 -0.016535765287613302 -0.012999999999999998 0.034479000000000003
105 -0.029035374999999999 -0.012999999999999998 0.029479000000000002
106 -0.023356713347005498 0.0026983335791719073 0.031828130705042076
107 -0.039701340000000002 -0.0064999999999999971 0.02948895
108 -0.019574469473543066 -0.012999999999999998 0.029021246777274932
109 -0.0091301718019332657 0.0034435915873498265 0.034479000000000003
110 -0.011773518405558476 -0.0052083887719588324 0.024479000000000001
111 -0.031553422587135803 0.013000000000000001 0.029817287910802289
112 -0.019045530962210115 0.013000000000000001 0.024479000000000001
113 -0.018580164745194045 -0.012999999999999998 0.024479000000000001
114 -0.033201058400639832 0.00069267671085885098 0.024479000000000001
115 -0.0089048532312811374 -0.0095610170353509702 0.0280330236655176
116 -0.0030568500052201215 -0.0098073317340091181 0.030062983456541247
117 6.5902127744649798e-19 0.010762634220827332 0.032154310767719158
118 -0.027421658109550794 -0.0081676660244630172 0.024479000000000001
119 -0.034888781229137147 0.0040974448884178432 0.024479000000000001
120 -0.016734349560855982 0.0027887393495376993 0.028449700168500593
121 -0.040000000000000001 0.0076190949181881478 0.024479000000000001
122 -0.0038776379305668178 0.0099609976602283729 0.032259063694845519
123 -0.032287003686131618 -0.0081559827718629303 0.024479000000000001
124 -0.019501293194614099 -0.00015060274541163704 0.031518350976969887
125 -0.020228190694678669 -0.0094186952446091224 0.034479000000000003
126 -0.033737692977308852 -0.012999999999999998 0.029084034833356826
127 -0.028398537553270698 0.0016663195774715579 0.024479000000000001
128 -0.030253541713845242 0.0032010970997855678 0.028620304386041424
129 -0.016178961921016369 -0.0030047038625575879 0.028757350891932501
130 7.9602041944577956e-19 0.012999999999999999 0.02916299629418611
$EndNodes
$Elements
300
1 4 2 0 0 86 91 27 97
2 4 2 0 0 16 111 14 44
3 4 2 0 0 40 74 19 39
4 4 2 0 0 40 64 24 19
5 4 2 0 0 20 88 75 29
6 4 2 0 0 87 76 115 48
7 4 2 0 0 4 8 107 90
8 4 2 0 0 123 4 107 90
9 4 2 0 0 35 46 28 29
10 4 2 0 0 100 28 20 29
11 4 2 0 0 13 16 17 121
12 4 2 0 0 45 36 57 80
13 4 2 0 0 103 34 115 49
14 4 2 0 0 103 34 23 115
15 4 2 0 0 108 104 34 23
16 4 2 0 0 100 35 28 29
17 4 2 0 0 100 35 29 30
18 4 2 0 0 27 58 26 96
19 4 2 0 0 27 63 26 58
20 4 2 0 0 27 123 58 96
21 4 2 0 0 27 63 58 123
22 4 2 0 0 59 33 111 13
23 4 2 0 0 36 12 111 32
24 4 2 0 0 59 33 13 119
25 4 2 0 0 16 121 33 18
26 4 2 0 0 121 33 13 16
27 4 2 0 0 36 57 32 45
28 4 2 0 0 32 57 31 45
29 4 2 0 0 64 92 53 54
30 4 2 0 0 92 9 53 54
31 4 2 0 0 22 19 69 39
32 4 2 0 0 22 19 24 69
33 4 2 0 0 65 30 25 29
34 4 2 0 0 65 29 25 24
35 4 2 0 0 1 68 116 49
36 4 2 0 0 68 2 116 49
37 4 2 0 0 35 81 28 46
38 4 2 0 0 28 81 88 46
39 4 2 0 0 65 46 88 81
40 4 2 0 0 65 30 46 81
41 4 2 0 0 35 81 46 30
42 4 2 0 0 3 108 113 51
43 4 2 0 0 119 33 13 121
44 4 2 0 0 24 40 61 64
45 4 2 0 0 75 53 9 54
46 4 2 0 0 120 62 25 129
47 4 2 0 0 26 73 106 124
48 4 2 0 0 77 26 106 124
49 4 2 0 0 87 34 115 76
50 4 2 0 0 73 62 38 71
51 4 2 0 0 125 43 58 77
52 4 2 0 0 48 76 115 110
53 4 2 0 0 40 48 115 110
54 4 2 0 0 19 52 60 74
55 4 2 0 0 86 44 33 18
56 4 2 0 0 119 18 33 121
57 4 2 0 0 119 27 33 18
58 4 2 0 0 86 18 33 27
59 4 2 0 0 51 43 42 62
60 4 2 0 0 43 23 42 129
61 4 2 0 0 42 23 110 129
62 4 2 0 0 25 30 109 29
63 4 2 0 0 25 29 109 24
64 4 2 0 0 29 65 88 53
65 4 2 0 0 75 88 9 53
66 4 2 0 0 75 88 53 29
67 4 2 0 0 13 33 111 16
68 4 2 0 0 16 44 33 111
69 4 2 0 0 119 93 18 121
70 4 2 0 0 119 27 18 93
71 4 2 0 0 91 93 18 27
72 4 2 0 0 33 86 27 102
73 4 2 0 0 19 52 74 89
74 4 2 0 0 23 25 129 85
75 4 2 0 0 128 27 96 102
76 4 2 0 0 101 35 30 45
77 4 2 0 0 82 111 32 33
78 4 2 0 0 33 111 44 84
79 4 2 0 0 18 44 33 16
80 4 2 0 0 61 56 25 65
81 4 2 0 0 64 29 24 52
82 4 2 0 0 56 65 120 25
83 4 2 0 0 79 56 65 120
84 4 2 0 0 1 49 116 87
85 4 2 0 0 103 115 22 49
86 4 2 0 0 73 32 31 50
87 4 2 0 0 38 62 43 51
88 4 2 0 0 26 73 38 71
89 4 2 0 0 112 45 79 81
90 4 2 0 0 59 11 13 111
91 4 2 0 0 19 66 24 95
92 4 2 0 0 19 52 24 66
93 4 2 0 0 73 55 32 50
94 4 2 0 0 71 26 73 55
95 4 2 0 0 55 32 26 73
96 4 2 0 0 58 21 26 96
97 4 2 0 0 47 98 58 105
98 4 2 0 0 91 18 86 27
99 4 2 0 0 27 63 123 90
100 4 2 0 0 27 123 96 107
101 4 2 0 0 27 123 107 90
102 4 2 0 0 26 71 38 58
103 4 2 0 0 26 71 58 63
104 4 2 0 0 77 26 38 58
105 4 2 0 0 108 23 42 43
106 4 2 0 0 23 43 108 125
107 4 2 0 0 125 108 23 104
108 4 2 0 0 79 31 30 45
109 4 2 0 0 101 45 30 31
110 4 2 0 0 40 89 19 74
111 4 2 0 0 40 74 67 89
112 4 2 0 0 12 111 32 82
113 4 2 0 0 114 63 27 90
114 4 2 0 0 93 114 27 90
115 4 2 0 0 107 27 90 91
116 4 2 0 0 91 90 93 27
117 4 2 0 0 62 55 73 79
118 4 2 0 0 51 58 3 108
119 4 2 0 0 125 108 47 58
120 4 2 0 0 51 43 58 108
121 4 2 0 0 125 43 108 58
122 4 2 0 0 43 129 42 62
123 4 2 0 0 42 129 110 62
124 4 2 0 0 25 110 129 62
125 4 2 0 0 59 11 111 32
126 4 2 0 0 11 36 111 32
127 4 2 0 0 58 105 98 123
128 4 2 0 0 96 123 58 98
129 4 2 0 0 20 88 130 75
130 4 2 0 0 20 122 75 117
131 4 2 0 0 54 75 99 117
132 4 2 0 0 79 73 31 50
133 4 2 0 0 79 55 73 50
134 4 2 0 0 64 54 52 89
135 4 2 0 0 64 29 52 54
136 4 2 0 0 83 32 31 106
137 4 2 0 0 83 32 106 26
138 4 2 0 0 130 75 9 54
139 4 2 0 0 130 88 9 75
140 4 2 0 0 116 49 22 115
141 4 2 0 0 40 116 22 115
142 4 2 0 0 25 61 22 110
143 4 2 0 0 40 110 22 61
144 4 2 0 0 25 61 24 22
145 4 2 0 0 40 22 24 61
146 4 2 0 0 96 107 78 91
147 4 2 0 0 40 89 64 19
148 4 2 0 0 19 64 52 89
149 4 2 0 0 26 21 58 77
150 4 2 0 0 43 85 38 77
151 4 2 0 0 20 117 75 130
152 4 2 0 0 54 75 117 130
153 4 2 0 0 10 117 20 130
154 4 2 0 0 73 62 120 38
155 4 2 0 0 71 62 38 51
156 4 2 0 0 71 73 62 55
157 4 2 0 0 79 31 73 120
158 4 2 0 0 43 23 85 125
159 4 2 0 0 29 65 53 64
160 4 2 0 0 59 33 32 111
161 4 2 0 0 123 4 105 126
162 4 2 0 0 4 8 7 107
163 4 2 0 0 123 4 126 107
164 4 2 0 0 96 27 107 91
165 4 2 0 0 23 22 25 70
166 4 2 0 0 39 1 68 116
167 4 2 0 0 42 76 108 113
168 4 2 0 0 114 119 27 128
169 4 2 0 0 28 46 88 29
170 4 2 0 0 65 29 88 46
171 4 2 0 0 87 49 115 34
172 4 2 0 0 116 39 22 94
173 4 2 0 0 64 53 29 54
174 4 2 0 0 4 7 126 107
175 4 2 0 0 123 4 118 105
176 4 2 0 0 63 58 123 118
177 4 2 0 0 71 51 38 58
178 4 2 0 0 71 118 58 63
179 4 2 0 0 11 32 50 45
180 4 2 0 0 11 36 32 45
181 4 2 0 0 114 93 27 119
182 4 2 0 0 72 120 25 124
183 4 2 0 0 73 120 72 124
184 4 2 0 0 120 31 73 72
185 4 2 0 0 120 30 72 25
186 4 2 0 0 31 120 30 72
187 4 2 0 0 52 54 29 99
188 4 2 0 0 20 122 29 75
189 4 2 0 0 54 29 99 75
190 4 2 0 0 122 99 75 117
191 4 2 0 0 122 99 29 75
192 4 2 0 0 108 58 3 105
193 4 2 0 0 43 38 58 77
194 4 2 0 0 118 4 3 105
195 4 2 0 0 47 58 108 105
196 4 2 0 0 19 24 52 64
197 4 2 0 0 38 51 43 58
198 4 2 0 0 26 73 124 38
199 4 2 0 0 85 124 25 129
200 4 2 0 0 77 26 124 38
201 4 2 0 0 124 120 25 129
202 4 2 0 0 73 120 124 38
203 4 2 0 0 50 32 31 45
204 4 2 0 0 75 53 54 29
205 4 2 0 0 50 11 45 112
206 4 2 0 0 5 98 105 126
207 4 2 0 0 98 7 126 5
208 4 2 0 0 103 115 23 22
209 4 2 0 0 115 23 22 110
210 4 2 0 0 25 110 22 23
211 4 2 0 0 118 58 105 3
212 4 2 0 0 58 51 3 118
213 4 2 0 0 19 74 60 39
214 4 2 0 0 65 29 24 64
215 4 2 0 0 65 30 120 25
216 4 2 0 0 61 62 25 56
217 4 2 0 0 31 79 30 120
218 4 2 0 0 63 27 26 128
219 4 2 0 0 127 26 55 128
220 4 2 0 0 128 32 26 55
221 4 2 0 0 63 114 27 128
222 4 2 0 0 128 27 33 119
223 4 2 0 0 18 15 44 16
224 4 2 0 0 40 1 116 87
225 4 2 0 0 39 1 116 40
226 4 2 0 0 63 128 26 127
227 4 2 0 0 63 26 71 127
228 4 2 0 0 63 114 128 127
229 4 2 0 0 71 51 58 118
230 4 2 0 0 25 61 110 62
231 4 2 0 0 62 79 73 120
232 4 2 0 0 79 65 30 120
233 4 2 0 0 114 119 128 59
234 4 2 0 0 127 114 128 59
235 4 2 0 0 59 128 33 119
236 4 2 0 0 33 59 32 128
237 4 2 0 0 108 43 42 51
238 4 2 0 0 50 31 79 45
239 4 2 0 0 50 45 79 112
240 4 2 0 0 25 110 23 129
241 4 2 0 0 62 56 120 25
242 4 2 0 0 79 62 56 120
243 4 2 0 0 61 65 25 24
244 4 2 0 0 61 65 24 64
245 4 2 0 0 127 128 55 59
246 4 2 0 0 59 32 128 55
247 4 2 0 0 96 123 98 107
248 4 2 0 0 106 73 72 124
249 4 2 0 0 73 31 106 72
250 4 2 0 0 123 126 105 98
251 4 2 0 0 123 126 98 107
252 4 2 0 0 126 7 98 107
253 4 2 0 0 28 88 20 29
254 4 2 0 0 113 108 42 51
255 4 2 0 0 22 24 25 70
256 4 2 0 0 120 62 129 38
257 4 2 0 0 38 62 129 43
258 4 2 0 0 85 38 129 43
259 4 2 0 0 85 124 129 38
260 4 2 0 0 124 120 129 38
261 4 2 0 0 71 26 55 127
262 4 2 0 0 116 39 41 68
263 4 2 0 0 66 29 24 109
264 4 2 0 0 106 32 31 73
265 4 2 0 0 83 26 128 32
266 4 2 0 0 83 33 32 128
267 4 2 0 0 40 87 115 48
268 4 2 0 0 40 115 22 110
269 4 2 0 0 40 19 22 39
270 4 2 0 0 128 27 26 96
271 4 2 0 0 128 33 27 102
272 4 2 0 0 83 26 96 128
273 4 2 0 0 83 33 128 102
274 4 2 0 0 83 32 33 82
275 4 2 0 0 106 32 73 26
276 4 2 0 0 96 97 27 91
277 4 2 0 0 40 39 22 116
278 4 2 0 0 40 19 24 22
279 4 2 0 0 98 7 6 107
280 4 2 0 0 64 54 89 92
281 4 2 0 0 116 37 22 49
282 4 2 0 0 40 39 1 67
283 4 2 0 0 55 59 32 50
284 4 2 0 0 50 59 32 11
285 4 2 0 0 40 39 67 74
286 4 2 0 0 23 129 43 85
287 4 2 0 0 87 49 116 115
288 4 2 0 0 40 87 116 115
289 4 2 0 0 81 45 30 35
290 4 2 0 0 79 45 30 81
291 4 2 0 0 65 81 79 30
292 4 2 0 0 65 30 29 46
293 4 2 0 0 35 46 29 30
294 4 2 0 0 115 76 23 110
295 4 2 0 0 108 34 76 23
296 4 2 0 0 42 76 23 108
297 4 2 0 0 34 76 23 115
298 4 2 0 0 110 76 23 42
299 4 2 0 0 123 58 105 118
300 4 2 0 0 66 52 24 29
$EndElements
