$MeshFormat
2.2 0 8
$EndMeshFormat
$Nodes
130
1 -9.6123206811547171e-18 -0.013000000268220901 0.024478999897837639
2 0.0015000000130385152 -0.013000000268220901 0.034478999674320221
3 0.024817975237965584 -0.013000000268220903 0.024478999897837639
4 0.03413589671254158 -0.013000000268220903 0.024478999897837639
5 0.033298149704933167 -0.013000000268220903 0.034478999674320221
6 0.03931891918182373 -0.013000000268220903 0.034493200480937958
7 0.039701338857412338 -0.013000000268220903 0.029488949105143547
8 0.039999999105930328 -0.013000000268220903 0.024478999897837639
9 -1.1204361030566968e-17 0.013000000268220901 0.024478999897837639
10 0.0015000000130385169 0.013000000268220901 0.034478999674320221
11 0.024584600701928139 0.0130000002682209 0.024478999897837639
12 0.028197655454277992 0.0130000002682209 0.034478999674320221
13 0.03413589671254158 0.0130000002682209 0.024478999897837639
14 0.033298149704933167 0.0130000002682209 0.034478999674320221
15 0.03931891918182373 0.0130000002682209 0.034493200480937958
16 0.039701338857412338 0.0130000002682209 0.029488949105143547
17 0.039999999105930328 0.0130000002682209 0.024478999897837639
18 0.039699412882328033 0.0068694083020091031 0.029514182358980179
19 0.0028542845975607634 -0.001089317840524018 0.030978662893176079
20 0.004818245768547059 0.013000000268220901 0.031173236668109894
21 0.02786112017929554 -0.0050861909985542315 0.034478999674320221
22 0.007102371659129858 -0.0061129401437938222 0.030311927199363708
23 0.013980819843709469 -0.0078905243426561356 0.029753215610980988
24 0.0069423695094883442 0.00058462197193875865 0.029453637078404427
25 0.012669785879552364 9.259455691790131e-05 0.02983393520116806
26 0.026533499360084534 -0.00028556340839713975 0.029751859605312347
27 0.034486051648855209 0.00031648069852962879 0.028602175414562225
28 0.0086088972166180611 0.013000000268220901 0.028967620804905891
29 0.0067502092570066461 0.0075113344937562943 0.030178284272551537
30 0.0135752959176898 0.0074280379340052596 0.030058568343520164
31 0.0195795688778162 0.0078308563679456693 0.03071555495262146
32 0.025979647412896156 0.0080914683640003187 0.029187280684709549
33 0.033421587198972702 0.0074574458412826044 0.029368409886956215
34 0.011640513315796852 -0.013000000268220901 0.029662923887372017
35 0.012816160917282104 0.013000000268220901 0.029950356110930443
36 0.025557965040206909 0.0130000002682209 0.030001599341630936
37 0.005770049523562192 -0.010285669937729836 0.034478999674320221
38 0.021043095737695694 -0.0024485688190907253 0.028521468862891197
39 -1.0005441096964222e-17 -0.0065798545256257057 0.031054899096488953
40 0.0052768099121749401 -0.0058285444974899292 0.024478999897837639
41 -9.7654260237989937e-18 -0.010499600321054459 0.034948840737342834
42 0.015704762190580368 -0.0097876917570829409 0.024478999897837639
43 0.019132042303681374 -0.0067192106507718572 0.028977019712328911
44 0.036251828074455261 0.0097481785342097265 0.032524947077035904
45 0.019402047619223595 0.0130000002682209 0.028644246980547905
46 0.010263305157423019 0.0098324008285999298 0.027114372700452805
47 0.024916958063840866 -0.013000000268220903 0.034478999674320221
48 0.0090036541223526001 -0.0091041941195726395 0.024478999897837639
49 0.0057044043205678454 -0.013000000268220901 0.030844401568174362
50 0.022331394255161285 0.0081788804382085783 0.024478999897837639
51 0.02131781168282032 -0.007588689215481283 0.024478999897837639
52 -1.0603513540931246e-17 0.0031874172855168581 0.031384386122226715
53 0.0049691325984895238 0.0086351837962865829 0.024478999897837639
54 -1.0825105429321241e-17 0.0068062832579016685 0.029305823147296906
55 0.023292360827326775 0.0032876920886337744 0.024478999897837639
56 0.013841677457094193 0.0018777658697217694 0.024478999897837639
57 0.023219345137476921 0.0097024943679571134 0.034478999674320221
58 0.026354052126407623 -0.0069985655136406439 0.029198477044701576
59 0.029624093323945999 0.0067644529044628126 0.024478999897837639
60 -1.0340513125302299e-17 -0.0011077056406065822 0.033964280039072037
61 0.0094769559800624847 -2.4407972887275389e-05 0.024478999897837639
62 0.017759453505277634 -0.0011930493637919437 0.024478999897837639
63 0.029897136613726616 -0.0028929768595844525 0.024478999897837639
64 0.004602738656103611 0.0028172987513244148 0.024478999897837639
65 0.010704888962209225 0.0059668035246431819 0.024478999897837639
66 0.0048787822015583515 0.0033759521320462223 0.032140284776687622
67 -1.0036273535253061e-17 -0.0060763261280953884 0.024478999897837639
68 -9.6123206811547171e-18 -0.013000000268220901 0.031578551977872849
69 0.0048700273036956787 -0.0044298190623521805 0.034478999674320221
70 0.0098680527880787849 -0.0043521788902580747 0.034478999674320221
71 0.024323750287294388 -0.0011664688354358092 0.024478999897837639
72 0.018945343792438507 0.0030595241114497172 0.034478999674320221
73 0.021149540320038795 0.003082203911617397 0.028140055015683174
74 -1.0234625299474638e-17 -0.0028369843494147062 0.028509825468063354
75 0.0029004211537539963 0.0097662759944796562 0.028939291834831238
76 0.013318462297320366 -0.013000000268220901 0.024478999897837639
77 0.022674407809972763 -0.0049836272373795527 0.034478999674320221
78 0.039329547435045242 -0.0029949485324323203 0.034354142844676971
79 0.0173175148665905 0.006556878797709941 0.024478999897837639
80 0.020576570183038712 0.0130000002682209 0.034478999674320221
81 0.013318462297320366 0.013000000268220901 0.024478999897837639
82 0.028170410543680191 0.0093916282057762129 0.034478999674320221
83 0.027302239090204239 0.0053222235292196256 0.034478999674320221
84 0.033298149704933167 0.009979689493775366 0.034478999674320221
85 0.016642652451992035 -0.0040761493146419534 0.034478999674320221
86 0.039326857775449753 0.005480343941599128 0.034389324486255646
87 0.0062337904237210742 -0.013000000268220901 0.024478999897837639
88 0.0066592311486601838 0.013000000268220901 0.024478999897837639
89 -1.0408340855860843e-17 -2.2393861609002554e-18 0.024478999897837639
90 0.039999999105930328 -0.0043371943756938007 0.024478999897837639
91 0.039701338857412338 1.9161988525640458e-19 0.029488949105143547
92 -1.0735461940745153e-17 0.0053422893397510052 0.024478999897837639
93 0.039999999105930328 0.0022381898015737508 0.024478999897837639
94 0.0015000000130385156 -0.0075713391415774822 0.034478999674320221
95 0.0049890186637639999 0.00022309328778646857 0.034478999674320221
96 0.033298149704933167 -0.0018878348637372275 0.034478999674320221
97 0.036520607769489288 0.00086850015213712822 0.03394172340631485
98 0.033298149704933167 -0.0092054102569818514 0.034478999674320221
99 0.0015000000130385165 0.0075713391415774822 0.034478999674320221
100 0.010189038701355457 0.013000000268220901 0.034478999674320221
101 0.016684705391526222 0.0130000002682209 0.034478999674320221
102 0.033298149704933167 0.0050855446606874449 0.034478999674320221
103 0.010040098801255226 -0.013000000268220901 0.034478999674320221
104 0.016535764560103416 -0.013000000268220903 0.034478999674320221
105 0.029035374522209167 -0.013000000268220903 0.029479000717401505
106 0.023356713354587555 0.0026983334682881819 0.031828131526708603
107 0.039701338857412338 -0.0065000001341104533 0.029488949105143547
108 0.019574468955397606 -0.013000000268220903 0.029021246358752251
109 0.009130171500146389 0.0034435915295034643 0.034478999674320221
110 0.011773518286645412 -0.0052083889022469529 0.024478999897837639
111 0.031553421169519424 0.0130000002682209 0.029817288741469383
112 0.019045531749725342 0.0130000002682209 0.024478999897837639
113 0.018580164760351181 -0.013000000268220903 0.024478999897837639
114 0.033201057463884354 0.00069267669459804687 0.024478999897837639
115 0.0089048529043793678 -0.0095610171556472778 0.028033023700118065
116 0.0030568500515073533 -0.0098073314875364304 0.030062982812523842
117 -1.106736242982066e-17 0.010762633755803108 0.032154310494661331
118 0.027421658858656883 -0.0081676663830876368 0.024478999897837639
119 0.034888781607151031 0.0040974449366331083 0.024478999897837639
120 0.016734350472688675 0.0027887392789125434 0.028449699282646179
121 0.039999999105930328 0.0076190950348973248 0.024478999897837639
122 0.0038776379078626637 0.0099609978497028351 0.032259061932563782
123 0.032287005335092545 -0.0081559829413890856 0.024478999897837639
124 0.019501293078064919 -0.00015060274745337784 0.031518351286649704
125 0.020228190347552299 -0.009418695233762266 0.034478999674320221
126 0.033737692981958389 -0.013000000268220903 0.029084034264087677
127 0.028398538008332253 0.0016663195565342886 0.024478999897837639
128 0.030253542587161064 0.0032010970171540958 0.02862030453979969
129 0.016178961843252182 -0.0030047039035707721 0.028757350519299507
130 -1.1204361030566968e-17 0.013000000268220901 0.029162995517253876
$EndNodes
$Elements
300
1 4 2 0 0 86 27 91 97
2 4 2 0 0 16 14 111 44
3 4 2 0 0 40 19 74 39
4 4 2 0 0 40 24 64 19
5 4 2 0 0 20 75 88 29
6 4 2 0 0 87 115 76 48
7 4 2 0 0 4 107 8 90
8 4 2 0 0 123 107 4 90
9 4 2 0 0 35 28 46 29
10 4 2 0 0 100 20 28 29
11 4 2 0 0 13 17 16 121
12 4 2 0 0 45 57 36 80
13 4 2 0 0 103 115 34 49
14 4 2 0 0 103 23 34 115
15 4 2 0 0 108 34 104 23
16 4 2 0 0 100 28 35 29
17 4 2 0 0 100 29 35 30
18 4 2 0 0 27 26 58 96
19 4 2 0 0 27 26 63 58
20 4 2 0 0 27 58 123 96
21 4 2 0 0 27 58 63 123
22 4 2 0 0 59 111 33 13
23 4 2 0 0 36 111 12 32
24 4 2 0 0 59 13 33 119
25 4 2 0 0 16 33 121 18
26 4 2 0 0 121 13 33 16
27 4 2 0 0 36 32 57 45
28 4 2 0 0 32 31 57 45
29 4 2 0 0 64 53 92 54
30 4 2 0 0 92 53 9 54
31 4 2 0 0 22 69 19 39
32 4 2 0 0 22 24 19 69
33 4 2 0 0 65 25 30 29
34 4 2 0 0 65 25 29 24
35 4 2 0 0 1 116 68 49
36 4 2 0 0 68 116 2 49
37 4 2 0 0 35 28 81 46
38 4 2 0 0 28 88 81 46
39 4 2 0 0 65 88 46 81
40 4 2 0 0 65 46 30 81
41 4 2 0 0 35 46 81 30
42 4 2 0 0 3 113 108 51
43 4 2 0 0 119 13 33 121
44 4 2 0 0 24 61 40 64
45 4 2 0 0 75 9 53 54
46 4 2 0 0 120 25 62 129
47 4 2 0 0 26 106 73 124
48 4 2 0 0 77 106 26 124
49 4 2 0 0 87 115 34 76
50 4 2 0 0 73 38 62 71
51 4 2 0 0 125 58 43 77
52 4 2 0 0 48 115 76 110
53 4 2 0 0 40 115 48 110
54 4 2 0 0 19 60 52 74
55 4 2 0 0 86 33 44 18
56 4 2 0 0 119 33 18 121
57 4 2 0 0 119 33 27 18
58 4 2 0 0 86 33 18 27
59 4 2 0 0 51 42 43 62
60 4 2 0 0 43 42 23 129
61 4 2 0 0 42 110 23 129
62 4 2 0 0 25 109 30 29
63 4 2 0 0 25 109 29 24
64 4 2 0 0 29 88 65 53
65 4 2 0 0 75 9 88 53
66 4 2 0 0 75 53 88 29
67 4 2 0 0 13 111 33 16
68 4 2 0 0 16 33 44 111
69 4 2 0 0 119 18 93 121
70 4 2 0 0 119 18 27 93
71 4 2 0 0 91 18 93 27
72 4 2 0 0 33 27 86 102
73 4 2 0 0 19 74 52 89
74 4 2 0 0 23 129 25 85
75 4 2 0 0 128 96 27 102
76 4 2 0 0 101 30 35 45
77 4 2 0 0 82 32 111 33
78 4 2 0 0 33 44 111 84
79 4 2 0 0 18 33 44 16
80 4 2 0 0 61 25 56 65
81 4 2 0 0 64 24 29 52
82 4 2 0 0 56 120 65 25
83 4 2 0 0 79 65 56 120
84 4 2 0 0 1 116 49 87
85 4 2 0 0 103 22 115 49
86 4 2 0 0 73 31 32 50
87 4 2 0 0 38 43 62 51
88 4 2 0 0 26 38 73 71
89 4 2 0 0 112 79 45 81
90 4 2 0 0 59 13 11 111
91 4 2 0 0 19 24 66 95
92 4 2 0 0 19 24 52 66
93 4 2 0 0 73 32 55 50
94 4 2 0 0 71 73 26 55
95 4 2 0 0 55 26 32 73
96 4 2 0 0 58 26 21 96
97 4 2 0 0 47 58 98 105
98 4 2 0 0 91 86 18 27
99 4 2 0 0 27 123 63 90
100 4 2 0 0 27 96 123 107
101 4 2 0 0 27 107 123 90
102 4 2 0 0 26 38 71 58
103 4 2 0 0 26 58 71 63
104 4 2 0 0 77 38 26 58
105 4 2 0 0 108 42 23 43
106 4 2 0 0 23 108 43 125
107 4 2 0 0 125 23 108 104
108 4 2 0 0 79 30 31 45
109 4 2 0 0 101 30 45 31
110 4 2 0 0 40 19 89 74
111 4 2 0 0 40 67 74 89
112 4 2 0 0 12 32 111 82
113 4 2 0 0 114 27 63 90
114 4 2 0 0 93 27 114 90
115 4 2 0 0 107 90 27 91
116 4 2 0 0 91 93 90 27
117 4 2 0 0 62 73 55 79
118 4 2 0 0 51 3 58 108
119 4 2 0 0 125 47 108 58
120 4 2 0 0 51 58 43 108
121 4 2 0 0 125 108 43 58
122 4 2 0 0 43 42 129 62
123 4 2 0 0 42 110 129 62
124 4 2 0 0 25 129 110 62
125 4 2 0 0 59 111 11 32
126 4 2 0 0 11 111 36 32
127 4 2 0 0 58 98 105 123
128 4 2 0 0 96 58 123 98
129 4 2 0 0 20 130 88 75
130 4 2 0 0 20 75 122 117
131 4 2 0 0 54 99 75 117
132 4 2 0 0 79 31 73 50
133 4 2 0 0 79 73 55 50
134 4 2 0 0 64 52 54 89
135 4 2 0 0 64 52 29 54
136 4 2 0 0 83 31 32 106
137 4 2 0 0 83 106 32 26
138 4 2 0 0 130 9 75 54
139 4 2 0 0 130 9 88 75
140 4 2 0 0 116 22 49 115
141 4 2 0 0 40 22 116 115
142 4 2 0 0 25 22 61 110
143 4 2 0 0 40 22 110 61
144 4 2 0 0 25 24 61 22
145 4 2 0 0 40 24 22 61
146 4 2 0 0 96 78 107 91
147 4 2 0 0 40 64 89 19
148 4 2 0 0 19 52 64 89
149 4 2 0 0 26 58 21 77
150 4 2 0 0 43 38 85 77
151 4 2 0 0 20 75 117 130
152 4 2 0 0 54 117 75 130
153 4 2 0 0 10 20 117 130
154 4 2 0 0 73 120 62 38
155 4 2 0 0 71 38 62 51
156 4 2 0 0 71 62 73 55
157 4 2 0 0 79 73 31 120
158 4 2 0 0 43 85 23 125
159 4 2 0 0 29 53 65 64
160 4 2 0 0 59 32 33 111
161 4 2 0 0 123 105 4 126
162 4 2 0 0 4 7 8 107
163 4 2 0 0 123 126 4 107
164 4 2 0 0 96 107 27 91
165 4 2 0 0 23 25 22 70
166 4 2 0 0 39 68 1 116
167 4 2 0 0 42 108 76 113
168 4 2 0 0 114 27 119 128
169 4 2 0 0 28 88 46 29
170 4 2 0 0 65 88 29 46
171 4 2 0 0 87 115 49 34
172 4 2 0 0 116 22 39 94
173 4 2 0 0 64 29 53 54
174 4 2 0 0 4 126 7 107
175 4 2 0 0 123 118 4 105
176 4 2 0 0 63 123 58 118
177 4 2 0 0 71 38 51 58
178 4 2 0 0 71 58 118 63
179 4 2 0 0 11 50 32 45
180 4 2 0 0 11 32 36 45
181 4 2 0 0 114 27 93 119
182 4 2 0 0 72 25 120 124
183 4 2 0 0 73 72 120 124
184 4 2 0 0 120 73 31 72
185 4 2 0 0 120 72 30 25
186 4 2 0 0 31 30 120 72
187 4 2 0 0 52 29 54 99
188 4 2 0 0 20 29 122 75
189 4 2 0 0 54 99 29 75
190 4 2 0 0 122 75 99 117
191 4 2 0 0 122 29 99 75
192 4 2 0 0 108 3 58 105
193 4 2 0 0 43 58 38 77
194 4 2 0 0 118 3 4 105
195 4 2 0 0 47 108 58 105
196 4 2 0 0 19 52 24 64
197 4 2 0 0 38 43 51 58
198 4 2 0 0 26 124 73 38
199 4 2 0 0 85 25 124 129
200 4 2 0 0 77 124 26 38
201 4 2 0 0 124 25 120 129
202 4 2 0 0 73 124 120 38
203 4 2 0 0 50 31 32 45
204 4 2 0 0 75 54 53 29
205 4 2 0 0 50 45 11 112
206 4 2 0 0 5 105 98 126
207 4 2 0 0 98 126 7 5
208 4 2 0 0 103 23 115 22
209 4 2 0 0 115 22 23 110
210 4 2 0 0 25 22 110 23
211 4 2 0 0 118 105 58 3
212 4 2 0 0 58 3 51 118
213 4 2 0 0 19 60 74 39
214 4 2 0 0 65 24 29 64
215 4 2 0 0 65 120 30 25
216 4 2 0 0 61 25 62 56
217 4 2 0 0 31 30 79 120
218 4 2 0 0 63 26 27 128
219 4 2 0 0 127 55 26 128
220 4 2 0 0 128 26 32 55
221 4 2 0 0 63 27 114 128
222 4 2 0 0 128 33 27 119
223 4 2 0 0 18 44 15 16
224 4 2 0 0 40 116 1 87
225 4 2 0 0 39 116 1 40
226 4 2 0 0 63 26 128 127
227 4 2 0 0 63 71 26 127
228 4 2 0 0 63 128 114 127
229 4 2 0 0 71 58 51 118
230 4 2 0 0 25 110 61 62
231 4 2 0 0 62 73 79 120
232 4 2 0 0 79 30 65 120
233 4 2 0 0 114 128 119 59
234 4 2 0 0 127 128 114 59
235 4 2 0 0 59 33 128 119
236 4 2 0 0 33 32 59 128
237 4 2 0 0 108 42 43 51
238 4 2 0 0 50 79 31 45
239 4 2 0 0 50 79 45 112
240 4 2 0 0 25 23 110 129
241 4 2 0 0 62 120 56 25
242 4 2 0 0 79 56 62 120
243 4 2 0 0 61 25 65 24
244 4 2 0 0 61 24 65 64
245 4 2 0 0 127 55 128 59
246 4 2 0 0 59 128 32 55
247 4 2 0 0 96 98 123 107
248 4 2 0 0 106 72 73 124
249 4 2 0 0 73 106 31 72
250 4 2 0 0 123 105 126 98
251 4 2 0 0 123 98 126 107
252 4 2 0 0 126 98 7 107
253 4 2 0 0 28 20 88 29
254 4 2 0 0 113 42 108 51
255 4 2 0 0 22 25 24 70
256 4 2 0 0 120 129 62 38
257 4 2 0 0 38 129 62 43
258 4 2 0 0 85 129 38 43
259 4 2 0 0 85 129 124 38
260 4 2 0 0 124 129 120 38
261 4 2 0 0 71 55 26 127
262 4 2 0 0 116 41 39 68
263 4 2 0 0 66 24 29 109
264 4 2 0 0 106 31 32 73
265 4 2 0 0 83 128 26 32
266 4 2 0 0 83 32 33 128
267 4 2 0 0 40 115 87 48
268 4 2 0 0 40 22 115 110
269 4 2 0 0 40 22 19 39
270 4 2 0 0 128 26 27 96
271 4 2 0 0 128 27 33 102
272 4 2 0 0 83 96 26 128
273 4 2 0 0 83 128 33 102
274 4 2 0 0 83 33 32 82
275 4 2 0 0 106 73 32 26
276 4 2 0 0 96 27 97 91
277 4 2 0 0 40 22 39 116
278 4 2 0 0 40 24 19 22
279 4 2 0 0 98 6 7 107
280 4 2 0 0 64 89 54 92
281 4 2 0 0 116 22 37 49
282 4 2 0 0 40 1 39 67
283 4 2 0 0 55 32 59 50
284 4 2 0 0 50 32 59 11
285 4 2 0 0 40 67 39 74
286 4 2 0 0 23 43 129 85
287 4 2 0 0 87 116 49 115
288 4 2 0 0 40 116 87 115
289 4 2 0 0 81 30 45 35
290 4 2 0 0 79 30 45 81
291 4 2 0 0 65 79 81 30
292 4 2 0 0 65 29 30 46
293 4 2 0 0 35 29 46 30
294 4 2 0 0 115 23 76 110
295 4 2 0 0 108 76 34 23
296 4 2 0 0 42 23 76 108
297 4 2 0 0 34 23 76 115
298 4 2 0 0 110 23 76 42
299 4 2 0 0 123 105 58 118
300 4 2 0 0 66 24 52 29
$EndElements
