# StiffGIPC auto-generated conservative primitive proxy
v 0.076554938108033585 0.0395 -8.7707618945387368e-18
v 0.073946391848510831 0.039500000000000007 0.019813875979003817
v 0.0662985211867025 0.039500000000000007 0.038277469054016779
v 0.054132515869506993 0.039500000000000014 0.054132515869506979
v 0.038277469054016799 0.039500000000000014 0.066298521186702472
v 0.019813875979003828 0.039500000000000014 0.073946391848510817
v 4.6876379956463533e-18 0.039500000000000014 0.076554938108033571
v -0.019813875979003821 0.039500000000000014 0.073946391848510817
v -0.038277469054016779 0.039500000000000014 0.066298521186702486
v -0.054132515869506986 0.039500000000000014 0.054132515869506986
v -0.0662985211867025 0.039500000000000007 0.038277469054016779
v -0.073946391848510817 0.039500000000000007 0.019813875979003838
v -0.076554938108033585 0.0395 6.0451409675396976e-19
v -0.073946391848510831 0.039499999999999993 -0.019813875979003841
v -0.066298521186702514 0.039499999999999993 -0.038277469054016779
v -0.054132515869507021 0.039499999999999987 -0.054132515869506972
v -0.038277469054016827 0.039499999999999987 -0.066298521186702486
v -0.019813875979003821 0.039499999999999987 -0.073946391848510845
v -1.406291398693906e-17 0.039499999999999987 -0.076554938108033599
v 0.019813875979003793 0.039499999999999987 -0.073946391848510845
v 0.038277469054016799 0.039499999999999987 -0.0662985211867025
v 0.054132515869506979 0.039499999999999987 -0.054132515869507014
v 0.066298521186702472 0.039499999999999993 -0.038277469054016834
v 0.073946391848510803 0.039499999999999993 -0.019813875979003904
v 0.076554938108033585 -0.0395 8.7707618945387368e-18
v 0.073946391848510831 -0.039499999999999993 0.019813875979003838
v 0.0662985211867025 -0.039499999999999993 0.038277469054016793
v 0.054132515869506993 -0.039499999999999987 0.054132515869506993
v 0.038277469054016799 -0.039499999999999987 0.0662985211867025
v 0.019813875979003828 -0.039499999999999987 0.073946391848510845
v 4.6876379956463533e-18 -0.039499999999999987 0.076554938108033599
v -0.019813875979003821 -0.039499999999999987 0.073946391848510845
v -0.038277469054016779 -0.039499999999999987 0.066298521186702514
v -0.054132515869506986 -0.039499999999999987 0.054132515869507
v -0.0662985211867025 -0.039499999999999993 0.038277469054016793
v -0.073946391848510817 -0.039499999999999993 0.019813875979003859
v -0.076554938108033585 -0.0395 1.8146037885831445e-17
v -0.073946391848510831 -0.039500000000000007 -0.019813875979003821
v -0.066298521186702514 -0.039500000000000007 -0.038277469054016765
v -0.054132515869507021 -0.039500000000000014 -0.054132515869506959
v -0.038277469054016827 -0.039500000000000014 -0.066298521186702458
v -0.019813875979003821 -0.039500000000000014 -0.073946391848510817
v -1.406291398693906e-17 -0.039500000000000014 -0.076554938108033571
v 0.019813875979003793 -0.039500000000000014 -0.073946391848510817
v 0.038277469054016799 -0.039500000000000014 -0.066298521186702472
v 0.054132515869506979 -0.039500000000000014 -0.054132515869507
v 0.066298521186702472 -0.039500000000000007 -0.03827746905401682
v 0.073946391848510803 -0.039500000000000007 -0.019813875979003883
v 0 0.0395 -8.7707618945387368e-18
v 0 -0.0395 8.7707618945387368e-18
f 1 2 26
f 1 26 25
f 49 2 1
f 50 25 26
f 2 3 27
f 2 27 26
f 49 3 2
f 50 26 27
f 3 4 28
f 3 28 27
f 49 4 3
f 50 27 28
f 4 5 29
f 4 29 28
f 49 5 4
f 50 28 29
f 5 6 30
f 5 30 29
f 49 6 5
f 50 29 30
f 6 7 31
f 6 31 30
f 49 7 6
f 50 30 31
f 7 8 32
f 7 32 31
f 49 8 7
f 50 31 32
f 8 9 33
f 8 33 32
f 49 9 8
f 50 32 33
f 9 10 34
f 9 34 33
f 49 10 9
f 50 33 34
f 10 11 35
f 10 35 34
f 49 11 10
f 50 34 35
f 11 12 36
f 11 36 35
f 49 12 11
f 50 35 36
f 12 13 37
f 12 37 36
f 49 13 12
f 50 36 37
f 13 14 38
f 13 38 37
f 49 14 13
f 50 37 38
f 14 15 39
f 14 39 38
f 49 15 14
f 50 38 39
f 15 16 40
f 15 40 39
f 49 16 15
f 50 39 40
f 16 17 41
f 16 41 40
f 49 17 16
f 50 40 41
f 17 18 42
f 17 42 41
f 49 18 17
f 50 41 42
f 18 19 43
f 18 43 42
f 49 19 18
f 50 42 43
f 19 20 44
f 19 44 43
f 49 20 19
f 50 43 44
f 20 21 45
f 20 45 44
f 49 21 20
f 50 44 45
f 21 22 46
f 21 46 45
f 49 22 21
f 50 45 46
f 22 23 47
f 22 47 46
f 49 23 22
f 50 46 47
f 23 24 48
f 23 48 47
f 49 24 23
f 50 47 48
f 24 1 25
f 24 25 48
f 49 1 24
f 50 48 25
