# StiffGIPC auto-generated conservative primitive proxy
v 2.7755575615628914e-17 -0.34860364312496794 0
v 0.34860364312496794 2.7755575615628914e-17 0
v -2.7755575615628914e-17 0.34860364312496794 0
v -0.34860364312496794 -2.7755575615628914e-17 0
v 2.7755575615628914e-17 -0.34860364312496794 0.055
v 0.34860364312496794 2.7755575615628914e-17 0.055
v -2.7755575615628914e-17 0.34860364312496794 0.055
v -0.34860364312496794 -2.7755575615628914e-17 0.055
f 1 3 2
f 1 4 3
f 5 6 7
f 5 7 8
f 1 2 6
f 1 6 5
f 3 4 8
f 3 8 7
f 2 3 7
f 2 7 6
f 4 1 5
f 4 5 8
