# bunny_surface.obj - boundary surface extracted from bunny0.msh (outward winding, ~0.3m diag)
# regenerated for v0.6 release demo demo_bunny_abd_obj.py
v -0.053115 -0.016999 -0.038962
v -0.051575 -0.020121 -0.056762
v -0.047969 0.012492 -0.035167
v -0.046540 0.008987 -0.054092
v -0.046239 -0.042247 -0.046398
v -0.045450 -0.062372 -0.052285
v -0.044240 -0.077912 -0.028666
v -0.044120 -0.078561 -0.043486
v -0.043337 -0.074565 -0.040334
v -0.043122 -0.082651 -0.028992
v -0.043078 -0.016881 -0.004517
v -0.043002 -0.082651 -0.043812
v -0.042925 -0.017812 -0.021540
v -0.042177 -0.029304 0.019965
v -0.040832 -0.021395 0.013371
v -0.040578 0.010917 -0.020200
v -0.040502 -0.044693 -0.061977
v -0.039973 -0.077731 -0.013043
v -0.039396 -0.011049 -0.079897
v -0.038997 -0.067336 -0.027601
v -0.038855 -0.082651 -0.012268
v -0.038766 0.008927 0.003891
v -0.038454 -0.071732 -0.056708
v -0.038141 -0.017601 0.006920
v -0.036521 -0.064301 -0.040502
v -0.036210 0.070649 0.029634
v -0.035881 0.082781 0.031704
v -0.035276 -0.000112 0.068546
v -0.035103 0.054923 0.038077
v -0.034700 -0.024133 0.039158
v -0.034325 -0.038540 -0.023231
v -0.034109 -0.020307 0.044822
v -0.033666 -0.039946 0.008992
v -0.033410 -0.007402 0.056930
v -0.033376 -0.038045 -0.010948
v -0.032982 -0.032926 -0.000535
v -0.032825 -0.082423 0.044056
v -0.032928 -0.009353 0.032790
v -0.032863 0.041711 0.047792
v -0.032790 -0.077233 -0.070836
v -0.032636 -0.055464 0.003149
v -0.032524 -0.066769 0.042095
v -0.032201 0.008138 0.047597
v -0.031690 -0.071312 0.026477
v -0.031672 -0.082651 -0.071162
v -0.031107 -0.037103 -0.003715
v -0.031496 0.072025 0.040569
v -0.031380 -0.038388 -0.080086
v -0.031241 0.065286 0.040020
v -0.031114 0.015913 0.054369
v -0.031109 -0.075544 -0.078405
v -0.031010 0.067349 0.065809
v -0.030903 0.080533 0.054209
v -0.030884 0.052556 0.069541
v -0.030711 -0.037626 0.000919
v -0.029901 0.053767 0.045234
v -0.030621 -0.082424 0.050272
v -0.030487 0.034659 -0.036887
v -0.030785 -0.053702 -0.073085
v -0.029990 -0.082651 -0.078732
v -0.029855 -0.082425 0.029565
v -0.028359 0.003757 0.075490
v -0.030204 0.006323 0.072277
v -0.029485 -0.015712 0.083529
v -0.029407 0.004415 0.023997
v -0.029341 -0.069463 -0.067233
v -0.028900 0.023015 -0.075226
v -0.028373 0.030867 -0.053349
v -0.028284 -0.059660 -0.031106
v -0.028121 0.054188 0.073521
v -0.028113 0.029400 0.064177
v -0.028142 0.069309 0.050188
v -0.027764 0.042417 0.055236
v -0.027640 -0.068561 -0.070603
v -0.027451 -0.076301 -0.007946
v -0.026883 0.033122 -0.022428
v -0.026952 -0.020242 0.064126
v -0.026628 -0.049065 0.030050
v -0.026377 0.018063 0.067608
v -0.026333 -0.082651 -0.007721
v -0.025655 -0.004045 0.084950
v -0.025650 0.058941 0.047894
v -0.025617 -0.045301 -0.007944
v -0.025296 0.058461 0.058167
v -0.025264 0.029146 0.070422
v -0.025209 -0.020871 -0.104986
v -0.024804 -0.057800 -0.087838
v -0.024390 -0.082423 0.055174
v -0.024272 -0.065246 -0.018695
v -0.024018 0.012667 0.076305
v -0.023709 0.040733 0.074811
v -0.023703 0.048563 0.063454
v -0.023541 0.053509 0.051683
v -0.023381 0.026385 0.007504
v -0.023293 0.017441 0.086204
v -0.023195 -0.040985 -0.100269
v -0.022796 -0.022155 0.080256
v -0.022786 0.008488 0.080611
v -0.022742 0.046704 0.056957
v -0.022528 0.012793 0.086480
v -0.022323 -0.033970 0.054919
v -0.022253 -0.039249 0.045146
v -0.022502 0.001004 0.083743
v -0.022142 0.005671 0.088865
v -0.022012 -0.060824 0.044691
v -0.021719 0.012645 0.091033
v -0.021779 0.002653 0.084998
v -0.021764 -0.075758 -0.086375
v -0.021627 -0.064702 0.034174
v -0.021493 0.016264 0.093616
v -0.021471 -0.013063 0.093906
v -0.021403 -0.082651 -0.085565
v -0.021234 0.009707 0.089907
v -0.021180 0.004938 -0.096709
v -0.021114 0.010712 0.085771
v -0.021086 0.008482 0.082112
v -0.020496 0.006289 0.095467
v -0.020194 0.069764 0.044400
v -0.020176 -0.002182 0.090371
v -0.020033 -0.005005 -0.104349
v -0.019927 0.006233 0.093192
v -0.019777 0.005415 -0.108822
v -0.019749 -0.067023 -0.078374
v -0.018419 -0.025074 0.066829
v -0.019637 0.000615 0.089279
v -0.019394 -0.006496 0.092604
v -0.019202 -0.017131 0.099653
v -0.019128 0.069467 0.053079
v -0.019095 0.020969 0.020483
v -0.018880 0.000257 0.094835
v -0.018823 0.001434 0.092054
v -0.018816 0.061543 0.039266
v -0.018775 -0.061035 -0.036910
v -0.018750 0.027134 0.080769
v -0.018286 0.008045 0.099009
v -0.018355 0.055198 0.040143
v -0.018206 -0.021198 0.087566
v -0.017698 -0.002584 0.098162
v -0.017569 0.063815 0.060724
v -0.016123 -0.026411 0.076217
v -0.016604 -0.056536 -0.094806
v -0.016308 -0.018280 0.105223
v -0.016202 0.045264 0.045208
v -0.015997 -0.010403 0.105198
v -0.015933 -0.025179 0.097484
v -0.015843 -0.020077 -0.113252
v -0.015337 -0.064854 0.005828
v -0.015288 0.017971 -0.099221
v -0.015212 0.024658 0.046589
v -0.014988 -0.082424 0.051730
v -0.014891 0.059875 0.052171
v -0.014833 0.055047 0.067054
v -0.014823 0.022375 0.095121
v -0.014810 0.009731 0.102012
v -0.014686 -0.039996 -0.106434
v -0.014216 -0.073038 -0.053570
v -0.014162 0.018767 -0.090443
v -0.013769 -0.075136 -0.024850
v -0.013604 -0.082333 -0.053345
v -0.013595 -0.055624 -0.017558
v -0.013005 -0.026186 0.083809
v -0.013519 -0.058314 0.031666
v -0.013483 -0.050259 -0.024876
v -0.013378 0.020854 0.040975
v -0.013569 -0.073274 -0.084447
v -0.012837 0.045913 0.072131
v -0.012815 -0.082651 -0.083590
v -0.012651 -0.082651 -0.024625
v -0.012356 0.029907 0.053885
v -0.012464 0.013871 -0.112452
v -0.011866 0.029336 -0.094943
v -0.011857 -0.065484 -0.077335
v -0.011372 0.036544 0.051081
v -0.010905 -0.073339 -0.037032
v -0.010870 -0.054411 -0.008516
v -0.010632 0.006110 -0.112256
v -0.010610 0.051750 0.057441
v -0.010530 0.039124 0.074593
v -0.010386 0.008952 0.105448
v -0.010325 -0.073416 -0.073030
v -0.010226 -0.025938 0.102915
v -0.009987 -0.016071 0.109116
v -0.009787 -0.082650 -0.036807
v -0.009460 0.025419 -0.088049
v -0.009347 0.023351 -0.108966
v -0.009331 -0.030904 0.068164
v -0.009284 -0.055822 -0.092503
v -0.008955 -0.031054 0.076350
v -0.008740 -0.054247 -0.028650
v -0.008632 -0.082650 -0.072805
v -0.008006 -0.003246 0.109021
v -0.007279 -0.027486 0.093254
v -0.007107 -0.082424 0.039522
v -0.007097 -0.055714 -0.008233
v -0.006988 0.044432 0.062387
v -0.006858 -0.082424 0.034152
v -0.006849 -0.029410 0.084362
v -0.006385 -0.020376 -0.111594
v -0.006060 -0.067245 0.041468
v -0.005872 -0.039552 -0.104109
v -0.005851 -0.004640 -0.104506
v -0.004177 0.006894 -0.112592
v -0.003998 -0.027498 0.098777
v -0.003953 -0.030383 0.091572
v -0.003421 -0.071482 0.028101
v -0.000921 -0.011207 0.113252
v -0.000918 -0.023150 0.109834
v -0.000901 -0.002541 0.112036
v -0.000882 -0.024442 0.103571
v -0.000854 0.012208 0.108071
v -0.000649 -0.028791 0.096612
v -0.000800 -0.028731 0.089128
v -0.000770 -0.028424 0.084239
v -0.000676 0.026467 0.097203
v -0.000554 -0.030614 0.076855
v -0.000678 -0.033071 0.068195
v -0.000663 0.035729 0.082711
v -0.000644 -0.042991 0.060191
v -0.000555 -0.048914 0.044157
v -0.000555 0.039052 0.065806
v -0.000983 -0.057258 0.029542
v -0.000467 0.037740 0.051099
v -0.000431 0.027826 0.042802
v -0.000398 0.024981 0.036798
v -0.000394 -0.061106 0.014766
v -0.000311 0.030163 0.023748
v -0.000252 -0.057890 -0.007581
v -0.000197 0.041755 0.008058
v -0.000185 -0.059042 -0.018798
v -0.000092 -0.056515 -0.033390
v -0.000006 0.048179 -0.021530
v -0.000060 -0.058296 -0.053899
v 0.000106 -0.063952 -0.067461
v 0.000121 0.049038 -0.042092
v 0.000184 -0.055110 -0.077991
v 0.000292 -0.038559 -0.091569
v 0.000308 0.036812 -0.075687
v 0.000370 0.029339 -0.087634
v 0.000386 -0.016825 -0.101707
v 0.000420 0.035158 -0.094376
v 0.000423 -0.004458 -0.104580
v 0.000492 0.007677 -0.112923
v 0.000503 0.026045 -0.110118
v 0.002301 -0.030445 0.091401
v 0.002283 -0.027508 0.098815
v 0.002438 -0.071533 0.028306
v 0.004926 -0.067303 0.041705
v 0.005777 0.006803 -0.112495
v 0.005305 -0.029429 0.084436
v 0.005632 -0.027506 0.093334
v 0.005768 -0.082485 0.034399
v 0.005936 0.044412 0.062466
v 0.005950 -0.082486 0.039772
v 0.006606 -0.039571 -0.104032
v 0.006607 -0.055734 -0.008149
v 0.006341 -0.001580 0.108791
v 0.007268 -0.020397 -0.111510
v 0.007773 -0.031013 0.076723
v 0.007981 -0.030930 0.068270
v 0.008180 -0.016099 0.109227
v 0.008464 -0.025966 0.103029
v 0.008505 -0.054273 -0.028544
v 0.008670 0.008758 0.105613
v 0.008852 -0.082677 -0.072698
v 0.009312 0.039094 0.074714
v 0.009640 -0.082655 -0.036984
v 0.009641 0.051719 0.057565
v 0.009826 -0.055851 -0.092386
v 0.010192 0.025389 -0.087928
v 0.010330 0.023321 -0.108846
v 0.010387 -0.054444 -0.008386
v 0.010434 0.036511 0.051215
v 0.010575 -0.073447 -0.072902
v 0.010715 -0.073371 -0.036899
v 0.011364 0.029872 0.054030
v 0.011603 0.006077 -0.112119
v 0.011737 0.046171 0.072117
v 0.011305 -0.025824 0.085489
v 0.012183 -0.065521 -0.077187
v 0.012280 -0.082688 -0.024473
v 0.012517 0.020815 0.041134
v 0.012532 -0.058353 0.031825
v 0.012695 0.029299 -0.094792
v 0.013167 -0.082690 -0.083431
v 0.013773 0.009974 0.101526
v 0.013213 -0.050300 -0.024713
v 0.013219 -0.055664 -0.017394
v 0.013234 -0.004861 -0.104270
v 0.013303 0.022333 0.095293
v 0.013345 0.013967 -0.112352
v 0.013424 -0.075177 -0.024683
v 0.013586 -0.082374 -0.053179
v 0.013682 -0.082509 0.052075
v 0.013755 0.055003 0.067229
v 0.013745 -0.073439 -0.084215
v 0.014144 0.059885 0.051929
v 0.014229 -0.073080 -0.053395
v 0.014240 -0.025224 0.097668
v 0.014255 -0.010449 0.105383
v 0.014293 0.024613 0.046769
v 0.014523 -0.018334 0.105446
v 0.014647 -0.064899 0.006012
v 0.014904 0.018723 -0.090265
v 0.015221 0.044594 0.045717
v 0.015446 -0.040041 -0.106250
v 0.015706 -0.025767 0.076969
v 0.016064 -0.002635 0.098368
v 0.016134 0.017923 -0.099028
v 0.016595 0.063763 0.060934
v 0.016646 -0.021251 0.087780
v 0.016747 -0.020126 -0.113053
v 0.017012 0.008306 0.098899
v 0.017171 -0.056587 -0.094600
v 0.017277 0.001389 0.092251
v 0.017363 0.000618 0.094852
v 0.017420 0.027080 0.080991
v 0.017507 -0.017186 0.099878
v 0.017607 0.055144 0.040363
v 0.017828 -0.006158 0.092571
v 0.018098 0.061487 0.039492
v 0.018122 0.000558 0.089511
v 0.025792 -0.082548 -0.049815
v 0.017973 -0.024573 0.066930
v 0.018520 0.006572 0.093168
v 0.018555 0.020997 0.020511
v 0.018620 -0.061092 -0.036681
v 0.018639 -0.002241 0.090608
v 0.018923 0.006230 0.095709
v 0.019438 0.069705 0.044643
v 0.019673 0.010440 0.085675
v 0.019683 0.008421 0.082362
v 0.019739 0.009645 0.090158
v 0.019858 -0.013125 0.094159
v 0.019973 0.016202 0.093870
v 0.020083 -0.067083 -0.078130
v 0.020286 0.012039 0.090743
v 0.020323 0.002590 0.085256
v 0.020589 -0.064807 0.034602
v 0.020695 0.005393 0.089073
v 0.020703 0.005354 -0.108574
v 0.020791 0.000956 0.084258
v 0.020857 -0.060931 0.045123
v 0.020873 -0.005067 -0.104098
v 0.021084 0.012727 0.086747
v 0.021124 -0.034035 0.055185
v 0.021158 -0.039315 0.045412
v 0.021323 -0.022221 0.080526
v 0.021400 0.008422 0.080882
v 0.021678 0.047277 0.056737
v 0.021778 -0.082716 -0.085301
v 0.021866 0.017373 0.086481
v 0.021956 0.004872 -0.096445
v 0.022170 -0.075824 -0.086106
v 0.022367 0.040325 0.075240
v 0.022649 0.048493 0.063738
v 0.022715 0.053878 0.051627
v 0.022740 0.012481 0.076556
v 0.022945 0.026315 0.007787
v 0.023041 -0.082537 0.055634
v 0.023875 -0.041056 -0.099981
v 0.023868 -0.065331 -0.018407
v 0.024066 0.029072 0.070724
v 0.024012 -0.003872 0.085207
v 0.024177 0.057851 0.058010
v 0.024818 0.058865 0.048203
v 0.025153 -0.045378 -0.007633
v 0.025179 0.017986 0.067923
v 0.025282 -0.057876 -0.087532
v 0.025682 -0.020321 0.064448
v 0.025688 -0.049144 0.030370
v 0.025754 -0.082729 -0.007402
v 0.026008 -0.020948 -0.104672
v 0.026894 -0.076383 -0.007613
v 0.026644 0.044334 0.054173
v 0.026960 0.054105 0.073859
v 0.026992 0.029316 0.064515
v 0.027147 0.068540 0.050221
v 0.027235 0.033025 -0.022910
v 0.027874 -0.068645 -0.070263
v 0.027990 -0.015798 0.083881
v 0.028061 -0.059745 -0.030761
v 0.028133 0.001777 0.075563
v 0.028432 0.006640 0.073200
v 0.028695 0.030781 -0.052999
v 0.028703 0.004327 0.024353
v 0.028819 -0.082555 0.030093
v 0.029437 -0.082556 0.050521
v 0.029503 0.022812 -0.074884
v 0.029531 -0.069552 -0.066873
v 0.029767 0.052465 0.069912
v 0.028894 0.054972 0.045181
v 0.029983 0.067257 0.066183
v 0.030058 0.080441 0.054583
v 0.030162 -0.037718 0.001292
v 0.030176 0.015762 0.054796
v 0.030281 -0.082742 -0.078362
v 0.030524 0.065192 0.040398
v 0.030619 0.034567 -0.036512
v 0.030443 -0.053353 -0.074335
v 0.030725 -0.071448 0.027028
v 0.030792 0.071931 0.040951
v 0.031079 -0.036348 -0.002664
v 0.031219 0.008042 0.047986
v 0.031381 -0.066907 0.042656
v 0.031417 -0.075638 -0.078023
v 0.031611 -0.082562 0.044620
v 0.032146 -0.037444 -0.079661
v 0.032196 -0.082746 -0.069603
v 0.031892 0.041166 0.048535
v 0.032155 -0.009543 0.033023
v 0.032006 -0.055561 0.003545
v 0.032247 -0.007085 0.058157
v 0.032465 -0.033024 -0.000134
v 0.032954 -0.038137 -0.010351
v 0.033836 -0.076814 -0.068301
v 0.033037 -0.039786 0.009527
v 0.033074 -0.020408 0.045234
v 0.033723 -0.024237 0.039577
v 0.034011 -0.000217 0.068970
v 0.034069 -0.038643 -0.022813
v 0.034378 0.054818 0.038502
v 0.035318 0.082674 0.032140
v 0.035637 0.070541 0.030075
v 0.036398 -0.064411 -0.040056
v 0.037579 -0.017715 0.007383
v 0.038321 0.008811 0.004363
v 0.038344 -0.082768 -0.011845
v 0.038507 -0.071848 -0.056237
v 0.038707 -0.067454 -0.027126
v 0.039473 -0.077851 -0.012557
v 0.039916 -0.011169 -0.079411
v 0.040179 -0.021517 0.013867
v 0.040434 0.010795 -0.019703
v 0.040753 -0.045006 -0.061375
v 0.041419 -0.029431 0.020477
v 0.042657 -0.017010 -0.003992
v 0.042710 -0.017941 -0.021016
v 0.042802 -0.082781 -0.028466
v 0.042864 -0.082781 -0.043286
v 0.043180 -0.074695 -0.039804
v 0.043930 -0.078045 -0.028126
v 0.043991 -0.078694 -0.042946
v 0.045477 -0.062509 -0.051729
v 0.046254 -0.042386 -0.045832
v 0.046804 0.008846 -0.053521
v 0.048012 0.012347 -0.034579
v 0.051873 -0.020080 -0.056087
v 0.053115 -0.017159 -0.038312
v -0.023643 -0.044040 -0.017992
v -0.027946 0.014292 0.014520
v -0.003745 -0.058410 0.003267
v -0.004212 -0.060304 -0.078809
v -0.016488 0.036860 -0.012216
v -0.028179 -0.032878 0.041391
v 0.018474 -0.082523 0.040933
v -0.046299 -0.001165 -0.028904
v 0.038058 -0.050051 -0.038912
v -0.020135 -0.082424 0.041035
v 0.010967 -0.066284 0.037443
v 0.006532 0.011255 -0.111553
v -0.031248 -0.036220 0.032614
v 0.036973 -0.078330 -0.060201
v -0.015246 0.041419 -0.029208
v -0.024785 0.028811 -0.003590
v -0.034153 0.008289 -0.076007
v -0.013472 -0.001692 0.105311
v -0.021877 -0.055595 -0.001855
v 0.039066 0.014996 -0.063141
v 0.034139 0.010865 -0.074737
v 0.021781 0.030487 -0.063678
v 0.018508 0.069775 0.052729
v -0.042251 -0.000753 -0.068049
v 0.043074 -0.001420 -0.067153
v 0.025493 0.074631 0.039713
v 0.021733 -0.073727 0.018053
v 0.017632 0.033383 0.056996
v -0.022596 -0.073639 0.017697
v -0.022466 0.011534 0.031349
v -0.023288 0.014117 0.044291
v 0.020723 -0.082551 -0.031294
v -0.023692 -0.044434 -0.023047
v 0.038082 0.021584 -0.044961
v 0.030206 -0.070803 0.018536
v 0.021232 -0.048546 -0.014537
v 0.032472 0.020982 -0.008475
v 0.028232 -0.005481 -0.093377
v 0.025322 0.013792 -0.086064
v 0.025090 0.029670 -0.007561
v 0.011367 -0.063677 -0.040970
v -0.026169 0.054904 0.064249
v -0.039345 -0.078177 -0.054937
v -0.031073 0.017656 0.005697
v -0.021787 0.022881 0.054152
v 0.017293 -0.082520 0.032246
v -0.017311 -0.082425 0.032385
v -0.040488 -0.031156 -0.069043
v 0.000333 -0.029082 -0.095990
v 0.041274 -0.030892 -0.067986
v 0.045540 -0.034103 -0.059144
v -0.034781 -0.073638 -0.067557
v 0.028206 -0.060296 0.028699
v -0.031305 -0.049100 -0.027169
v -0.002743 -0.028189 -0.102908
v -0.022665 0.070204 0.058234
v 0.021868 0.014428 0.044560
v 0.027818 0.073446 0.035342
v -0.019243 0.024090 0.060625
v 0.034686 -0.073672 -0.067454
v -0.019619 0.033024 0.057533
v 0.006246 -0.056110 -0.025774
v 0.023577 0.038313 0.067590
v 0.022592 0.040519 0.062125
v 0.018199 0.035673 -0.014481
v 0.044800 -0.027311 -0.032124
v -0.041155 -0.005968 -0.011167
v 0.027894 0.036563 0.058600
v 0.025277 0.037177 0.062100
v 0.022592 0.029323 0.075682
v 0.037852 -0.001316 -0.076395
v 0.029081 0.026854 -0.063934
v 0.037171 -0.031136 0.010698
v -0.048708 0.002578 -0.045309
v 0.025365 -0.072258 -0.077930
v -0.004382 -0.056280 -0.041327
v 0.034347 -0.035154 0.008836
v -0.009518 -0.076912 0.025266
v -0.026254 0.034984 0.063975
v -0.024469 0.034679 0.066178
v -0.023883 0.038760 0.063049
v -0.007081 0.028869 0.089606
v 0.039088 -0.070007 -0.040386
v 0.016540 0.033173 -0.002929
v -0.037058 0.023465 -0.029140
v -0.029540 -0.027915 0.046094
v 0.018846 0.023434 0.061555
v 0.020312 -0.049564 -0.096554
v -0.032190 -0.082534 -0.041662
v -0.003439 -0.047575 -0.091753
v -0.006521 -0.056091 -0.025852
v 0.023337 -0.059610 -0.034471
v -0.015735 -0.049002 0.035943
v -0.018432 -0.056981 0.029362
v -0.029598 -0.029654 -0.091821
v -0.006657 0.045549 -0.033092
v 0.025166 0.022003 0.069650
v 0.028389 0.066675 0.043868
v 0.021848 0.070271 0.058455
v -0.032769 -0.054266 0.016902
v -0.026639 -0.054245 0.023842
v 0.011340 -0.077966 -0.064044
v 0.036519 -0.061087 -0.040944
v -0.038625 -0.028176 -0.022386
v 0.005266 -0.065839 -0.063468
v -0.020005 -0.029655 -0.106625
v 0.046922 -0.008914 -0.029402
v 0.042149 -0.010865 -0.020692
v 0.031710 -0.006172 0.074669
v 0.011724 -0.029221 -0.108791
v -0.032162 -0.008493 0.076542
v 0.004506 0.031152 0.088076
v 0.033512 0.006569 0.014358
v -0.044495 -0.028895 -0.032934
v 0.047910 -0.028756 -0.048027
v 0.048950 -0.032475 -0.042877
v 0.031806 -0.054652 0.018087
v -0.024905 0.034992 0.068435
v -0.027783 0.039641 0.070027
v -0.024423 0.039603 0.066669
v -0.000313 -0.059589 0.004256
v -0.008446 0.042400 -0.016837
v 0.016224 0.038624 0.075742
v -0.030760 -0.011134 0.067304
v 0.010989 0.030586 0.085349
v -0.037029 -0.025723 -0.002098
v 0.004292 -0.056295 -0.041288
v -0.038989 -0.027070 -0.015408
v -0.005998 -0.068027 -0.062659
v 0.020484 -0.046949 -0.025859
v -0.020758 0.038766 0.049677
v -0.016098 0.029518 -0.074382
v 0.000319 0.043443 -0.056848
v -0.018433 0.030114 0.057960
v -0.019165 -0.047847 -0.026442
v 0.024587 0.010848 0.023255
v 0.022488 0.010657 0.030795
v -0.010362 -0.060228 -0.036827
v -0.049935 -0.028471 -0.042243
v -0.032546 -0.000680 0.040420
v -0.012954 0.026896 -0.081292
v 0.027511 -0.005370 0.079942
v -0.028465 0.073552 0.034990
v -0.023846 0.029749 0.075379
v -0.036135 -0.054386 -0.064034
v 0.021369 -0.046563 -0.009490
v -0.030879 -0.072500 0.019841
v -0.041235 -0.055244 -0.043932
v -0.035802 -0.052369 -0.037509
v 0.025693 0.056408 0.064620
v 0.008709 0.039587 -0.009086
v 0.029531 -0.030769 -0.090075
v -0.022898 -0.082651 -0.062228
v -0.037720 0.016001 -0.064659
v 0.041722 -0.011498 -0.002108
v -0.027647 -0.082542 -0.025400
v 0.011162 0.042483 -0.033513
v 0.035751 0.022667 -0.028466
v 0.041946 -0.008162 -0.011531
v 0.010663 0.029495 0.015608
v 0.024624 -0.043269 -0.016410
v 0.035279 -0.055746 -0.064674
v 0.002783 -0.072128 0.024888
v -0.006895 0.015546 -0.110686
v -0.027615 -0.065949 0.037133
v -0.022489 -0.045953 -0.009677
v -0.020643 -0.049353 -0.015133
v -0.032591 0.060057 0.039038
v 0.003895 -0.029317 -0.101824
v 0.015424 0.029850 -0.074573
v -0.023584 0.072577 0.041656
v 0.038389 -0.028292 -0.021914
v -0.029144 0.066762 0.043516
v 0.008600 -0.076875 0.025343
v -0.016955 0.012125 -0.099586
v 0.012462 -0.049042 0.037293
v -0.012800 0.039605 -0.050340
v -0.022705 0.038187 -0.038638
v -0.038991 0.020366 -0.047809
v 0.027247 -0.019200 0.056821
v -0.027787 0.068268 0.056409
v 0.026033 0.037294 0.070478
v -0.019134 -0.082651 -0.016615
v 0.020384 -0.082712 -0.073857
v -0.007838 0.017292 0.101596
v 0.040021 -0.001344 0.001128
v 0.032962 -0.016059 -0.092041
v -0.033094 -0.015193 -0.090932
v 0.027876 -0.043662 -0.087368
v 0.006121 -0.059686 0.023489
v -0.000102 0.044967 -0.006736
v -0.050542 -0.002253 -0.037064
v 0.050564 -0.002406 -0.036445
v -0.035120 -0.008490 0.018684
v 0.034441 -0.008595 0.019110
v -0.019686 -0.079668 0.027415
v -0.037337 -0.082651 -0.057487
v 0.038131 -0.082767 -0.055119
v 0.031106 -0.063182 0.011041
v -0.030942 -0.001949 -0.086811
v 0.049338 -0.005617 -0.054804
v -0.049102 -0.005468 -0.055406
v -0.033774 -0.006593 0.015458
v 0.033141 -0.006694 0.015868
v -0.025130 0.014566 -0.085394
v 0.031228 0.001988 -0.084502
v 0.010285 -0.041475 0.049671
v 0.036371 -0.024554 -0.078875
v -0.035388 -0.024719 -0.079991
v -0.011647 0.029153 0.014613
v 0.036763 0.020495 -0.054850
v 0.041078 -0.000352 -0.010906
v 0.031365 -0.063505 0.015287
v -0.011571 0.036094 -0.061765
v 0.039316 0.023457 -0.035546
v -0.039029 0.023762 -0.036277
v -0.032250 -0.062099 0.015565
v -0.011789 0.034070 0.007781
v 0.011374 0.034035 0.007923
v 0.030533 -0.035632 0.034474
v -0.045530 -0.015486 -0.068309
v 0.045506 -0.015161 -0.068422
v 0.016136 0.038026 -0.049081
v -0.044876 -0.034372 -0.060237
v 0.029999 -0.011677 0.070183
v 0.012202 -0.053300 0.029915
v -0.034402 -0.039185 0.025007
v 0.033553 -0.039287 0.025423
v 0.019992 -0.082484 -0.041252
v -0.050673 -0.008556 -0.046465
v -0.012488 0.030482 0.085280
v -0.010128 0.037923 -0.001246
v -0.037766 -0.022764 0.026265
v -0.010962 -0.041648 0.051798
v 0.041592 -0.038150 -0.034923
v -0.039191 -0.041306 -0.033760
v -0.009379 -0.068168 0.016965
v 0.045279 0.001402 -0.028093
v -0.033926 0.022012 -0.021722
v 0.033834 0.021910 -0.021307
v 0.019307 -0.055399 -0.000953
v 0.036525 -0.018461 0.026598
v 0.012230 0.041383 -0.022381
v 0.011529 0.043625 -0.040005
v -0.011948 0.043226 -0.040517
v 0.031641 -0.082626 -0.037809
v 0.024072 -0.082579 -0.061481
v -0.033119 -0.007578 0.046037
v 0.032263 -0.008239 0.045735
v -0.048951 -0.031085 -0.051559
v -0.008114 0.023512 0.029591
v 0.006871 0.023414 0.030605
v -0.027737 -0.007935 -0.094925
v 0.028583 -0.064124 -0.031611
v 0.038210 -0.027177 -0.014793
v -0.038438 -0.026719 0.029562
v -0.025414 0.048704 0.043816
v 0.011522 0.036675 -0.060352
v -0.033021 0.017662 -0.007717
v 0.003107 -0.058420 0.003309
v 0.032406 -0.071355 -0.017736
v -0.035121 -0.019064 -0.085181
v -0.036793 -0.014830 0.022836
v -0.021053 0.030315 -0.065163
v 0.031232 0.075607 0.041180
v -0.039672 0.009922 -0.008154
v 0.039346 0.010007 -0.008352
v 0.021878 -0.071031 0.050037
v -0.023201 -0.071624 0.049933
v 0.027607 -0.064266 -0.076224
v 0.037245 -0.028809 -0.007768
v -0.038441 -0.027138 -0.008302
v 0.017012 -0.069316 -0.028350
v -0.030488 0.035555 0.055984
v -0.010865 -0.038376 0.058136
v 0.010449 -0.038070 0.058062
v 0.029694 0.005634 0.033470
v -0.030731 0.006082 0.035064
v 0.029362 -0.044465 0.019948
v -0.030148 -0.044403 0.020102
v 0.023641 -0.044472 -0.023763
v -0.031757 -0.063982 0.011495
v -0.027058 -0.070830 0.046740
v 0.019824 0.039689 -0.038487
v -0.027525 -0.082572 -0.053057
v -0.011099 -0.044494 0.044278
v 0.010786 -0.044862 0.043569
v -0.045845 -0.052309 -0.049342
v 0.045865 -0.052448 -0.048780
v 0.024579 -0.049466 -0.093756
v 0.009610 -0.063822 -0.032722
v -0.012428 -0.070883 0.015547
v 0.030633 0.017563 0.006075
v 0.011348 -0.071433 0.016559
v 0.020770 0.022817 0.054413
v 0.019830 0.024158 -0.081399
v 0.031065 -0.049194 -0.026787
v -0.000041 -0.057258 -0.041854
v -0.028637 0.026941 -0.064287
v -0.032123 -0.071489 -0.015869
v 0.023861 -0.066035 0.010992
v -0.012212 -0.066162 -0.044451
v -0.032258 -0.076868 0.035266
v 0.031192 0.004548 0.056445
v -0.033375 0.081650 0.043032
v 0.032688 0.081557 0.043361
v -0.028683 -0.064174 -0.032025
v -0.020877 -0.082651 -0.074334
v 0.036933 -0.064425 -0.060333
v -0.036264 -0.041578 -0.070487
v 0.024800 0.049706 0.042110
v -0.037926 -0.030680 0.010360
v -0.033574 0.003595 0.057095
v 0.043089 -0.053662 -0.056604
v 0.007131 -0.065710 -0.053782
v -0.007689 -0.066368 -0.053993
v 0.018283 -0.057009 -0.029653
v -0.010524 -0.074834 0.046599
v 0.009304 -0.074906 0.046890
v -0.007037 -0.053614 0.037911
v 0.015501 0.020864 0.030922
v -0.028218 -0.017977 0.073827
v 0.036304 -0.042010 -0.070325
v -0.027985 0.035312 0.060051
v -0.000604 -0.059409 0.021258
v -0.010522 0.025165 0.021973
v -0.000138 -0.057778 -0.026094
v -0.013777 -0.057519 -0.032560
v 0.034019 -0.070700 -0.061555
v -0.006561 -0.055263 -0.034989
v -0.028877 -0.041346 -0.020572
v -0.019321 0.019627 0.090702
v -0.003641 -0.057378 -0.013515
v -0.034681 -0.045357 -0.029644
v -0.004280 -0.060279 0.019771
v -0.024529 0.034272 0.072529
v -0.033851 -0.038292 -0.017090
v 0.028599 -0.052674 -0.080171
v -0.028257 0.021892 0.000275
v 0.001357 -0.059763 0.009037
v 0.029061 0.034618 0.057342
v -0.002069 -0.059758 0.009016
v 0.011219 -0.082525 -0.062938
v 0.021126 -0.071454 -0.082118
v 0.027109 -0.017517 0.075055
v -0.027311 0.024167 0.065760
v 0.006955 -0.072046 0.021131
v -0.036758 -0.039923 -0.028496
v 0.028393 -0.057074 -0.078351
v -0.032815 -0.043820 -0.025200
v -0.004886 -0.064637 0.015865
v 0.026560 -0.065832 -0.075182
v -0.025264 0.024395 0.070887
v 0.029025 -0.058810 -0.075280
v -0.000319 -0.060292 0.009191
v 0.037128 -0.025855 -0.002168
v -0.023823 -0.050024 -0.005316
v -0.023866 0.031212 0.060855
v 0.031549 -0.000559 0.039768
v 0.033051 -0.074655 -0.072739
v 0.024038 -0.067925 -0.074196
v 0.004292 -0.069401 0.020370
v -0.018512 -0.056953 -0.029878
v 0.028569 -0.066909 -0.071549
v -0.010058 -0.055857 -0.021705
v 0.016914 -0.070261 -0.081172
v 0.026563 -0.030252 0.046222
v -0.026371 0.033760 0.070248
v 0.022234 0.020188 0.050783
v -0.023215 0.020256 0.050504
v -0.024883 -0.059808 0.004489
v 0.030896 -0.082661 -0.022485
v 0.023326 -0.060230 0.004779
v 0.002838 -0.060418 0.019031
v 0.003619 -0.066512 0.025626
v 0.012402 -0.073264 -0.063149
v -0.018183 0.002754 0.098435
v -0.024202 -0.030928 -0.102627
v 0.024942 -0.031002 -0.102326
v 0.018627 -0.061835 -0.086365
v 0.009061 -0.059076 -0.030646
v -0.039485 -0.072534 -0.020322
v 0.044306 -0.036786 -0.054753
v 0.018881 0.038585 0.049984
v 0.007688 0.042568 -0.048412
v 0.034132 -0.082661 -0.046531
v -0.009551 -0.057237 -0.032739
v -0.040055 0.001760 -0.005054
v 0.013394 -0.055641 -0.029099
v -0.013538 -0.055576 -0.029253
v -0.020989 0.010550 0.094307
v -0.020427 0.049715 0.072868
v -0.008000 -0.048215 -0.098024
v 0.021250 -0.063205 -0.027540
v -0.021524 -0.063141 -0.027802
v -0.004416 -0.055381 -0.031020
v -0.027648 -0.062668 -0.038706
v 0.004207 -0.055394 -0.030967
v 0.027099 -0.027222 0.050209
v -0.041517 -0.000864 -0.020459
v 0.020338 -0.030835 -0.105664
v 0.026867 0.066014 0.034783
v -0.027513 0.066096 0.034450
v -0.020081 0.012178 0.096162
v -0.030909 -0.002073 0.076059
v -0.032300 -0.061674 0.021187
v 0.019910 -0.075322 -0.016745
v -0.020037 -0.075415 -0.017267
v -0.004372 -0.057356 -0.021946
v 0.041291 -0.000035 -0.020198
v -0.003306 -0.056303 -0.029621
v 0.003077 -0.056313 -0.029582
v 0.006913 0.031176 0.048934
v 0.013428 -0.069519 0.046038
v 0.021778 0.058934 0.067396
v -0.019097 0.001853 0.096814
v -0.007715 -0.062670 0.009657
v -0.007135 0.033922 0.058830
v 0.005744 0.034200 0.059583
v -0.011862 -0.063337 0.028814
v 0.027223 -0.055776 -0.082755
v -0.011507 -0.055225 -0.012805
v 0.017805 -0.077285 0.024203
v 0.012444 -0.055866 -0.030373
v 0.021936 -0.062427 -0.083233
v 0.018061 0.047664 0.071235
v -0.020896 -0.082418 -0.044497
v -0.017778 0.023844 0.087385
v 0.009457 -0.053875 -0.024681
v -0.009123 -0.053862 -0.025553
v 0.026282 -0.070393 -0.074375
v 0.010627 -0.060317 -0.001068
v -0.011217 -0.060284 -0.001202
v -0.030535 -0.040867 -0.024034
v -0.022955 -0.045520 -0.025640
v -0.028001 -0.063001 0.026470
v 0.003770 -0.062327 0.012543
v 0.039780 -0.078276 -0.053416
v 0.035003 -0.049311 -0.068584
v -0.038769 -0.034630 -0.027746
v 0.030470 -0.057155 -0.072101
v -0.005963 0.037798 0.058443
v 0.004939 0.037781 0.058510
v -0.012524 -0.068092 0.031137
v 0.000314 -0.063713 0.018151
v 0.001730 -0.068926 0.024921
v 0.027653 -0.062778 -0.038396
v -0.002731 -0.069120 0.025064
v -0.008180 0.044572 -0.026117
v -0.001150 -0.063700 0.018100
v 0.024039 0.035310 -0.045114
v -0.003449 -0.054947 -0.031256
v -0.015342 -0.047302 -0.101224
v 0.012517 -0.059671 -0.001187
v 0.003234 -0.054961 -0.031221
v 0.009514 -0.052028 -0.027125
v -0.014302 -0.051913 -0.008858
v -0.009641 -0.052054 -0.027319
v 0.003563 -0.063083 0.022495
v 0.011005 -0.060686 -0.084787
v 0.030586 -0.045458 0.001630
v -0.031228 -0.045911 0.001331
v -0.026745 -0.043194 -0.024837
v -0.032777 -0.053764 0.010606
v -0.025862 -0.070773 -0.013320
v -0.026753 -0.042848 -0.010098
v 0.025701 0.037473 0.052656
v 0.002563 -0.063771 0.015292
v -0.007839 0.031199 0.048844
v 0.009220 -0.056624 -0.031651
v 0.037259 -0.067447 -0.046660
v 0.047912 -0.017550 -0.029664
v 0.006714 0.044716 -0.027953
v -0.029002 -0.046439 -0.026113
v -0.027828 0.011689 0.071222
v 0.030497 -0.060956 -0.069866
v -0.025900 -0.046434 -0.026047
v 0.007127 -0.063003 0.010389
v 0.035022 -0.025370 0.003624
v 0.001878 -0.069017 0.022207
v 0.000400 -0.063862 0.017296
v 0.038727 -0.034869 -0.027713
v 0.023403 0.020777 0.073640
v -0.027009 -0.043699 -0.013040
v 0.016595 -0.082640 -0.068429
v -0.011882 0.015647 0.100643
v -0.014036 -0.064034 0.043080
v 0.012891 -0.064117 0.043414
v 0.033089 0.047881 0.043668
v 0.007425 -0.054791 -0.031810
v -0.023548 -0.065109 0.009367
v -0.014038 -0.066127 0.037017
v -0.018517 -0.009395 0.098328
v -0.016354 -0.053984 -0.006094
v -0.019347 -0.050176 -0.007439
v 0.031294 -0.066386 -0.022763
v -0.026492 -0.042796 -0.022063
v 0.023786 -0.062661 -0.034072
v 0.001022 -0.066320 0.021536
v 0.041207 -0.073446 -0.046444
v -0.017253 -0.011869 0.101656
v -0.008145 -0.048958 0.040050
v 0.025056 0.044686 0.045811
v -0.037935 -0.034495 0.014541
v -0.023953 0.021151 0.075825
v -0.007980 -0.067078 0.028484
v 0.032891 -0.064611 -0.034310
v -0.001907 -0.066294 0.021433
v 0.029645 -0.072142 -0.074143
v -0.033247 0.007871 0.061483
v 0.032094 0.007773 0.061883
v 0.006517 -0.057353 -0.018096
v 0.005872 -0.053729 -0.029501
v -0.006263 -0.053640 -0.029457
v 0.018514 0.021495 0.087962
v -0.017734 -0.049414 -0.009200
v 0.022666 0.020970 0.076116
v 0.016629 -0.057302 -0.031994
v 0.006202 -0.055343 -0.035121
v -0.007972 -0.069787 0.029619
v -0.008167 -0.059452 0.024775
v 0.027759 0.044223 0.070198
v -0.008124 -0.065348 0.029761
v 0.007485 -0.064943 0.030066
v -0.024127 -0.056883 0.032112
v -0.033195 -0.047119 0.006306
v 0.005347 -0.074894 0.038052
v -0.040452 -0.001162 0.000604
v 0.012372 -0.074165 -0.044961
v -0.006578 -0.054814 -0.029835
v -0.006300 -0.070368 0.023193
v -0.033230 -0.047000 0.013133
v -0.015810 -0.052081 -0.012483
v -0.029126 -0.050383 -0.002397
v 0.028579 -0.050470 -0.002044
v -0.024304 -0.059153 0.028616
v 0.021903 -0.010024 0.089086
v 0.038630 -0.070700 -0.048113
v 0.018291 0.037816 -0.021836
v -0.005264 -0.076953 0.033812
v 0.027276 -0.042796 -0.024336
v 0.020143 0.019675 0.078969
v -0.021405 0.019843 0.078519
v 0.033101 -0.055332 -0.035069
v -0.019516 -0.046835 -0.024009
v -0.018660 -0.052572 0.032274
v 0.033118 -0.062395 -0.064933
v 0.012160 -0.073443 -0.078559
v 0.027184 -0.043262 -0.012410
v 0.041064 -0.075586 -0.050076
v -0.034274 -0.039159 0.017400
v 0.006127 -0.060707 -0.077071
v 0.025830 -0.047740 -0.026197
v 0.019024 -0.046734 -0.020649
v 0.030925 -0.046224 -0.077400
v 0.009936 -0.058975 -0.034757
v 0.013600 0.032741 0.078033
v 0.011380 -0.078113 -0.078663
v 0.025162 -0.051948 -0.027787
v -0.035150 -0.030964 -0.004979
v 0.006144 -0.064736 -0.072324
v 0.005520 -0.066435 0.015818
v -0.014644 0.002736 0.101268
v 0.019478 0.037788 -0.029219
v 0.005438 -0.074894 0.040738
v 0.001195 -0.066617 0.019827
v 0.019893 0.033703 0.078115
v -0.017417 0.014806 0.096686
v 0.005296 -0.068660 -0.070159
v 0.029899 -0.062049 -0.037374
v 0.013562 -0.057682 -0.032613
v 0.036115 -0.043740 -0.030435
v 0.014667 -0.067232 -0.036790
v 0.025522 0.000056 0.080643
v -0.027097 -0.000082 0.080001
v -0.014882 0.015821 0.098622
v 0.004275 -0.077306 0.029643
v 0.026400 -0.042873 -0.009780
v 0.014494 -0.050611 -0.027202
v 0.003682 -0.069418 0.035005
v -0.004741 -0.069364 0.034785
v 0.035476 -0.033880 -0.016960
v 0.007480 -0.068545 0.033250
v -0.007166 -0.057198 -0.017748
v -0.018489 -0.047306 -0.021154
v 0.022789 0.002151 0.083069
v 0.015878 -0.050503 -0.008938
v 0.026293 0.032378 0.064475
v 0.032260 -0.062144 -0.035615
v 0.032290 -0.060416 -0.035852
v 0.005093 0.018356 0.100680
v 0.008618 -0.070336 -0.068000
v -0.005354 -0.065106 0.025481
v -0.016237 0.020911 0.030729
v -0.025417 0.003023 0.079368
v 0.023268 0.035323 0.066073
v 0.021952 -0.050204 -0.004692
v 0.004103 -0.077009 0.031352
v -0.005139 -0.076953 0.031127
v 0.030815 -0.072015 -0.070449
v 0.016063 -0.030590 -0.109478
v -0.015234 -0.030565 -0.109662
v 0.024932 0.033635 0.065665
v -0.016714 -0.066462 -0.044443
v 0.033511 -0.038390 -0.016582
v -0.013952 -0.051047 -0.027546
v -0.031575 -0.044076 0.013516
v 0.026793 -0.075731 -0.082064
v 0.023271 0.034359 0.072979
v -0.025027 -0.050302 -0.027494
v 0.026755 -0.051995 -0.086006
v 0.026344 -0.060795 -0.082367
v 0.019643 0.022226 0.083736
v -0.031927 -0.042030 0.014351
v 0.028463 -0.041643 -0.021838
v 0.019119 -0.046924 -0.023338
v 0.032567 -0.043919 -0.024800
v 0.028894 -0.040653 -0.013468
v 0.022282 0.034646 0.075670
v -0.028289 -0.025401 0.052412
v 0.028410 0.012470 0.065132
v 0.007555 -0.069637 0.030081
v 0.006936 -0.029984 -0.107771
v 0.030598 0.038038 0.052753
v -0.029937 -0.047868 0.017108
v 0.025245 -0.063020 -0.080101
v 0.027760 -0.032636 0.041292
v 0.013033 -0.067561 0.032108
v 0.008215 -0.047711 -0.098209
v -0.031492 0.008006 0.067453
f 436 437 556
f 403 585 505
f 480 266 677
f 415 462 408
f 455 253 251
f 277 252 265
f 477 730 939
f 820 480 694
f 582 509 173
f 459 936 342
f 968 205 954
f 612 170 185
f 185 170 148
f 499 563 831
f 169 507 582
f 137 127 111
f 483 661 400
f 479 43 50
f 206 182 207
f 538 200 236
f 277 874 294
f 348 331 337
f 261 301 260
f 391 356 374
f 10 18 7
f 567 568 566
f 223 281 224
f 213 249 244
f 775 960 229
f 213 244 212
f 554 146 1050
f 766 199 935
f 940 935 199
f 598 364 392
f 1060 869 797
f 22 65 450
f 411 983 909
f 419 959 383
f 849 311 372
f 606 688 433
f 244 211 212
f 197 204 192
f 308 270 283
f 133 755 843
f 384 470 706
f 470 388 618
f 184 67 589
f 184 653 67
f 314 321 339
f 103 116 98
f 22 450 492
f 707 22 492
f 314 315 327
f 331 348 330
f 312 307 328
f 278 310 250
f 493 149 818
f 493 50 79
f 571 277 265
f 364 377 392
f 251 494 455
f 622 494 251
f 644 526 495
f 669 496 2
f 100 90 98
f 329 471 474
f 336 312 328
f 203 192 204
f 307 312 285
f 426 741 561
f 327 337 321
f 280 855 291
f 480 820 280
f 321 337 339
f 314 339 324
f 324 339 332
f 334 963 289
f 285 312 334
f 99 93 73
f 336 334 312
f 492 450 94
f 707 492 787
f 336 328 324
f 336 332 344
f 267 294 296
f 272 891 252
f 501 565 370
f 217 679 530
f 214 217 530
f 149 224 164
f 149 223 224
f 356 365 377
f 356 377 364
f 320 421 318
f 151 177 143
f 925 1058 883
f 84 92 490
f 236 497 617
f 497 236 200
f 568 528 566
f 419 383 382
f 320 329 474
f 741 426 485
f 752 959 419
f 395 367 1069
f 395 743 535
f 507 493 79
f 61 477 644
f 391 397 365
f 547 393 471
f 500 51 40
f 500 66 51
f 450 65 129
f 547 309 392
f 503 497 200
f 623 148 122
f 817 395 505
f 713 401 422
f 260 299 256
f 506 422 423
f 401 423 422
f 506 423 850
f 68 625 662
f 623 122 114
f 340 290 308
f 496 657 48
f 185 148 171
f 599 532 513
f 185 240 243
f 340 276 290
f 248 276 288
f 283 243 240
f 288 241 248
f 52 504 53
f 52 53 629
f 654 519 431
f 473 431 519
f 384 520 470
f 659 520 384
f 848 16 456
f 400 565 501
f 156 183 159
f 875 159 183
f 8 7 9
f 658 774 226
f 202 242 241
f 522 678 640
f 343 372 311
f 281 300 505
f 716 359 404
f 387 404 359
f 350 632 284
f 429 944 709
f 96 87 48
f 155 198 200
f 1050 198 155
f 585 281 505
f 8 9 23
f 196 193 458
f 180 156 159
f 442 438 439
f 220 265 252
f 543 96 48
f 459 338 1076
f 102 734 682
f 280 820 371
f 280 371 855
f 521 432 435
f 483 400 386
f 483 386 475
f 59 48 87
f 943 614 964
f 216 188 186
f 306 347 278
f 418 690 410
f 410 417 418
f 278 250 244
f 145 142 127
f 716 342 862
f 570 453 639
f 431 486 654
f 635 486 431
f 562 552 13
f 561 385 652
f 7 20 9
f 59 74 66
f 382 590 557
f 572 770 559
f 197 188 213
f 213 212 197
f 203 204 211
f 231 570 639
f 137 145 127
f 216 186 218
f 161 188 197
f 463 570 897
f 182 181 209
f 145 181 142
f 104 107 125
f 260 207 209
f 209 207 182
f 216 218 259
f 278 244 249
f 411 689 983
f 232 764 577
f 104 116 107
f 39 143 579
f 495 196 458
f 23 40 491
f 1058 811 583
f 51 108 60
f 51 123 108
f 733 601 159
f 597 596 25
f 180 165 172
f 172 165 123
f 338 282 1076
f 108 165 167
f 180 167 165
f 66 74 51
f 51 74 123
f 51 60 40
f 60 45 40
f 588 38 696
f 726 38 588
f 221 282 674
f 221 638 282
f 620 930 514
f 1030 620 703
f 585 403 725
f 235 452 187
f 554 96 826
f 593 17 59
f 639 228 599
f 36 46 55
f 120 86 701
f 701 86 636
f 543 636 86
f 38 30 32
f 574 24 11
f 464 666 680
f 622 742 871
f 24 651 976
f 214 1039 289
f 185 171 240
f 416 435 676
f 520 388 470
f 676 668 370
f 34 696 32
f 29 851 132
f 479 726 43
f 49 621 47
f 151 118 128
f 463 693 626
f 32 696 38
f 84 490 52
f 28 62 63
f 761 50 43
f 84 82 93
f 1078 923 79
f 166 152 840
f 621 72 47
f 151 132 118
f 82 56 93
f 152 139 52
f 136 151 143
f 151 136 132
f 136 143 705
f 139 177 151
f 139 151 128
f 527 528 529
f 152 52 70
f 152 166 177
f 220 195 178
f 152 177 139
f 178 679 217
f 210 256 263
f 256 210 208
f 687 76 533
f 100 113 106
f 115 113 100
f 115 100 116
f 104 115 116
f 547 392 393
f 392 377 393
f 1010 742 795
f 823 246 972
f 1070 972 246
f 537 875 604
f 460 242 243
f 460 248 242
f 153 633 214
f 179 633 934
f 49 47 26
f 52 629 84
f 72 621 82
f 634 660 426
f 613 105 109
f 731 105 42
f 613 42 105
f 731 717 105
f 717 935 105
f 468 520 659
f 336 344 351
f 289 285 334
f 478 479 164
f 251 253 975
f 387 455 406
f 841 901 200
f 141 901 187
f 349 364 355
f 631 856 80
f 631 80 604
f 168 856 631
f 168 631 604
f 209 261 260
f 473 670 431
f 498 656 670
f 293 359 716
f 346 624 370
f 926 302 742
f 276 248 290
f 992 457 745
f 515 836 714
f 619 591 27
f 603 660 634
f 490 54 52
f 52 54 70
f 490 92 54
f 430 429 709
f 558 257 311
f 460 270 290
f 290 270 308
f 460 290 248
f 460 243 270
f 534 454 101
f 461 102 454
f 653 157 114
f 653 114 648
f 401 397 423
f 72 82 84
f 595 477 61
f 595 61 44
f 445 473 468
f 499 498 447
f 346 735 624
f 257 288 311
f 343 311 288
f 276 340 343
f 276 343 288
f 47 27 26
f 27 591 26
f 4 472 650
f 522 650 678
f 564 448 514
f 563 564 444
f 17 672 496
f 1015 354 571
f 478 129 65
f 349 355 512
f 124 101 186
f 511 355 970
f 485 433 688
f 497 239 617
f 487 388 469
f 649 447 670
f 498 670 447
f 565 416 727
f 636 648 701
f 618 269 237
f 364 349 356
f 471 296 309
f 547 471 309
f 754 422 474
f 754 713 422
f 468 469 388
f 483 647 661
f 483 749 647
f 483 475 749
f 506 474 422
f 741 325 584
f 741 358 325
f 875 183 604
f 604 183 168
f 183 158 168
f 476 275 272
f 479 149 164
f 266 292 677
f 266 977 292
f 322 694 677
f 226 774 699
f 1063 609 729
f 640 1 456
f 397 401 546
f 397 546 365
f 351 334 336
f 250 310 298
f 310 317 298
f 487 352 303
f 487 744 388
f 487 469 654
f 92 84 99
f 99 84 93
f 556 437 555
f 561 741 584
f 491 12 8
f 96 141 87
f 241 239 198
f 241 198 201
f 353 295 792
f 241 288 257
f 241 257 239
f 629 72 84
f 563 444 831
f 410 385 725
f 360 827 600
f 564 683 444
f 564 514 683
f 564 563 448
f 602 747 67
f 602 67 465
f 452 172 187
f 261 250 298
f 261 298 301
f 317 301 298
f 261 209 245
f 142 181 182
f 126 81 111
f 528 527 85
f 529 568 92
f 603 607 660
f 425 603 652
f 330 348 344
f 474 506 320
f 473 469 468
f 474 471 393
f 228 667 599
f 509 579 173
f 183 156 174
f 4 602 472
f 601 756 190
f 733 645 601
f 142 949 127
f 759 304 318
f 951 759 937
f 464 94 666
f 768 950 541
f 555 437 920
f 514 920 437
f 445 446 641
f 445 641 649
f 899 671 732
f 537 733 875
f 537 645 733
f 976 515 11
f 515 13 11
f 681 14 704
f 14 461 704
f 657 669 19
f 472 19 669
f 571 354 277
f 705 143 39
f 73 56 39
f 29 705 39
f 29 39 56
f 446 445 482
f 354 630 970
f 511 970 630
f 1 587 562
f 432 521 927
f 413 394 402
f 840 91 166
f 237 662 581
f 237 581 706
f 220 222 866
f 531 919 424
f 421 423 397
f 421 850 423
f 534 32 30
f 296 471 329
f 320 296 329
f 318 296 320
f 470 618 706
f 49 82 621
f 49 56 82
f 616 56 49
f 132 851 591
f 505 395 403
f 536 305 360
f 256 208 260
f 191 182 206
f 206 260 208
f 198 503 200
f 191 206 208
f 455 386 406
f 11 24 976
f 491 8 23
f 8 10 7
f 12 537 10
f 12 10 8
f 87 74 59
f 123 74 87
f 596 5 736
f 736 5 17
f 109 868 542
f 489 739 1004
f 649 448 447
f 641 448 649
f 377 546 401
f 377 365 546
f 108 123 165
f 549 548 854
f 551 457 992
f 387 293 455
f 459 342 338
f 342 404 338
f 472 465 19
f 465 648 19
f 157 653 184
f 867 272 275
f 294 309 296
f 558 311 1049
f 363 327 319
f 92 99 529
f 241 242 248
f 241 201 202
f 563 499 447
f 563 447 448
f 498 434 771
f 57 37 458
f 317 319 307
f 426 715 485
f 543 48 657
f 821 689 411
f 555 448 641
f 478 164 1042
f 462 428 886
f 646 462 886
f 589 238 184
f 612 243 242
f 176 202 201
f 176 120 122
f 114 122 120
f 9 25 23
f 436 703 437
f 221 674 624
f 596 736 6
f 337 341 348
f 6 736 17
f 574 1008 36
f 624 219 221
f 749 475 302
f 738 637 1059
f 739 1021 326
f 97 111 64
f 97 137 111
f 146 120 201
f 146 201 198
f 937 759 421
f 937 421 391
f 639 453 680
f 585 769 281
f 769 700 281
f 407 771 1003
f 758 48 59
f 758 496 48
f 712 68 662
f 582 173 169
f 582 507 806
f 536 313 305
f 313 1077 305
f 509 582 806
f 64 111 81
f 658 129 774
f 585 385 584
f 774 129 699
f 746 232 575
f 524 232 746
f 386 404 406
f 404 386 400
f 313 828 268
f 656 431 670
f 619 132 591
f 820 427 371
f 430 371 427
f 373 709 361
f 373 361 855
f 371 373 855
f 373 371 430
f 391 421 397
f 365 356 391
f 444 457 737
f 444 737 762
f 95 90 100
f 985 333 380
f 333 310 380
f 619 118 132
f 53 128 619
f 504 128 53
f 619 128 118
f 593 59 66
f 525 435 416
f 707 787 464
f 1 13 456
f 562 13 1
f 375 863 294
f 598 392 390
f 375 390 392
f 863 375 392
f 598 390 355
f 598 355 364
f 626 625 68
f 626 68 58
f 187 172 141
f 123 141 172
f 338 501 370
f 338 370 282
f 176 201 120
f 176 170 202
f 269 240 238
f 603 436 607
f 607 436 556
f 1 678 2
f 220 866 890
f 2 587 1
f 387 406 404
f 387 359 293
f 17 758 59
f 17 496 758
f 170 612 202
f 202 612 242
f 227 569 451
f 29 136 705
f 29 56 616
f 29 132 136
f 199 766 193
f 766 935 717
f 254 617 1071
f 254 1071 558
f 580 589 67
f 580 237 589
f 613 44 42
f 42 44 751
f 555 920 448
f 168 158 856
f 619 753 53
f 47 53 753
f 228 639 680
f 53 72 629
f 555 641 686
f 711 38 642
f 643 385 410
f 623 157 148
f 243 612 185
f 148 170 122
f 176 122 170
f 206 207 260
f 190 180 159
f 601 190 159
f 444 762 434
f 610 434 762
f 628 417 412
f 417 697 412
f 94 129 658
f 439 834 646
f 222 867 275
f 40 645 491
f 286 1027 578
f 47 72 53
f 504 52 139
f 504 139 128
f 358 608 325
f 636 19 648
f 487 654 352
f 654 486 352
f 554 826 86
f 86 826 543
f 511 630 362
f 618 388 744
f 58 533 76
f 522 640 3
f 640 456 3
f 651 65 22
f 652 385 643
f 4 3 627
f 4 522 3
f 750 156 764
f 67 653 465
f 446 606 433
f 433 686 446
f 237 706 618
f 456 16 3
f 3 16 533
f 972 282 638
f 1076 282 972
f 417 815 418
f 417 847 815
f 654 469 519
f 538 236 235
f 407 600 656
f 543 657 710
f 660 433 715
f 200 901 155
f 96 155 901
f 256 299 263
f 565 727 370
f 299 307 263
f 595 665 730
f 548 665 854
f 607 556 858
f 660 607 858
f 656 635 431
f 626 693 625
f 445 649 473
f 485 688 378
f 488 485 378
f 5 562 587
f 556 555 686
f 234 605 692
f 234 692 833
f 17 5 672
f 710 19 636
f 657 19 710
f 722 509 806
f 624 674 370
f 468 388 520
f 602 627 747
f 747 627 68
f 672 698 2
f 597 782 684
f 604 21 10
f 10 21 18
f 10 537 604
f 416 676 727
f 77 101 124
f 476 915 789
f 847 345 815
f 969 773 221
f 847 628 345
f 780 153 876
f 360 600 637
f 191 208 179
f 179 208 210
f 466 191 179
f 179 1011 466
f 865 799 685
f 539 775 857
f 811 133 776
f 586 776 133
f 785 35 576
f 463 76 453
f 25 6 23
f 150 766 717
f 592 91 784
f 767 1013 253
f 178 91 134
f 592 134 91
f 767 716 862
f 302 475 742
f 622 795 742
f 777 389 757
f 508 389 777
f 723 218 186
f 477 595 730
f 870 194 175
f 166 91 178
f 449 35 785
f 449 932 35
f 778 835 586
f 578 989 729
f 527 73 772
f 722 772 73
f 529 99 73
f 714 22 707
f 527 529 73
f 558 305 254
f 617 257 1071
f 6 593 66
f 593 6 17
f 14 675 461
f 95 780 876
f 137 97 140
f 976 651 22
f 597 5 596
f 65 38 726
f 711 681 38
f 15 14 681
f 482 663 446
f 446 663 606
f 734 219 682
f 597 502 782
f 798 782 502
f 482 445 659
f 4 627 602
f 577 156 180
f 888 684 796
f 3 533 664
f 627 3 664
f 445 468 659
f 435 432 690
f 418 435 690
f 235 236 268
f 268 236 1077
f 781 227 194
f 417 628 847
f 1011 179 154
f 972 1070 1076
f 85 794 801
f 566 816 567
f 784 567 816
f 592 784 85
f 969 971 1041
f 239 257 617
f 558 1071 257
f 221 773 638
f 632 695 933
f 77 1068 101
f 1068 534 101
f 408 695 632
f 523 809 879
f 533 16 687
f 707 687 16
f 554 155 96
f 690 432 643
f 124 186 140
f 140 186 188
f 308 269 303
f 596 6 25
f 603 634 652
f 426 652 634
f 584 385 561
f 267 296 318
f 267 318 304
f 18 748 830
f 7 18 830
f 1003 399 786
f 440 441 442
f 369 323 345
f 628 369 345
f 133 158 174
f 788 803 569
f 100 98 116
f 227 451 194
f 133 843 158
f 569 803 790
f 457 551 737
f 790 865 451
f 672 2 496
f 515 976 836
f 467 881 147
f 398 482 384
f 482 398 663
f 663 398 606
f 164 224 699
f 94 450 129
f 358 741 485
f 664 533 58
f 68 627 58
f 597 684 5
f 524 586 750
f 489 763 297
f 252 267 304
f 252 304 272
f 148 157 184
f 167 112 108
f 442 441 438
f 730 819 939
f 236 617 254
f 358 485 488
f 454 102 101
f 218 723 682
f 102 682 101
f 875 733 159
f 439 694 834
f 694 439 438
f 188 216 215
f 700 224 281
f 226 700 325
f 585 584 325
f 927 413 804
f 142 182 144
f 142 144 949
f 5 684 562
f 85 71 794
f 658 666 94
f 625 581 662
f 507 794 71
f 807 697 410
f 417 410 697
f 1010 795 810
f 666 228 680
f 788 926 885
f 95 134 991
f 927 425 432
f 308 303 352
f 681 30 38
f 888 796 31
f 587 698 5
f 306 259 323
f 259 306 258
f 36 15 24
f 347 306 323
f 962 859 539
f 510 775 860
f 539 859 775
f 13 848 456
f 164 699 1042
f 961 510 860
f 158 89 856
f 553 232 233
f 701 114 120
f 352 340 308
f 352 343 340
f 358 532 667
f 608 358 667
f 429 702 944
f 560 289 573
f 214 289 560
f 830 748 20
f 7 830 20
f 346 370 668
f 215 216 258
f 496 669 657
f 233 180 172
f 925 922 1058
f 660 858 433
f 399 797 786
f 718 797 802
f 610 757 995
f 573 316 1005
f 281 223 300
f 300 861 275
f 11 13 576
f 437 620 514
f 436 719 703
f 856 75 80
f 21 75 18
f 620 437 703
f 604 80 21
f 75 21 80
f 748 18 75
f 467 942 881
f 882 798 911
f 1052 174 156
f 623 114 157
f 532 488 513
f 145 137 192
f 671 384 706
f 771 434 887
f 66 23 6
f 263 307 285
f 708 569 227
f 345 655 346
f 345 724 655
f 199 892 940
f 89 913 856
f 89 748 913
f 109 892 868
f 286 1002 287
f 801 794 79
f 801 79 953
f 800 379 809
f 220 178 217
f 220 217 265
f 690 643 410
f 712 67 747
f 834 322 646
f 834 694 322
f 107 103 125
f 107 116 103
f 377 401 713
f 393 377 713
f 802 797 399
f 25 9 20
f 743 300 275
f 755 25 20
f 140 188 161
f 140 161 137
f 83 805 982
f 515 714 848
f 16 714 707
f 660 715 426
f 963 334 351
f 527 772 71
f 283 270 243
f 184 238 171
f 96 901 141
f 719 413 414
f 101 723 186
f 101 682 723
f 1032 870 160
f 552 888 31
f 119 103 81
f 119 81 126
f 342 716 404
f 57 458 150
f 88 717 57
f 88 57 150
f 88 150 717
f 436 804 719
f 574 11 720
f 11 576 720
f 452 235 233
f 538 235 187
f 721 274 291
f 2 678 650
f 64 770 97
f 2 650 669
f 64 559 770
f 572 77 770
f 218 724 259
f 724 218 655
f 648 114 701
f 845 25 755
f 479 478 726
f 800 809 335
f 761 34 28
f 727 676 370
f 169 149 493
f 31 796 798
f 169 493 507
f 327 341 337
f 327 363 341
f 587 2 698
f 538 841 200
f 76 687 464
f 57 717 731
f 779 449 785
f 177 173 143
f 369 412 673
f 628 412 369
f 188 215 213
f 161 197 192
f 293 716 767
f 541 734 102
f 655 219 735
f 813 160 163
f 813 1032 160
f 585 325 769
f 498 407 656
f 498 771 407
f 589 237 238
f 599 691 231
f 599 231 639
f 407 637 600
f 77 32 1068
f 34 32 77
f 807 410 725
f 385 585 725
f 1039 263 289
f 289 263 285
f 239 497 503
f 198 239 503
f 792 295 814
f 395 817 743
f 228 226 608
f 228 658 226
f 295 996 279
f 295 279 814
f 465 472 602
f 228 608 667
f 566 85 816
f 784 816 85
f 413 525 394
f 413 521 525
f 597 25 69
f 25 845 69
f 947 928 894
f 947 894 823
f 680 453 464
f 823 907 947
f 840 152 70
f 479 818 149
f 567 91 70
f 70 91 840
f 463 453 570
f 317 333 319
f 130 126 138
f 779 785 31
f 627 664 58
f 908 235 268
f 748 89 20
f 755 20 89
f 743 275 535
f 119 131 125
f 169 917 149
f 712 747 68
f 917 223 149
f 269 744 303
f 618 744 269
f 848 13 515
f 722 71 772
f 722 806 71
f 574 720 1008
f 1004 829 918
f 764 156 577
f 787 492 94
f 787 94 464
f 475 386 871
f 338 404 400
f 258 306 249
f 215 249 213
f 258 249 215
f 478 65 726
f 828 873 335
f 873 1074 335
f 967 1004 918
f 278 347 310
f 249 306 278
f 541 950 734
f 216 259 258
f 147 865 685
f 583 811 1054
f 523 335 809
f 819 467 147
f 473 649 670
f 669 650 472
f 395 752 403
f 482 659 384
f 619 27 753
f 47 753 27
f 393 754 474
f 393 713 754
f 444 683 457
f 465 653 648
f 540 966 326
f 756 45 60
f 601 45 756
f 408 462 646
f 408 646 695
f 214 560 217
f 768 221 219
f 642 65 651
f 495 526 196
f 642 38 65
f 30 461 454
f 473 519 469
f 724 345 259
f 345 323 259
f 45 601 645
f 645 40 45
f 783 225 773
f 419 673 412
f 750 1052 156
f 335 814 279
f 792 814 335
f 335 523 792
f 4 650 522
f 826 96 543
f 405 808 408
f 1075 668 418
f 15 642 24
f 642 651 24
f 687 707 464
f 269 238 237
f 220 890 195
f 171 238 240
f 283 240 269
f 378 1012 987
f 693 544 234
f 451 865 147
f 881 451 147
f 730 665 41
f 730 41 819
f 548 912 665
f 23 66 500
f 23 500 40
f 857 775 229
f 859 230 775
f 860 775 230
f 796 782 798
f 969 1041 956
f 1048 389 508
f 415 808 508
f 1048 508 808
f 297 977 489
f 147 685 740
f 740 477 147
f 234 921 605
f 544 231 234
f 234 231 921
f 613 109 44
f 562 888 552
f 592 85 801
f 773 822 638
f 56 73 93
f 1033 449 481
f 633 210 214
f 179 210 633
f 210 1039 214
f 95 876 134
f 679 134 876
f 217 560 265
f 560 573 265
f 781 194 870
f 644 477 526
f 526 477 740
f 966 872 1019
f 15 711 642
f 15 681 711
f 300 817 505
f 817 300 743
f 493 818 50
f 479 50 818
f 692 605 732
f 230 778 524
f 962 844 900
f 599 513 691
f 797 869 786
f 41 467 819
f 786 869 1059
f 302 689 821
f 708 788 569
f 527 71 85
f 806 507 71
f 625 234 581
f 693 234 625
f 234 833 581
f 658 228 666
f 481 449 945
f 1059 869 368
f 981 160 870
f 440 429 441
f 531 429 440
f 117 825 135
f 95 100 106
f 95 110 780
f 396 1056 405
f 523 405 1056
f 119 125 103
f 892 109 940
f 510 960 775
f 964 614 615
f 964 615 981
f 720 576 35
f 927 521 413
f 674 282 370
f 226 699 224
f 226 224 700
f 413 719 804
f 187 901 841
f 538 187 841
f 1056 353 523
f 792 523 353
f 568 567 92
f 567 70 54
f 567 54 92
f 76 464 453
f 158 183 174
f 69 133 811
f 349 512 374
f 476 832 915
f 517 374 512
f 517 516 374
f 379 389 1048
f 873 828 368
f 551 424 443
f 424 919 443
f 780 110 153
f 133 69 845
f 1016 153 110
f 389 924 995
f 57 42 37
f 57 731 42
f 877 286 287
f 904 877 961
f 878 813 163
f 906 962 878
f 913 75 856
f 913 748 75
f 843 755 89
f 879 809 379
f 144 191 466
f 144 182 191
f 449 615 932
f 614 932 615
f 978 189 778
f 61 644 495
f 61 495 458
f 962 189 978
f 360 738 536
f 360 637 738
f 549 854 884
f 222 861 223
f 854 665 44
f 861 222 275
f 31 798 882
f 398 378 606
f 378 688 606
f 279 1000 908
f 323 369 347
f 883 1058 583
f 1060 873 368
f 967 230 575
f 83 943 805
f 425 927 436
f 83 614 943
f 812 389 379
f 389 812 924
f 871 742 475
f 681 704 30
f 704 461 30
f 843 89 158
f 35 46 36
f 541 78 994
f 91 567 784
f 788 885 225
f 916 885 1010
f 685 799 979
f 833 706 581
f 862 342 936
f 790 225 865
f 865 225 799
f 58 463 626
f 194 451 881
f 622 611 795
f 194 881 175
f 863 309 294
f 309 863 392
f 1066 1063 1053
f 889 802 399
f 889 399 610
f 302 821 749
f 882 779 31
f 502 69 1058
f 597 69 502
f 1058 69 811
f 112 190 756
f 167 180 190
f 167 190 112
f 33 952 760
f 33 999 952
f 866 169 173
f 891 272 867
f 222 220 867
f 361 944 842
f 260 301 299
f 301 317 299
f 486 343 352
f 912 41 665
f 929 1014 893
f 894 611 246
f 894 246 823
f 169 866 222
f 524 778 586
f 914 35 932
f 429 955 702
f 531 424 429
f 796 684 782
f 871 494 622
f 951 409 832
f 915 832 409
f 535 275 476
f 549 884 984
f 266 274 977
f 1041 205 896
f 979 896 205
f 488 378 513
f 294 874 375
f 513 378 987
f 783 898 225
f 799 225 898
f 536 368 313
f 738 368 536
f 130 131 119
f 130 119 126
f 1078 63 923
f 900 230 859
f 41 912 974
f 36 55 33
f 981 870 905
f 229 960 255
f 229 255 227
f 903 860 230
f 383 367 357
f 661 411 565
f 647 411 661
f 647 821 411
f 286 877 904
f 292 550 791
f 292 297 550
f 695 292 791
f 884 854 44
f 163 906 878
f 810 795 611
f 1014 928 947
f 823 638 907
f 638 822 907
f 39 722 73
f 39 579 722
f 181 192 203
f 600 372 635
f 556 686 858
f 426 561 652
f 210 263 1039
f 886 998 442
f 646 886 442
f 494 386 455
f 871 386 494
f 203 209 181
f 211 245 209
f 211 209 203
f 531 986 919
f 42 751 37
f 37 61 458
f 37 751 61
f 428 777 757
f 508 777 428
f 154 179 934
f 154 1024 1016
f 909 366 394
f 83 910 55
f 46 83 55
f 969 783 773
f 740 685 526
f 162 969 221
f 162 221 768
f 599 667 532
f 592 801 953
f 528 85 566
f 890 866 173
f 403 807 725
f 890 173 195
f 891 220 252
f 220 891 867
f 880 902 302
f 880 302 708
f 302 902 689
f 708 302 926
f 292 977 297
f 677 292 322
f 108 112 60
f 756 60 112
f 476 789 376
f 516 376 789
f 376 535 476
f 924 889 610
f 610 399 887
f 307 315 328
f 514 448 920
f 590 363 380
f 363 985 380
f 924 802 889
f 966 837 872
f 326 895 540
f 966 765 837
f 133 845 755
f 466 1011 138
f 144 466 138
f 1003 786 1059
f 811 776 838
f 805 943 467
f 943 942 467
f 938 846 967
f 961 846 262
f 897 231 544
f 897 570 231
f 427 441 430
f 438 441 427
f 438 427 820
f 655 735 346
f 815 1075 418
f 815 345 346
f 429 430 441
f 778 189 835
f 430 709 373
f 398 384 899
f 899 384 671
f 835 189 776
f 838 776 189
f 79 923 90
f 923 63 90
f 580 67 712
f 77 124 97
f 770 77 97
f 539 857 813
f 31 785 576
f 44 665 595
f 31 576 552
f 689 1035 1045
f 64 81 559
f 35 914 83
f 35 83 46
f 307 319 315
f 327 315 319
f 327 321 314
f 993 1033 481
f 788 225 803
f 828 908 268
f 803 225 790
f 255 708 227
f 553 824 297
f 791 550 264
f 791 264 933
f 569 790 451
f 261 245 250
f 455 293 253
f 253 293 767
f 773 225 822
f 317 307 299
f 929 916 1014
f 498 499 434
f 499 831 434
f 831 444 434
f 949 144 138
f 949 138 941
f 126 941 138
f 951 832 304
f 953 79 90
f 991 953 90
f 879 379 957
f 379 1048 957
f 416 909 394
f 842 946 326
f 41 974 910
f 946 895 326
f 930 420 1020
f 580 662 237
f 708 926 788
f 967 918 938
f 545 362 931
f 291 266 280
f 266 480 280
f 1041 896 956
f 979 956 896
f 979 205 526
f 382 1022 590
f 883 481 911
f 942 175 881
f 942 905 175
f 922 502 1058
f 798 502 922
f 366 402 394
f 836 22 714
f 836 976 22
f 549 728 1073
f 915 1072 789
f 516 789 1072
f 121 113 104
f 525 521 435
f 462 415 428
f 415 508 428
f 911 925 883
f 911 922 925
f 117 106 113
f 839 106 117
f 646 322 695
f 924 718 802
f 328 315 324
f 1001 745 989
f 964 981 905
f 943 905 942
f 337 331 339
f 398 1012 378
f 1006 295 284
f 353 284 295
f 350 284 353
f 580 712 662
f 481 945 911
f 338 400 501
f 632 264 284
f 284 264 1006
f 233 577 180
f 892 968 954
f 554 1050 155
f 463 544 693
f 463 897 544
f 954 205 971
f 1041 971 205
f 1006 264 273
f 550 273 264
f 632 933 264
f 195 177 166
f 486 372 343
f 635 372 486
f 429 424 955
f 424 895 955
f 1010 926 742
f 420 1030 1053
f 1049 311 849
f 558 1049 305
f 360 305 849
f 1063 420 1053
f 927 804 436
f 506 850 320
f 421 320 850
f 29 616 26
f 29 26 851
f 851 26 591
f 616 49 26
f 828 313 368
f 169 222 917
f 351 344 357
f 990 351 357
f 895 1018 540
f 540 1018 381
f 424 551 1037
f 523 879 957
f 672 5 698
f 414 402 366
f 1026 414 366
f 425 643 432
f 997 594 484
f 609 997 484
f 729 609 1002
f 43 588 696
f 726 588 43
f 696 34 43
f 996 273 279
f 405 1048 808
f 957 1048 405
f 344 348 357
f 113 115 104
f 812 379 800
f 305 1077 254
f 87 141 123
f 313 268 1077
f 43 34 761
f 195 173 177
f 765 1007 578
f 858 686 433
f 1029 205 968
f 679 153 530
f 931 965 357
f 63 62 90
f 842 702 946
f 90 62 98
f 798 922 911
f 225 885 916
f 872 262 1019
f 918 829 262
f 262 829 1019
f 614 914 932
f 131 104 125
f 34 77 572
f 934 633 153
f 154 934 1024
f 286 904 262
f 935 109 105
f 1012 605 691
f 605 1012 732
f 691 605 921
f 1074 873 1060
f 524 750 232
f 750 764 232
f 637 407 1003
f 594 366 1045
f 135 1011 154
f 825 1011 135
f 102 78 541
f 461 78 102
f 718 1060 797
f 718 1074 1060
f 347 369 793
f 673 793 369
f 872 837 262
f 262 837 1027
f 286 262 1027
f 1016 135 154
f 878 962 539
f 961 903 846
f 767 862 247
f 459 247 936
f 936 247 862
f 477 939 147
f 939 819 147
f 262 846 938
f 938 918 262
f 940 109 935
f 511 512 355
f 928 611 894
f 810 611 928
f 552 576 13
f 594 1045 1035
f 961 860 903
f 885 926 1010
f 163 189 906
f 906 189 962
f 828 335 279
f 945 449 779
f 1014 810 928
f 948 442 998
f 531 948 986
f 1035 484 594
f 484 1035 287
f 902 271 689
f 689 271 1035
f 1001 1007 745
f 647 749 821
f 870 175 905
f 783 956 898
f 799 898 956
f 751 44 61
f 969 956 783
f 822 893 947
f 907 822 947
f 955 895 702
f 768 219 950
f 950 219 734
f 374 937 391
f 252 277 294
f 952 675 14
f 952 14 760
f 568 529 528
f 1009 1000 279
f 134 953 991
f 117 113 121
f 822 225 893
f 225 929 893
f 225 916 929
f 962 900 859
f 995 924 610
f 828 279 908
f 893 1014 947
f 916 1010 1014
f 766 150 193
f 150 458 193
f 882 911 945
f 166 178 195
f 996 1006 273
f 366 594 1026
f 883 993 481
f 578 1001 989
f 578 1007 1001
f 945 779 882
f 117 864 825
f 117 130 864
f 553 763 232
f 553 297 763
f 1035 271 287
f 963 573 289
f 1061 963 351
f 1054 838 189
f 189 163 1054
f 583 163 993
f 163 1033 993
f 117 121 131
f 130 117 131
f 965 990 357
f 966 1019 326
f 252 294 267
f 609 1063 1066
f 671 706 833
f 692 671 833
f 692 732 671
f 737 443 762
f 737 551 443
f 610 762 757
f 868 971 162
f 969 162 971
f 805 467 982
f 83 982 910
f 943 964 905
f 728 549 78
f 757 762 443
f 1074 800 335
f 718 800 1074
f 615 160 981
f 852 839 135
f 416 411 909
f 565 411 416
f 30 454 534
f 718 812 800
f 812 718 924
f 864 130 138
f 864 138 825
f 138 1011 825
f 970 390 375
f 970 355 390
f 975 253 1013
f 1028 975 247
f 110 106 839
f 110 95 106
f 839 117 135
f 575 232 763
f 844 978 778
f 962 978 844
f 230 844 778
f 900 844 230
f 846 230 967
f 903 230 846
f 131 121 104
f 143 173 579
f 852 1016 110
f 110 839 852
f 135 1016 852
f 297 824 550
f 103 1023 81
f 583 993 883
f 507 79 794
f 322 292 695
f 363 1034 341
f 382 348 1022
f 362 518 931
f 162 768 541
f 461 675 78
f 728 78 675
f 982 467 41
f 982 41 910
f 983 689 1045
f 562 684 888
f 958 50 761
f 50 958 79
f 984 884 109
f 984 109 973
f 542 973 109
f 553 1040 824
f 398 899 732
f 272 832 476
f 832 272 304
f 347 793 380
f 986 428 919
f 361 291 855
f 361 842 721
f 361 721 291
f 81 853 559
f 1023 853 81
f 319 985 363
f 620 420 930
f 457 1020 745
f 193 988 199
f 196 988 193
f 230 746 575
f 524 746 230
f 999 675 952
f 960 287 255
f 153 214 530
f 1061 351 990
f 95 991 90
f 551 992 1038
f 1026 594 997
f 910 33 55
f 886 428 998
f 36 33 760
f 1062 728 999
f 1000 235 908
f 233 235 1000
f 317 310 333
f 126 111 127
f 977 274 489
f 1019 739 326
f 28 572 559
f 34 572 28
f 853 28 559
f 62 28 853
f 419 557 673
f 382 557 419
f 319 333 985
f 279 273 1009
f 1040 273 824
f 573 1005 265
f 586 133 750
f 586 835 776
f 884 44 109
f 1036 516 517
f 516 1036 376
f 517 512 1044
f 771 887 1003
f 348 383 357
f 383 348 382
f 679 876 153
f 361 709 944
f 842 944 702
f 1008 720 35
f 1008 35 36
f 1017 1040 553
f 233 1000 1009
f 1033 615 449
f 695 791 933
f 265 1005 571
f 989 1063 729
f 986 948 428
f 948 998 428
f 380 310 347
f 767 247 1013
f 975 1013 247
f 1044 512 511
f 983 366 909
f 880 271 902
f 255 271 880
f 745 1020 1065
f 989 745 1065
f 79 958 1078
f 1078 28 63
f 28 958 761
f 1069 959 395
f 395 959 752
f 1005 1015 571
f 204 197 212
f 518 362 1057
f 1044 511 362
f 630 1057 362
f 518 1067 1015
f 1073 728 1055
f 405 408 396
f 396 408 632
f 233 1009 1017
f 233 1017 553
f 487 303 744
f 921 231 691
f 824 273 550
f 400 661 565
f 919 428 443
f 757 443 428
f 542 868 162
f 304 759 951
f 759 318 421
f 374 356 349
f 510 877 287
f 510 287 960
f 425 652 643
f 532 358 488
f 395 535 367
f 229 1032 857
f 813 857 1032
f 539 813 878
f 145 192 181
f 440 442 948
f 995 757 389
f 869 1060 368
f 245 211 244
f 246 611 1025
f 611 622 1025
f 514 930 683
f 1043 62 1023
f 62 853 1023
f 895 424 1018
f 1018 424 1037
f 575 763 489
f 403 412 697
f 403 697 807
f 673 557 380
f 590 380 557
f 673 380 793
f 1004 739 829
f 829 739 1019
f 457 683 1020
f 545 357 367
f 489 274 739
f 739 274 1021
f 721 1021 274
f 134 592 953
f 685 979 526
f 1022 363 590
f 1022 1034 363
f 103 1043 1023
f 1043 103 98
f 1024 153 1016
f 1024 934 153
f 738 1059 368
f 1046 1025 251
f 1025 622 251
f 609 1066 997
f 579 509 722
f 459 1031 1028
f 199 1029 892
f 988 1029 199
f 996 295 1006
f 974 33 910
f 974 980 33
f 1073 1055 980
f 545 931 357
f 874 277 354
f 874 354 375
f 970 375 354
f 484 287 1002
f 396 632 350
f 837 765 1027
f 255 880 708
f 575 489 1004
f 963 316 573
f 316 1015 1005
f 877 510 961
f 583 1054 163
f 1032 781 870
f 255 287 271
f 1003 887 399
f 160 615 1033
f 575 1004 967
f 1034 348 341
f 1022 348 1034
f 1051 1036 517
f 1036 362 376
f 523 957 405
f 808 415 408
f 1029 968 892
f 988 205 1029
f 526 205 1047
f 1047 205 988
f 1037 551 1038
f 1018 1037 381
f 972 638 823
f 162 994 542
f 541 994 162
f 1038 992 381
f 1037 1038 381
f 376 545 367
f 376 367 535
f 376 362 545
f 842 1021 721
f 1017 1009 273
f 1017 273 1040
f 799 956 979
f 930 1020 683
f 62 1043 98
f 549 973 78
f 542 78 973
f 994 78 542
f 549 1073 548
f 912 548 980
f 1073 980 548
f 374 409 937
f 951 937 409
f 1046 251 975
f 246 975 1028
f 1031 246 1028
f 1070 1031 1076
f 517 1044 1051
f 350 353 1056
f 1056 396 350
f 983 1045 366
f 513 987 691
f 987 1012 691
f 246 1025 1046
f 246 1046 975
f 526 1047 196
f 196 1047 988
f 912 980 974
f 229 781 1032
f 999 728 675
f 398 732 1012
f 719 414 703
f 414 1030 703
f 362 1036 1051
f 1051 1044 362
f 126 127 941
f 949 941 127
f 420 620 1030
f 229 227 781
f 915 409 1072
f 374 1072 409
f 1053 1030 414
f 904 961 262
f 1054 811 838
f 549 984 973
f 518 316 965
f 677 694 480
f 316 518 1015
f 525 416 394
f 842 326 1021
f 1055 728 1062
f 1055 33 980
f 414 413 402
f 965 316 990
f 518 1057 1067
f 1015 1067 354
f 630 354 1057
f 914 614 83
f 1003 1059 637
f 381 1007 765
f 163 160 1033
f 374 516 1072
f 316 963 1061
f 316 1061 990
f 33 1062 999
f 1055 1062 33
f 989 420 1063
f 1064 1002 286
f 892 954 868
f 868 954 971
f 1010 810 1014
f 381 745 1007
f 381 992 745
f 1065 1020 420
f 989 1065 420
f 702 895 946
f 997 414 1026
f 1066 414 997
f 1066 1053 414
f 518 965 931
f 609 484 1002
f 765 578 1027
f 1067 1057 354
f 729 1002 1064
f 578 729 1064
f 540 765 966
f 540 381 765
f 578 1064 286
f 246 1031 1070
f 324 315 314
f 478 1042 129
f 1042 699 129
f 325 700 769
f 425 436 603
f 332 339 330
f 330 339 331
f 250 245 244
f 212 211 204
f 752 412 403
f 752 419 412
f 442 439 646
f 491 645 12
f 537 12 645
f 305 1049 849
f 198 1050 146
f 608 226 325
f 137 161 192
f 133 174 1052
f 750 133 1052
f 308 283 269
f 171 148 184
f 336 324 332
f 452 233 172
f 640 678 1
f 574 36 24
f 827 849 372
f 360 849 827
f 827 372 600
f 531 440 948
f 534 1068 32
f 1069 367 383
f 383 959 1069
f 146 86 120
f 146 554 86
f 635 656 600
f 610 887 434
f 232 577 233
f 346 668 1075
f 815 346 1075
f 636 543 710
f 1031 459 1076
f 459 1028 247
f 686 641 446
f 291 274 266
f 682 219 218
f 655 218 219
f 124 140 97
f 1077 236 254
f 1078 958 28
f 223 861 300
f 222 223 917
f 735 219 624
f 715 433 485
f 178 134 679
f 438 820 694
f 344 332 330
f 36 760 15
f 760 14 15
f 76 463 58
f 848 714 16
f 435 418 668
f 435 668 676
