# File exported by Houdini 21.0.440 (www.sidefx.com)
# 165 points
# 1060 vertices
# 343 primitives
# Bounds: [2.61377001, -0.502533019, 0] to [3.25250006, 0.434109002, 0.949999988]
g 
v 3.25250006 -0.502533019 0
v 3.25250006 0.434109002 0
v 2.76305008 0.434109002 0
v 2.76305008 -0.502533019 0
v 3.25250006 -0.502533019 0.949999988
v 3.25250006 0.434109002 0.949999988
v 2.76305008 -0.502533019 0.949999988
v 2.76305008 0.434109002 0.949999988
v 3.08944368 0.434109002 0.949999988
v 3.06677437 0.414760709 0.949999988
v 2.76305008 0.374966443 0.851239204
v 2.76305008 0.374966443 0.749000013
v 2.76305008 0.235935286 0.749000013
v 2.76305008 0.374966443 0.890013993
v 2.76305008 -0.306953639 0.911000013
v 2.76305008 -0.0601424761 0.911000013
v 2.76305008 -0.016110776 0.911000013
v 2.76305008 -0.204408526 0.749000013
v 2.76305008 -0.451219678 0.749000013
v 2.76305008 -0.0601424761 0.749000013
v 2.76305008 -0.016110776 0.749000013
v 2.76305008 -0.016110776 0.808760822
v 2.76305008 -0.451219678 0.911000013
v 2.76305008 -0.451219678 0.808760822
v 2.76305008 0.374966443 0.911000013
v 2.76305008 0.128155276 0.911000013
v 2.76305008 -0.0601424761 0.851239204
v 2.76305008 0.230700389 0.749000013
v 3.08944368 0.434109002 0.816456378
v 3.02014995 -0.0601424761 0.911000013
v 3.02014995 -0.451219678 0.911000013
v 3.02014995 -0.451219678 0.749000013
v 3.02014995 -0.0601424761 0.749000013
v 3.02014995 0.374966443 0.911000013
v 3.02014995 -0.016110776 0.911000013
v 3.02014995 -0.016110776 0.749000013
v 3.02014995 0.374966443 0.749000013
v 2.61377001 -0.296568602 0.828999996
v 2.61377001 -0.296568602 0.851000011
v 2.61377001 -0.188568607 0.851000011
v 2.63577008 -0.296568602 0.828999996
v 2.61377001 -0.188568607 0.828999996
v 2.63577008 -0.188568607 0.851000011
v 2.63577008 -0.296568602 0.851000011
v 2.63577008 -0.188568607 0.828999996
v 2.63577008 -0.295847982 0.832000017
v 2.63577008 -0.295847982 0.845487535
v 2.63577008 -0.295847982 0.84799999
v 2.63577008 -0.286247998 0.832000017
v 2.63577008 -0.28775546 0.832000017
v 2.63577008 -0.286247998 0.834512472
v 2.63577008 -0.286247998 0.84799999
v 2.63577008 -0.294340521 0.84799999
v 2.63577008 -0.201751798 0.84799999
v 2.63577008 -0.201751798 0.832000017
v 2.63577008 -0.201751798 0.845647156
v 2.63577008 -0.192151815 0.834352851
v 2.63577008 -0.193563506 0.832000017
v 2.63577008 -0.192151815 0.832000017
v 2.63577008 -0.192151815 0.84799999
v 2.63577008 -0.200340107 0.84799999
v 2.68415999 -0.201751798 0.832000017
v 2.68415999 -0.201751798 0.835718155
v 2.68415999 -0.199520916 0.832000017
v 2.68415999 -0.194382697 0.84799999
v 2.68415999 -0.192151815 0.84799999
v 2.68415999 -0.201751798 0.84799999
v 2.68415999 -0.192151815 0.844281852
v 2.68415999 -0.192151815 0.832000017
v 2.68415999 -0.295847982 0.832000017
v 2.68415999 -0.295847982 0.835127175
v 2.68415999 -0.293971717 0.832000017
v 2.68415999 -0.288124263 0.84799999
v 2.68415999 -0.286247998 0.84799999
v 2.68415999 -0.295847982 0.84799999
v 2.68415999 -0.286247998 0.844872832
v 2.68415999 -0.286247998 0.832000017
v 3.01915002 -0.450219691 0.75
v 2.68415999 -0.450219691 0.75
v 2.68415999 -0.0611424744 0.75
v 3.01915002 -0.0611424744 0.75
v 3.01915002 -0.450219691 0.910000026
v 3.01915002 -0.0611424744 0.910000026
v 2.68415999 -0.450219691 0.910000026
v 2.68415999 -0.0611424744 0.910000026
v 2.99714994 -0.437019706 0.772000015
v 2.99714994 -0.0743424594 0.772000015
v 2.70616007 -0.0743424594 0.772000015
v 2.70616007 -0.437019706 0.772000015
v 2.99714994 -0.437019706 0.910000026
v 2.99714994 -0.0743424594 0.910000026
v 2.70616007 -0.0743424594 0.910000026
v 2.70616007 -0.437019706 0.910000026
v 2.70228076 -0.192151815 0.832000017
v 2.70228076 -0.201751798 0.832000017
v 2.70228076 -0.201751798 0.84799999
v 2.70228076 -0.192151815 0.84799999
v 2.69876575 -0.286247998 0.832000017
v 2.69876575 -0.295847982 0.832000017
v 2.69876575 -0.295847982 0.84799999
v 2.69876575 -0.286247998 0.84799999
v 2.61377001 0.138540298 0.828999996
v 2.61377001 0.138540298 0.851000011
v 2.61377001 0.246540308 0.851000011
v 2.63577008 0.138540298 0.828999996
v 2.61377001 0.246540308 0.828999996
v 2.63577008 0.246540308 0.851000011
v 2.63577008 0.138540298 0.851000011
v 2.63577008 0.246540308 0.828999996
v 2.63577008 0.139260918 0.832000017
v 2.63577008 0.139260918 0.845487535
v 2.63577008 0.139260918 0.84799999
v 2.63577008 0.148860931 0.832000017
v 2.63577008 0.14735347 0.832000017
v 2.63577008 0.148860931 0.834512472
v 2.63577008 0.148860931 0.84799999
v 2.63577008 0.140768394 0.84799999
v 2.63577008 0.233357102 0.84799999
v 2.63577008 0.233357102 0.832000017
v 2.63577008 0.233357102 0.845647156
v 2.63577008 0.2429571 0.834352851
v 2.63577008 0.241545409 0.832000017
v 2.63577008 0.2429571 0.832000017
v 2.63577008 0.2429571 0.84799999
v 2.63577008 0.234768808 0.84799999
v 2.68415999 0.233357102 0.832000017
v 2.68415999 0.233357102 0.835718155
v 2.68415999 0.235587999 0.832000017
v 2.68415999 0.240726218 0.84799999
v 2.68415999 0.2429571 0.84799999
v 2.68415999 0.233357102 0.84799999
v 2.68415999 0.2429571 0.844281852
v 2.68415999 0.2429571 0.832000017
v 2.68415999 0.139260918 0.832000017
v 2.68415999 0.139260918 0.835127175
v 2.68415999 0.141137213 0.832000017
v 2.68415999 0.146984637 0.84799999
v 2.68415999 0.148860931 0.84799999
v 2.68415999 0.139260918 0.84799999
v 2.68415999 0.148860931 0.844872832
v 2.68415999 0.148860931 0.832000017
v 3.01915002 -0.0151107758 0.75
v 2.68415999 -0.0151107758 0.75
v 2.68415999 0.373966455 0.75
v 3.01915002 0.373966455 0.75
v 3.01915002 -0.0151107758 0.910000026
v 3.01915002 0.373966455 0.910000026
v 2.68415999 -0.0151107758 0.910000026
v 2.68415999 0.373966455 0.910000026
v 2.99714994 -0.0019107759 0.772000015
v 2.99714994 0.36076647 0.772000015
v 2.70616007 0.36076647 0.772000015
v 2.70616007 -0.0019107759 0.772000015
v 2.99714994 -0.0019107759 0.910000026
v 2.99714994 0.36076647 0.910000026
v 2.70616007 0.36076647 0.910000026
v 2.70616007 -0.0019107759 0.910000026
v 2.70228076 0.2429571 0.832000017
v 2.70228076 0.233357102 0.832000017
v 2.70228076 0.233357102 0.84799999
v 2.70228076 0.2429571 0.84799999
v 2.69876575 0.148860931 0.832000017
v 2.69876575 0.139260918 0.832000017
v 2.69876575 0.139260918 0.84799999
v 2.69876575 0.148860931 0.84799999
vn -0 -0 -1
vn 0 -0 -1
vn -0 -0 -1
vn -0 0 -1
vn 1 -0 -0
vn 1 -0 -0
vn 1 0 0
vn 1 -0 -0
vn 0 0 1
vn 0 0 1
vn 0 0 1
vn 0 -1 -0
vn -0 -1 -0
vn -0 -1 0
vn -0 -1 -0
vn 0 1 0
vn 0 1 0
vn 0 1 0
vn 0 0 1
vn 0 0 1
vn 0 0 1
vn 0 0 1
vn 0 0 1
vn 0 0 1
vn 0 0 1
vn 0 0 1
vn 0 0 1
vn 0 0 1
vn 0 0 1
vn 0 0 1
vn -1 0 0
vn -1 0 0
vn -1 0 0
vn -1 0 0
vn -1 0 0
vn -1 0 0
vn -1 0 0
vn -1 0 0
vn -1 0 0
vn -1 0 0
vn -1 0 0
vn -1 0 0
vn -1 0 0
vn -1 0 0
vn -1 0 0
vn -1 0 0
vn -1 0 0
vn -1 0 0
vn -1 0 0
vn -1 0 0
vn -1 0 0
vn -1 0 0
vn -1 0 0
vn -1 0 0
vn -1 0 0
vn -1 0 0
vn -1 0 0
vn -1 0 0
vn -1 0 0
vn -1 0 0
vn -1 0 0
vn -1 0 0
vn -1 0 0
vn -1 0 0
vn -1 0 0
vn -1 0 0
vn -1 0 0
vn -1 0 0
vn -1 0 0
vn -1 0 0
vn -1 0 0
vn -1 0 0
vn -1 0 0
vn -1 0 0
vn -1 0 0
vn -1 0 0
vn -1 0 0
vn -1 0 0
vn -1 0 0
vn -1 0 0
vn -1 0 0
vn -1 0 0
vn -1 0 0
vn -1 0 0
vn -1 0 0
vn -1 0 0
vn -1 0 0
vn -1 0 0
vn -1 0 0
vn -1 0 0
vn -1 0 0
vn -1 0 0
vn -1 0 0
vn -1 0 0
vn -1 0 0
vn -1 0 0
vn -1 0 0
vn -1 0 0
vn -1 0 0
vn -1 0 0
vn -1 0 0
vn -1 0 0
vn 0 1 0
vn 0 1 0
vn 0 1 0
vn 0 1 0
vn 0 1 0
vn 0 1 0
vn 0 1 0
vn 0 1 0
vn 0 1 0
vn 0 1 0
vn 0 1 0
vn 0 1 0
vn -1 -0 0
vn -1 -0 -0
vn -1 0 -0
vn -1 -0 -0
vn 0 0 1
vn 0 0 1
vn 0 0 1
vn 0 0 1
vn 0 0 1
vn 0 0 1
vn 0 0 1
vn 0 0 1
vn 0 0 1
vn 0 0 -1
vn 0 0 -1
vn 0 0 -1
vn 0 0 -1
vn 0 0 -1
vn 0 0 -1
vn 0 0 -1
vn 0 0 -1
vn 0 0 -1
vn 0 1 0
vn 0 1 0
vn 0 1 0
vn 0 1 0
vn 0 1 0
vn 0 1 0
vn 0 1 0
vn 0 1 0
vn 0 1 0
vn 0 -1 0
vn 0 -1 0
vn 0 -1 0
vn 0 -1 0
vn 0 -1 0
vn 0 -1 0
vn 0 -1 0
vn 0 -1 0
vn 0 -1 0
vn -1 -0 0
vn -1 -0 -0
vn -1 0 -0
vn -1 -0 -0
vn 0 0 1
vn 0 0 1
vn 0 0 1
vn 0 0 1
vn 0 0 1
vn 0 0 1
vn 0 0 1
vn 0 0 1
vn 0 0 1
vn 0 0 1
vn 0 0 1
vn 0 0 1
vn 0 0 -1
vn 0 0 -1
vn 0 0 -1
vn 0 0 -1
vn 0 0 -1
vn 0 0 -1
vn 0 0 -1
vn 0 0 -1
vn 0 0 -1
vn 0 1 0
vn 0 1 0
vn 0 1 0
vn 0 1 0
vn 0 1 0
vn 0 1 0
vn 0 1 0
vn 0 1 0
vn 0 1 0
vn 0 -1 0
vn 0 -1 0
vn 0 -1 0
vn 0 -1 0
vn 0 -1 0
vn 0 -1 0
vn 0 -1 0
vn 0 -1 0
vn 0 -1 0
vn 0 -1 0
vn 0 -1 0
vn 0 -1 0
vn 1 0 0
vn 1 0 0
vn 1 0 0
vn 0 1 0
vn 0 1 0
vn 0 1 0
vn 1 0 0
vn 1 0 0
vn 1 0 0
vn 0 0 1
vn 0 0 1
vn 0 0 1
vn 0 0 -1
vn 0 0 -1
vn 0 0 -1
vn 0 1 0
vn 0 1 0
vn 0 1 0
vn 0 0 -1
vn 0 0 -1
vn 0 0 -1
vn 0 -1 0
vn 0 -1 0
vn 0 -1 0
vn 0 0 1
vn 0 0 1
vn 0 0 1
vn 0 -1 0
vn 0 -1 0
vn 0 -1 0
vn -1 0 0
vn -1 0 0
vn -1 0 0
vn -1 0 0
vn -1 0 0
vn -1 0 0
vn -1 0 0
vn -1 0 0
vn -1 0 0
vn -1 0 0
vn -1 0 0
vn -1 0 0
vn -1 0 0
vn -1 0 0
vn -1 0 0
vn -1 0 0
vn -1 0 0
vn -1 0 0
vn -1 0 0
vn -1 0 0
vn -1 0 0
vn -1 0 0
vn -1 0 0
vn -1 0 0
vn -1 0 0
vn -1 0 0
vn -1 0 0
vn -1 0 0
vn -1 0 0
vn -1 0 0
vn -1 0 0
vn -1 0 0
vn -1 0 0
vn -1 0 0
vn -1 0 0
vn -1 0 0
vn -1 0 0
vn -1 0 0
vn -1 0 0
vn -1 0 0
vn -1 0 0
vn -1 0 0
vn -1 0 0
vn -0.99999994 0 0
vn -1 0 0
vn -1 0 0
vn -1 0 0
vn -1 0 0
vn -1 0 0
vn -1 0 0
vn -1 0 0
vn -0.99999994 0 0
vn -1 0 0
vn -1 0 0
vn -1 0 0
vn -1 0 0
vn -0.99999994 0 0
vn -1 0 0
vn -1 0 0
vn -1 0 0
vn -1 0 0
vn -1 0 0
vn -1 0 0
vn -1 0 0
vn -1 0 0
vn -1 0 0
vn 0 1 0
vn 0 1 0
vn 0 1 0
vn 0 1 0
vn 0 1 0
vn 0 1 0
vn 0 0 1
vn 0 0 1
vn 0 0 1
vn 0 0 1
vn 0 0 1
vn 0 0 1
vn 0 0 -1
vn 0 0 -1
vn 0 0 -1
vn 0 0 -1
vn 0 0 -1
vn 0 0 -1
vn 0 1 0
vn 0 1 0
vn 0 1 0
vn 0 1 0
vn 0 1 0
vn 0 1 0
vn 0 0 -1
vn 0 0 -1
vn 0 0 -1
vn 0 0 -1
vn 0 0 -1
vn 0 0 -1
vn 0 -1 0
vn 0 -1 0
vn 0 -1 0
vn 0 -1 0
vn 0 -1 0
vn 0 -1 0
vn 0 0 1
vn 0 0 1
vn 0 0 1
vn 0 0 1
vn 0 0 1
vn 0 0 1
vn 0 -1 0
vn 0 -1 0
vn 0 -1 0
vn 0 -1 0
vn 0 -1 0
vn 0 -1 0
vn 0 1 0
vn 0 1 0
vn 0 1 0
vn 0 1 0
vn 0 1 0
vn 0 1 0
vn 0 0 1
vn 0 0 1
vn 0 0 1
vn 0 0 1
vn 0 0 1
vn 0 0 1
vn 0 0 -1
vn 0 0 -1
vn 0 0 -1
vn 0 0 -1
vn 0 0 -1
vn 0 0 -1
vn 0 1 0
vn 0 1 0
vn 0 1 0
vn 0 1 0
vn 0 1 0
vn 0 1 0
vn 0 0 -1
vn 0 0 -1
vn 0 0 -1
vn 0 0 -1
vn 0 0 -1
vn 0 0 -1
vn 0 -1 0
vn 0 -1 0
vn 0 -1 0
vn 0 -1 0
vn 0 -1 0
vn 0 -1 0
vn 0 0 1
vn 0 0 1
vn 0 0 1
vn 0 0 1
vn 0 0 1
vn 0 0 1
vn 0 -1 0
vn 0 -1 0
vn 0 -1 0
vn 0 -1 0
vn 0 -1 0
vn 0 -1 0
vn 0 0 1
vn -0 -0 1
vn -0 -0 1
vn -0 -0 1
vn -1 -0 -0
vn -1 -0 0
vn -1 -0 -0
vn -1 0 -0
vn -0 1 -0
vn -0 1 -0
vn -0 1 -0
vn 0 1 0
vn -0 -1 -0
vn 0 -1 -0
vn -0 -1 -0
vn -0 -1 0
vn -0 -0 -1
vn 0 -0 -1
vn -0 -0 -1
vn -0 0 -1
vn 1 -0 -0
vn 1 -0 -0
vn 1 0 0
vn 1 -0 -0
vn -1 0 -0
vn -1 -0 -0
vn -1 -0 0
vn -1 -0 -0
vn 0 -1 -0
vn -0 -1 -0
vn -0 -1 0
vn -0 -1 -0
vn -0 1 -0
vn -0 1 -0
vn 0 1 0
vn -0 1 -0
vn 0 0 -1
vn -0 -0 -1
vn -0 -0 -1
vn -0 0 -1
vn -0 0 -1
vn -0 -0 -1
vn 0 0 -1
vn -0 -0 -1
vn -0 -0 -1
vn 0 0 -1
vn -0 -0 -1
vn 0 -0 -1
vn 0 -0 -1
vn -0 -0 -1
vn -0 -0 -1
vn 0 0 -1
vn 1 0 0
vn 1 0 0
vn 1 0 0
vn 1 0 0
vn 1 0 0
vn 1 0 0
vn 1 0 0
vn 1 0 0
vn 1 0 0
vn 1 0 0
vn 1 0 0
vn 1 0 0
vn 1 0 0
vn 0.99999994 0 0
vn 1 0 0
vn 1 0 0
vn 0.99999994 0 0
vn 1 0 0
vn 1 0 0
vn 1 0 0
vn 1 0 0
vn 1 0 0
vn 0.99999994 0 0
vn 1 0 0
vn 0.99999994 0 0
vn 1 0 0
vn 1 0 0
vn 1 0 0
vn 1 0 0
vn 1 0 0
vn 1 0 0
vn 1 0 0
vn 1 0 0
vn 0.99999994 0 0
vn 1 0 0
vn 1 0 0
vn 1 0 0
vn 1 0 0
vn 1 0 0
vn 1 0 0
vn 1 0 0
vn 1 0 0
vn 1 0 0
vn 0.99999994 0 0
vn 1 0 0
vn 1 0 0
vn 0.99999994 0 0
vn 1 0 0
vn 1 0 0
vn 1 0 0
vn 1 0 0
vn 1 0 0
vn 1 0 0
vn 1 0 0
vn 1 0 0
vn 0.99999994 0 0
vn 1 0 0
vn 0.99999994 0 0
vn 1 0 0
vn 1 0 0
vn 1 0 0
vn 1 0 0
vn 0.99999994 0 0
vn 1 0 0
vn 1 0 0
vn 1 0 0
vn 0.99999994 0 0
vn 0.99999994 0 0
vn 1 0 0
vn 1 0 0
vn 0.99999994 0 0
vn 0.99999994 0 0
vn 0 -1 0
vn 0 -1 0
vn 0 -1 0
vn 0 0 -1
vn 0 0 -1
vn 0 0 -1
vn 0 0 1
vn 0 0 1
vn 0 0 1
vn 0 -1 0
vn 0 -1 0
vn 0 -1 0
vn 0 -1 0
vn 0 -1 0
vn 0 -1 0
vn 0 0 1
vn 0 0 1
vn 0 0 1
vn 0 0 1
vn 0 0 1
vn 0 0 1
vn 0 1 0
vn 0 1 0
vn 0 1 0
vn 0 0 -1
vn 0 0 -1
vn 0 0 -1
vn 0 0 -1
vn 0 0 -1
vn 0 0 -1
vn 0 1 0
vn 0 1 0
vn 0 1 0
vn 0 1 0
vn 0 1 0
vn 0 1 0
vn -0.99999994 0 0
vn -1 0 0
vn -0.99999994 0 0
vn -0.99999994 0 0
vn -0.99999994 0 0
vn -1 0 0
vn -1 0 0
vn -0.99999994 0 0
vn -0.99999994 0 0
vn -1 0 0
vn -0.99999994 0 0
vn -1 0 0
vn -0.99999994 0 0
vn -1 0 0
vn -1 0 0
vn -0.99999994 0 0
vn -0.99999994 0 0
vn -1 0 0
vn 0.99999994 0 0
vn 0.99999994 0 0
vn 1 0 0
vn 1 0 0
vn 0.99999994 0 0
vn 0.99999994 0 0
vn 0 -1 0
vn 0 -1 0
vn 0 -1 0
vn 0 0 -1
vn 0 0 -1
vn 0 0 -1
vn 0 0 1
vn 0 0 1
vn 0 0 1
vn 0 -1 0
vn 0 -1 0
vn 0 -1 0
vn 0 -1 0
vn 0 -1 0
vn 0 -1 0
vn 0 0 1
vn 0 0 1
vn 0 0 1
vn 0 0 1
vn 0 0 1
vn 0 0 1
vn 0 1 0
vn 0 1 0
vn 0 1 0
vn 0 0 -1
vn 0 0 -1
vn 0 0 -1
vn 0 0 -1
vn 0 0 -1
vn 0 0 -1
vn 0 1 0
vn 0 1 0
vn 0 1 0
vn 0 1 0
vn 0 1 0
vn 0 1 0
vn -1 0 0
vn -1 0 0
vn -0.99999994 0 0
vn -1 0 0
vn -1 0 0
vn -0.99999994 0 0
vn -1 0 0
vn -1 0 0
vn -0.99999994 0 0
vn -1 0 0
vn -0.99999994 0 0
vn -1 0 0
vn -0.99999994 0 0
vn -1 0 0
vn -1 0 0
vn -1 0 0
vn -0.99999994 0 0
vn -1 0 0
vn 1 0 0
vn 1 0 0
vn 1 0 0
vn 0 1 0
vn 0 1 0
vn 0 1 0
vn 1 0 0
vn 1 0 0
vn 1 0 0
vn 0 0 1
vn 0 0 1
vn 0 0 1
vn 0 0 -1
vn 0 0 -1
vn 0 0 -1
vn 0 1 0
vn 0 1 0
vn 0 1 0
vn 0 0 -1
vn 0 0 -1
vn 0 0 -1
vn 0 -1 0
vn 0 -1 0
vn 0 -1 0
vn 0 0 1
vn 0 0 1
vn 0 0 1
vn 0 -1 0
vn 0 -1 0
vn 0 -1 0
vn -1 0 0
vn -1 0 0
vn -1 0 0
vn -1 0 0
vn -1 0 0
vn -1 0 0
vn -1 0 0
vn -1 0 0
vn -1 0 0
vn -1 0 0
vn -1 0 0
vn -1 0 0
vn -1 0 0
vn -1 0 0
vn -1 0 0
vn -1 0 0
vn -1 0 0
vn -1 0 0
vn -1 0 0
vn -1 0 0
vn -1 0 0
vn -1 0 0
vn -1 0 0
vn -1 0 0
vn -1 0 0
vn -1 0 0
vn -1 0 0
vn -1 0 0
vn -1 0 0
vn -1 0 0
vn -1 0 0
vn -1 0 0
vn -1 0 0
vn -1 0 0
vn -1 0 0
vn -0.99999994 0 0
vn -1 0 0
vn -1 0 0
vn -1 0 0
vn -1 0 0
vn -1 0 0
vn -1 0 0
vn -1 0 0
vn -0.99999994 0 0
vn -0.99999994 0 0
vn -1 0 0
vn -1 0 0
vn -1 0 0
vn -1 0 0
vn -1 0 0
vn -1 0 0
vn -0.99999994 0 0
vn -1 0 0
vn -1 0 0
vn -1 0 0
vn -0.99999994 0 0
vn -0.99999994 0 0
vn -1 0 0
vn -1 0 0
vn -0.99999994 0 0
vn -0.99999994 0 0
vn -1 0 0
vn -1 0 0
vn -1 0 0
vn -1 0 0
vn -1 0 0
vn 0 1 0
vn 0 1 0
vn 0 1 0
vn 0 1 0
vn 0 1 0
vn 0 1 0
vn 0 0 1
vn 0 0 1
vn 0 0 1
vn 0 0 1
vn 0 0 1
vn 0 0 1
vn 0 0 -1
vn 0 0 -1
vn 0 0 -1
vn 0 0 -1
vn 0 0 -1
vn 0 0 -1
vn 0 1 0
vn 0 1 0
vn 0 1 0
vn 0 1 0
vn 0 1 0
vn 0 1 0
vn 0 0 -1
vn 0 0 -1
vn 0 0 -1
vn 0 0 -1
vn 0 0 -1
vn 0 0 -1
vn 0 -1 0
vn 0 -1 0
vn 0 -1 0
vn 0 -1 0
vn 0 -1 0
vn 0 -1 0
vn 0 0 1
vn 0 0 1
vn 0 0 1
vn 0 0 1
vn 0 0 1
vn 0 0 1
vn 0 -1 0
vn 0 -1 0
vn 0 -1 0
vn 0 -1 0
vn 0 -1 0
vn 0 -1 0
vn 0 1 0
vn 0 1 0
vn 0 1 0
vn 0 1 0
vn 0 1 0
vn 0 1 0
vn 0 0 1
vn 0 0 1
vn 0 0 1
vn 0 0 1
vn 0 0 1
vn 0 0 1
vn 0 0 -1
vn 0 0 -1
vn 0 0 -1
vn 0 0 -1
vn 0 0 -1
vn 0 0 -1
vn 0 1 0
vn 0 1 0
vn 0 1 0
vn 0 1 0
vn 0 1 0
vn 0 1 0
vn 0 0 -1
vn 0 0 -1
vn 0 0 -1
vn 0 0 -1
vn 0 0 -1
vn 0 0 -1
vn 0 -1 0
vn 0 -1 0
vn 0 -1 0
vn 0 -1 0
vn 0 -1 0
vn 0 -1 0
vn 0 0 1
vn 0 0 1
vn 0 0 1
vn 0 0 1
vn 0 0 1
vn 0 0 1
vn 0 -1 0
vn 0 -1 0
vn 0 -1 0
vn 0 -1 0
vn 0 -1 0
vn 0 -1 0
vn 0 0 1
vn -0 -0 1
vn -0 -0 1
vn -0 -0 1
vn -1 -0 -0
vn -1 -0 0
vn -1 -0 -0
vn -1 0 -0
vn -0 1 -0
vn -0 1 -0
vn -0 1 -0
vn 0 1 0
vn -0 -1 -0
vn 0 -1 -0
vn -0 -1 -0
vn -0 -1 0
vn -0 -0 -1
vn 0 -0 -1
vn -0 -0 -1
vn -0 0 -1
vn 1 -0 -0
vn 1 -0 -0
vn 1 0 0
vn 1 -0 -0
vn -1 0 -0
vn -1 -0 -0
vn -1 -0 0
vn -1 -0 -0
vn 0 -1 -0
vn -0 -1 -0
vn -0 -1 0
vn -0 -1 -0
vn -0 1 -0
vn -0 1 -0
vn 0 1 0
vn -0 1 -0
vn 0 0 -1
vn -0 -0 -1
vn -0 -0 -1
vn -0 0 -1
vn -0 0 -1
vn -0 -0 -1
vn 0 0 -1
vn -0 -0 -1
vn -0 -0 -1
vn 0 0 -1
vn -0 -0 -1
vn 0 -0 -1
vn 0 -0 -1
vn -0 -0 -1
vn -0 -0 -1
vn 0 0 -1
vn 1 0 0
vn 1 0 0
vn 1 0 0
vn 1 0 0
vn 1 0 0
vn 1 0 0
vn 1 0 0
vn 1 0 0
vn 1 0 0
vn 1 0 0
vn 1 0 0
vn 1 0 0
vn 1 0 0
vn 0.99999994 0 0
vn 1 0 0
vn 1 0 0
vn 0.99999994 0 0
vn 1 0 0
vn 1 0 0
vn 1 0 0
vn 1 0 0
vn 1 0 0
vn 0.99999994 0 0
vn 1 0 0
vn 0.99999994 0 0
vn 1 0 0
vn 1 0 0
vn 1 0 0
vn 1 0 0
vn 1 0 0
vn 1 0 0
vn 1 0 0
vn 1 0 0
vn 0.99999994 0 0
vn 1 0 0
vn 1 0 0
vn 1 0 0
vn 1 0 0
vn 1 0 0
vn 1 0 0
vn 1 0 0
vn 1 0 0
vn 1 0 0
vn 0.99999994 0 0
vn 1 0 0
vn 1 0 0
vn 0.99999994 0 0
vn 0.99999994 0 0
vn 1 0 0
vn 1 0 0
vn 1 0 0
vn 1 0 0
vn 1 0 0
vn 1 0 0
vn 0.99999994 0 0
vn 0.99999994 0 0
vn 1 0 0
vn 0.99999994 0 0
vn 1 0 0
vn 1 0 0
vn 1 0 0
vn 1 0 0
vn 0.99999994 0 0
vn 1 0 0
vn 1 0 0
vn 1 0 0
vn 1 0 0
vn 1 0 0
vn 1 0 0
vn 1 0 0
vn 1 0 0
vn 1 0 0
vn 0 -1 0
vn 0 -1 0
vn 0 -1 0
vn 0 0 -1
vn 0 0 -1
vn 0 0 -1
vn 0 0 1
vn 0 0 1
vn 0 0 1
vn 0 -1 0
vn 0 -1 0
vn 0 -1 0
vn 0 -1 0
vn 0 -1 0
vn 0 -1 0
vn 0 0 1
vn 0 0 1
vn 0 0 1
vn 0 0 1
vn 0 0 1
vn 0 0 1
vn 0 1 0
vn 0 1 0
vn 0 1 0
vn 0 0 -1
vn 0 0 -1
vn 0 0 -1
vn 0 0 -1
vn 0 0 -1
vn 0 0 -1
vn 0 1 0
vn 0 1 0
vn 0 1 0
vn 0 1 0
vn 0 1 0
vn 0 1 0
vn -1 0 0
vn -1 0 0
vn -1 0 0
vn -0.99999994 0 0
vn -1 0 0
vn -0.99999994 0 0
vn -0.99999994 0 0
vn -1 0 0
vn -1 0 0
vn -0.99999994 0 0
vn -1 0 0
vn -1 0 0
vn -0.99999994 0 0
vn -0.99999994 0 0
vn -1 0 0
vn -1 0 0
vn -0.99999994 0 0
vn -1 0 0
vn 0.99999994 0 0
vn 0.99999994 0 0
vn 1 0 0
vn 1 0 0
vn 0.99999994 0 0
vn 0.99999994 0 0
vn 0 -1 0
vn 0 -1 0
vn 0 -1 0
vn 0 0 -1
vn 0 0 -1
vn 0 0 -0.99999994
vn 0 0 1
vn 0 0 1
vn 0 0 1
vn 0 -1 0
vn 0 -1 0
vn 0 -1 0
vn 0 -1 0
vn 0 -1 0
vn 0 -1 0
vn 0 0 1
vn 0 0 1
vn 0 0 1
vn 0 0 1
vn 0 0 1
vn 0 0 1
vn 0 1 0
vn 0 1 0
vn 0 1 0
vn 0 0 -0.99999994
vn 0 0 -1
vn 0 0 -1
vn 0 0 -1
vn 0 0 -0.99999994
vn 0 0 -1
vn 0 1 0
vn 0 1 0
vn 0 1 0
vn 0 1 0
vn 0 1 0
vn 0 1 0
vn -0.99999994 0 0
vn -0.99999994 0 0
vn -1 0 0
vn -0.99999994 0 0
vn -1 0 0
vn -1 0 0
vn -0.99999994 0 0
vn -0.99999994 0 0
vn -1 0 0
vn -0.99999994 0 0
vn -1 0 0
vn -1 0 0
vn -1 0 0
vn -0.99999994 0 0
vn -1 0 0
vn -0.99999994 0 0
vn -1 0 0
vn -1 0 0
g 
f 1//1 4//2 3//3 2//4
f 5//5 1//6 2//7 6//8
f 6//9 7//10 5//11
f 5//12 7//13 4//14 1//15
f 8//16 2//17 3//18
f 9//19 8//20 10//21
f 9//22 10//23 6//24
f 7//25 6//26 10//27
f 10//28 8//29 7//30
f 11//31 8//32 12//33
f 4//34 13//35 3//36
f 8//37 11//38 14//39
f 12//40 3//41 13//42
f 12//43 8//44 3//45
f 15//46 7//47 16//48
f 16//49 7//50 17//51
f 18//52 4//53 19//54
f 20//55 4//56 18//57
f 20//58 22//59 21//60
f 23//61 24//62 7//63
f 19//64 7//65 24//66
f 19//67 4//68 7//69
f 25//70 26//71 8//72
f 27//73 16//74 17//75
f 8//76 14//77 25//78
f 8//79 17//80 7//81
f 23//82 7//83 15//84
f 4//85 20//86 21//87
f 17//88 22//89 27//90
f 17//91 8//92 26//93
f 4//94 21//95 28//96
f 27//97 22//98 20//99
f 28//100 13//101 4//102
f 9//103 6//104 29//105
f 2//106 29//107 6//108
f 2//109 8//110 29//111
f 8//112 9//113 29//114
f 30//115 33//116 32//117 31//118
f 18//119 33//120 20//121
f 33//122 18//123 32//124
f 18//125 19//126 32//127
f 30//128 15//129 16//130
f 15//131 31//132 23//133
f 31//134 15//135 30//136
f 24//137 32//138 19//139
f 31//140 32//141 24//142
f 31//143 24//144 23//145
f 27//146 30//147 16//148
f 30//149 27//150 33//151
f 33//152 27//153 20//154
f 34//155 37//156 36//157 35//158
f 36//159 37//160 28//161
f 13//162 37//163 12//164
f 13//165 28//166 37//167
f 28//168 21//169 36//170
f 34//171 26//172 25//173
f 26//174 35//175 17//176
f 35//177 26//178 34//179
f 22//180 36//181 21//182
f 35//183 36//184 22//185
f 35//186 22//187 17//188
f 14//189 34//190 25//191
f 14//192 11//193 34//194
f 34//195 11//196 37//197
f 37//198 11//199 12//200
f 38//201 40//202 39//203
f 38//204 39//205 41//206
f 42//207 40//208 38//209
f 38//210 41//211 42//212
f 40//213 43//214 39//215
f 41//216 39//217 44//218
f 39//219 43//220 44//221
f 42//222 43//223 40//224
f 42//225 41//226 45//227
f 45//228 43//229 42//230
f 41//231 47//232 46//233
f 44//234 48//235 47//236
f 41//237 49//238 45//239
f 41//240 46//241 50//242
f 51//243 45//244 49//245
f 44//246 47//247 41//248
f 52//249 45//250 51//251
f 52//252 44//253 45//254
f 52//255 53//256 44//257
f 44//258 53//259 48//260
f 41//261 50//262 49//263
f 54//264 44//265 43//266
f 55//267 44//268 56//269
f 45//270 44//271 55//272
f 45//273 57//274 43//275
f 45//276 55//277 58//278
f 44//279 54//280 56//281
f 57//282 45//283 59//284
f 60//285 43//286 57//287
f 61//288 54//289 43//290
f 43//291 60//292 61//293
f 45//294 58//295 59//296
f 62//297 55//298 63//299
f 56//300 63//301 55//302
f 62//303 64//304 55//305
f 64//306 58//307 55//308
f 65//309 60//310 66//311
f 61//312 60//313 65//314
f 54//315 67//316 56//317
f 67//318 63//319 56//320
f 65//321 67//322 61//323
f 54//324 61//325 67//326
f 68//327 66//328 60//329
f 60//330 57//331 68//332
f 58//333 64//334 69//335
f 69//336 59//337 58//338
f 57//339 69//340 68//341
f 59//342 69//343 57//344
f 70//345 46//346 71//347
f 47//348 71//349 46//350
f 70//351 72//352 46//353
f 72//354 50//355 46//356
f 73//357 52//358 74//359
f 53//360 52//361 73//362
f 48//363 75//364 47//365
f 75//366 71//367 47//368
f 73//369 75//370 53//371
f 48//372 53//373 75//374
f 76//375 74//376 52//377
f 52//378 51//379 76//380
f 50//381 72//382 77//383
f 77//384 49//385 50//386
f 51//387 77//388 76//389
f 49//390 77//391 51//392
f 78//393 81//394 80//395 79//396
f 82//397 83//398 81//399 78//400
f 82//401 78//402 79//403 84//404
f 81//405 83//406 85//407 80//408
f 86//409 89//410 88//411 87//412
f 90//413 86//414 87//415 91//416
f 89//417 93//418 92//419 88//420
f 90//421 93//422 89//423 86//424
f 87//425 88//426 92//427 91//428
f 82//429 90//430 91//431 83//432
f 83//433 91//434 92//435 85//436
f 85//437 92//438 93//439 84//440
f 84//441 93//442 90//443 82//444
f 79//445 70//446 84//447
f 73//448 84//449 75//450
f 71//451 75//452 84//453
f 72//454 70//455 79//456
f 79//457 85//458 77//459
f 77//460 85//461 76//462
f 70//463 71//464 84//465
f 76//466 85//467 74//468
f 85//469 84//470 74//471
f 73//472 74//473 84//474
f 77//475 72//476 79//477
f 85//478 79//479 67//480
f 63//481 79//482 62//483
f 62//484 79//485 80//486
f 80//487 85//488 69//489
f 69//490 85//491 68//492
f 64//493 62//494 80//495
f 63//496 67//497 79//498
f 68//499 85//500 66//501
f 85//502 67//503 65//504
f 65//505 66//506 85//507
f 69//508 64//509 80//510
f 94//511 96//512 95//513
f 97//514 96//515 94//516
f 95//517 63//518 62//519
f 95//520 62//521 64//522
f 66//523 65//524 97//525
f 63//526 96//527 67//528
f 96//529 63//530 95//531
f 67//532 96//533 65//534
f 65//535 96//536 97//537
f 66//538 97//539 68//540
f 64//541 94//542 95//543
f 94//544 64//545 69//546
f 68//547 97//548 94//549
f 94//550 69//551 68//552
f 64//553 62//554 63//555
f 68//556 64//557 65//558
f 65//559 64//560 63//561
f 65//562 63//563 67//564
f 68//565 65//566 66//567
f 64//568 68//569 69//570
f 98//571 100//572 99//573
f 101//574 100//575 98//576
f 99//577 71//578 70//579
f 99//580 70//581 72//582
f 74//583 73//584 101//585
f 71//586 100//587 75//588
f 100//589 71//590 99//591
f 75//592 100//593 73//594
f 73//595 100//596 101//597
f 74//598 101//599 76//600
f 72//601 98//602 99//603
f 98//604 72//605 77//606
f 76//607 101//608 98//609
f 98//610 77//611 76//612
f 72//613 73//614 76//615
f 72//616 70//617 71//618
f 73//619 72//620 71//621
f 73//622 71//623 75//624
f 76//625 73//626 74//627
f 72//628 76//629 77//630
f 102//631 104//632 103//633
f 102//634 103//635 105//636
f 106//637 104//638 102//639
f 102//640 105//641 106//642
f 104//643 107//644 103//645
f 105//646 103//647 108//648
f 103//649 107//650 108//651
f 106//652 107//653 104//654
f 106//655 105//656 109//657
f 109//658 107//659 106//660
f 105//661 111//662 110//663
f 108//664 112//665 111//666
f 105//667 113//668 109//669
f 105//670 110//671 114//672
f 115//673 109//674 113//675
f 108//676 111//677 105//678
f 116//679 109//680 115//681
f 116//682 108//683 109//684
f 116//685 117//686 108//687
f 108//688 117//689 112//690
f 105//691 114//692 113//693
f 118//694 108//695 107//696
f 119//697 108//698 120//699
f 109//700 108//701 119//702
f 109//703 121//704 107//705
f 109//706 119//707 122//708
f 108//709 118//710 120//711
f 121//712 109//713 123//714
f 124//715 107//716 121//717
f 125//718 118//719 107//720
f 107//721 124//722 125//723
f 109//724 122//725 123//726
f 126//727 119//728 127//729
f 120//730 127//731 119//732
f 126//733 128//734 119//735
f 128//736 122//737 119//738
f 129//739 124//740 130//741
f 125//742 124//743 129//744
f 118//745 131//746 120//747
f 131//748 127//749 120//750
f 129//751 131//752 125//753
f 118//754 125//755 131//756
f 132//757 130//758 124//759
f 124//760 121//761 132//762
f 122//763 128//764 133//765
f 133//766 123//767 122//768
f 121//769 133//770 132//771
f 123//772 133//773 121//774
f 134//775 110//776 135//777
f 111//778 135//779 110//780
f 134//781 136//782 110//783
f 136//784 114//785 110//786
f 137//787 116//788 138//789
f 117//790 116//791 137//792
f 112//793 139//794 111//795
f 139//796 135//797 111//798
f 137//799 139//800 117//801
f 112//802 117//803 139//804
f 140//805 138//806 116//807
f 116//808 115//809 140//810
f 114//811 136//812 141//813
f 141//814 113//815 114//816
f 115//817 141//818 140//819
f 113//820 141//821 115//822
f 142//823 145//824 144//825 143//826
f 146//827 147//828 145//829 142//830
f 146//831 142//832 143//833 148//834
f 145//835 147//836 149//837 144//838
f 150//839 153//840 152//841 151//842
f 154//843 150//844 151//845 155//846
f 153//847 157//848 156//849 152//850
f 154//851 157//852 153//853 150//854
f 151//855 152//856 156//857 155//858
f 146//859 154//860 155//861 147//862
f 147//863 155//864 156//865 149//866
f 149//867 156//868 157//869 148//870
f 148//871 157//872 154//873 146//874
f 143//875 134//876 148//877
f 137//878 148//879 139//880
f 135//881 139//882 148//883
f 136//884 134//885 143//886
f 143//887 149//888 141//889
f 141//890 149//891 140//892
f 134//893 135//894 148//895
f 140//896 149//897 138//898
f 149//899 148//900 138//901
f 137//902 138//903 148//904
f 141//905 136//906 143//907
f 149//908 143//909 131//910
f 127//911 143//912 126//913
f 126//914 143//915 144//916
f 144//917 149//918 133//919
f 133//920 149//921 132//922
f 128//923 126//924 144//925
f 127//926 131//927 143//928
f 132//929 149//930 130//931
f 149//932 131//933 129//934
f 129//935 130//936 149//937
f 133//938 128//939 144//940
f 158//941 160//942 159//943
f 161//944 160//945 158//946
f 159//947 127//948 126//949
f 159//950 126//951 128//952
f 130//953 129//954 161//955
f 127//956 160//957 131//958
f 160//959 127//960 159//961
f 131//962 160//963 129//964
f 129//965 160//966 161//967
f 130//968 161//969 132//970
f 128//971 158//972 159//973
f 158//974 128//975 133//976
f 132//977 161//978 158//979
f 158//980 133//981 132//982
f 128//983 126//984 127//985
f 132//986 128//987 129//988
f 129//989 128//990 127//991
f 129//992 127//993 131//994
f 132//995 129//996 130//997
f 128//998 132//999 133//1000
f 162//1001 164//1002 163//1003
f 165//1004 164//1005 162//1006
f 163//1007 135//1008 134//1009
f 163//1010 134//1011 136//1012
f 138//1013 137//1014 165//1015
f 135//1016 164//1017 139//1018
f 164//1019 135//1020 163//1021
f 139//1022 164//1023 137//1024
f 137//1025 164//1026 165//1027
f 138//1028 165//1029 140//1030
f 136//1031 162//1032 163//1033
f 162//1034 136//1035 141//1036
f 140//1037 165//1038 162//1039
f 162//1040 141//1041 140//1042
f 136//1043 137//1044 140//1045
f 136//1046 134//1047 135//1048
f 137//1049 136//1050 135//1051
f 137//1052 135//1053 139//1054
f 140//1055 137//1056 138//1057
f 136//1058 140//1059 141//1060
