$MeshFormat
2.2 0 8
$EndMeshFormat
$Nodes
51
1 -5.9503605500894124e-03 7.2710341893366601e-02 1.8363182944221935e-02
2 -5.8932269457727671e-03 7.2719223797321320e-02 1.1096571106463671e-02
3 -5.6267059408128262e-03 7.2719223797321320e-02 4.0250001475214958e-03
4 -4.8952692953306200e-03 7.2349532032159172e-02 2.5963622645356989e-02
5 -2.9526568312454779e-03 6.7895033476555455e-02 1.9610429634765184e-02
6 -2.4762990908146361e-03 6.7560257616897587e-02 9.1368260500629076e-03
7 -2.3971890924449533e-03 6.8400896701464292e-02 2.2878218037921713e-02
8 -2.1909576955718595e-03 6.6848181413189184e-02 1.5100293075714848e-02
9 -2.3284910264318749e-04 6.6720677552413094e-02 1.9043638971899965e-02
10 -1.6236873625787251e-04 6.6610222584624248e-02 1.2220793791674166e-02
11 -3.7164115933191282e-05 6.7650880836864241e-02 7.9847079169845514e-03
12 1.1580003354667752e-03 6.7654645630144367e-02 2.3090764904326988e-02
13 9.9783334703243973e-04 7.2576570498119594e-02 4.2334488898722348e-03
14 2.5563861711622843e-03 6.7844003438949585e-02 1.6462677776899685e-02
15 3.1492430245442008e-03 6.7844003438949599e-02 2.0432177062599383e-02
16 3.9289828729986709e-03 6.7676244158893659e-02 8.3840924018540198e-03
17 4.5323937795846174e-03 7.2713909569032897e-02 2.7017069290248434e-02
18 8.0930877917735067e-03 6.7844003438949585e-02 1.7140262014715271e-02
19 6.6754833917309847e-03 6.7659613236902713e-02 2.2345975278506316e-02
20 1.2892659517181672e-02 6.7887814250602474e-02 2.3350896347888866e-02
21 1.3609474590664122e-02 6.7766154420353761e-02 7.8089703397069606e-03
22 1.5430234107747361e-02 7.2713517840698461e-02 4.0368117641168969e-03
23 1.6523817205522765e-02 7.2712415244513592e-02 2.7017190147716565e-02
24 1.8809529480869617e-02 6.7880688484547272e-02 2.3191095790823929e-02
25 1.8220000853329185e-02 6.7856261807368257e-02 1.0469134987507156e-02
26 1.9960933407560069e-02 6.7844003438949585e-02 1.4623600898490874e-02
27 2.1731979840251693e-02 6.7841634169462262e-02 1.6822652769444047e-02
28 2.2125868348281369e-02 6.7397563965717028e-02 1.0659120206677955e-02
29 2.2303679500436355e-02 6.6814581729212008e-02 1.4287758594185386e-02
30 2.2855739313570336e-02 6.8082363836140691e-02 7.7085789010094292e-03
31 2.2884148427130931e-02 6.7600962846683016e-02 2.2998665203650008e-02
32 2.3121882199033682e-02 6.7468264308775075e-02 1.9372559435058258e-02
33 2.3576918734297549e-02 6.7098992319614054e-02 1.6239132551252065e-02
34 2.5584895506064211e-02 6.8755518386492548e-02 8.4471351314486538e-03
35 2.5607654626125714e-02 6.6948541350078425e-02 2.0746211356393929e-02
36 2.5628604753639903e-02 6.6993616031451986e-02 1.2013309115053609e-02
37 2.5657348648831724e-02 6.6885299869602968e-02 2.3393005972292481e-02
38 2.5755886446820614e-02 6.6632807970782346e-02 1.7180309806304431e-02
39 2.6840989175366023e-02 7.2727062076163584e-02 3.9492066628990796e-03
40 2.7612688779390271e-02 7.2694568795698813e-02 2.7002964542862513e-02
41 2.8109993785619736e-02 7.2719223797321320e-02 2.2302234545350075e-02
42 2.8104056037224216e-02 7.2719445408454014e-02 8.0146691262189054e-03
43 2.8147653033539683e-02 7.2716987130746577e-02 1.5141788817607011e-02
44 1.7166083584996022e-02 7.2718675102479688e-02 1.9220675167279822e-02
45 8.3798228855839867e-03 7.2695836014474727e-02 4.0868225757451724e-03
46 9.7601746457184699e-03 7.2701733866525800e-02 2.0520919089408628e-02
47 -2.5280925481849497e-04 7.2719369663507949e-02 1.5150603565029296e-02
48 4.4160506795850544e-04 7.2717121388438513e-02 2.1236395577058094e-02
49 5.5025642225240267e-03 7.2719157429415232e-02 1.5007993626066678e-02
50 1.8427549189068040e-02 7.2719990690641584e-02 1.0546740461314763e-02
51 1.0898165397560135e-02 7.2720384162187901e-02 9.5737746481368707e-03
$EndNodes
$Elements
99
1 4 2 0 0 11 2 47 6
2 4 2 0 0 27 29 33 43
3 4 2 0 0 44 23 24 20
4 4 2 0 0 44 23 20 46
5 4 2 0 0 38 43 32 33
6 4 2 0 0 50 26 43 28
7 4 2 0 0 51 26 18 44
8 4 2 0 0 51 26 44 50
9 4 2 0 0 18 20 46 44
10 4 2 0 0 26 20 18 44
11 4 2 0 0 44 24 26 20
12 4 2 0 0 41 32 38 43
13 4 2 0 0 27 43 26 29
14 4 2 0 0 38 32 41 35
15 4 2 0 0 36 38 33 43
16 4 2 0 0 51 16 45 49
17 4 2 0 0 31 40 23 44
18 4 2 0 0 18 44 46 51
19 4 2 0 0 51 49 46 18
20 4 2 0 0 51 18 21 14
21 4 2 0 0 51 18 26 21
22 4 2 0 0 51 16 21 45
23 4 2 0 0 49 11 10 16
24 4 2 0 0 6 47 10 8
25 4 2 0 0 5 8 9 47
26 4 2 0 0 19 15 48 12
27 4 2 0 0 50 42 34 43
28 4 2 0 0 19 17 48 49
29 4 2 0 0 49 19 18 15
30 4 2 0 0 50 43 26 44
31 4 2 0 0 15 14 49 48
32 4 2 0 0 41 35 32 31
33 4 2 0 0 44 31 32 24
34 4 2 0 0 18 15 14 49
35 4 2 0 0 48 49 47 14
36 4 2 0 0 46 20 18 19
37 4 2 0 0 48 15 19 49
38 4 2 0 0 48 5 1 7
39 4 2 0 0 48 9 12 15
40 4 2 0 0 48 12 9 5
41 4 2 0 0 48 12 17 19
42 4 2 0 0 45 16 13 49
43 4 2 0 0 48 7 12 5
44 4 2 0 0 27 24 26 44
45 4 2 0 0 43 26 44 27
46 4 2 0 0 49 10 11 47
47 4 2 0 0 11 2 49 47
48 4 2 0 0 50 21 26 25
49 4 2 0 0 51 14 16 49
50 4 2 0 0 2 6 8 47
51 4 2 0 0 6 2 13 11
52 4 2 0 0 44 27 24 32
53 4 2 0 0 44 31 41 32
54 4 2 0 0 23 44 24 31
55 4 2 0 0 46 19 18 49
56 4 2 0 0 48 9 47 5
57 4 2 0 0 46 20 19 17
58 4 2 0 0 46 17 19 49
59 4 2 0 0 48 15 14 9
60 4 2 0 0 9 47 14 48
61 4 2 0 0 48 47 1 5
62 4 2 0 0 14 51 16 21
63 4 2 0 0 51 21 22 45
64 4 2 0 0 6 3 13 2
65 4 2 0 0 27 43 33 32
66 4 2 0 0 23 46 17 20
67 4 2 0 0 48 7 1 4
68 4 2 0 0 50 28 34 30
69 4 2 0 0 14 51 18 49
70 4 2 0 0 22 21 50 30
71 4 2 0 0 50 25 30 21
72 4 2 0 0 50 21 22 51
73 4 2 0 0 14 47 10 49
74 4 2 0 0 50 26 28 25
75 4 2 0 0 11 16 49 13
76 4 2 0 0 49 10 14 16
77 4 2 0 0 29 43 26 28
78 4 2 0 0 29 36 33 43
79 4 2 0 0 29 43 28 36
80 4 2 0 0 8 47 5 1
81 4 2 0 0 35 31 40 37
82 4 2 0 0 40 35 41 31
83 4 2 0 0 41 44 40 31
84 4 2 0 0 27 32 44 43
85 4 2 0 0 43 44 41 32
86 4 2 0 0 50 34 28 43
87 4 2 0 0 43 36 34 28
88 4 2 0 0 21 51 50 26
89 4 2 0 0 4 7 12 48
90 4 2 0 0 17 48 4 12
91 4 2 0 0 1 47 2 8
92 4 2 0 0 39 50 30 22
93 4 2 0 0 30 28 25 50
94 4 2 0 0 30 39 34 50
95 4 2 0 0 39 42 34 50
96 4 2 0 0 11 2 13 49
97 4 2 0 0 11 47 10 6
98 4 2 0 0 9 10 47 8
99 4 2 0 0 9 14 47 10
$EndElements
