$MeshFormat
2.2 0 8
$EndMeshFormat
$Nodes
60
1 0.039999999105930328 -0.013000000268220903 0.024478999897837639
2 0.039429664292069809 -0.013000000268220903 0.033044016755078627
3 0.03413589671254158 -0.013000000268220903 0.024478999897837639
4 0.033298149704933167 -0.013000000268220903 0.034478999674320221
5 0.014315717737190425 -0.013000000268220903 0.034478999674320221
6 0.012602355356616772 -0.013000000268220901 0.024478999897837639
7 -9.6123206811547171e-18 -0.013000000268220901 0.024478999897837639
8 -9.6123206811547171e-18 -0.013000000268220901 0.032692271285940364
9 0.022854377541289637 -0.013000000268220903 0.024478999897837639
10 0.0015000000130385158 -0.0039916762907523662 0.034478999674320221
11 0.011152684782449462 0.0014988785666194115 0.024478999897837639
12 0.039599558446517649 -0.0048355571791156701 0.030820828723934358
13 0.023450963205745794 0.0014751553282608425 0.024478999897837639
14 0.033298149704933167 -0.00098508265550722096 0.034478999674320221
15 0.01727003544712338 -0.0029637075066482879 0.034478999674320221
16 0.039999999105930328 0.0013590594879310657 0.024478999897837639
17 -1.0478884422399831e-17 0.0011520631378516529 0.024478999897837639
18 0.0015000000130385165 0.0059763183817267418 0.034478999674320221
19 0.039999999105930328 0.0130000002682209 0.024478999897837639
20 0.03949654726654088 0.0130000002682209 0.032168802328679261
21 0.033298149704933167 0.0130000002682209 0.034478999674320221
22 0.025526589488768726 0.0130000002682209 0.024478999897837639
23 0.017013904289342463 0.013000000268220898 0.034478999674320221
24 0.0015000000130385169 0.013000000268220901 0.034478999674320221
25 -1.1204361030566968e-17 0.013000000268220901 0.024478999897837639
26 -1.1204361030566968e-17 0.013000000268220901 0.029162995517253876
27 0.010565239154641328 -0.0047860787549908121 0.029735832916288573
28 0.0065527366060655198 -0.0066591658382706862 0.024478999897837639
29 0.0038362800650464882 -0.0075378083780831369 0.030057997157898274
30 0.030875024728522757 0.0032320910684497241 0.029633549313737621
31 0.006773307432547033 0.0081480859717660073 0.034478999674320221
32 0.0059838682778456092 0.0051924347726206316 0.029474573099595735
33 0.029409182322514864 0.0088658374990989615 0.029769764679301706
34 0.0075188892396372805 0.00053065363412962453 0.034478999674320221
35 0.018069347348099229 -0.0064130125142671393 0.024478999897837639
36 -9.8512761452988822e-18 -0.0090975600893358211 0.028662761583581064
37 -1.0045602551777275e-17 -0.0059239685651846247 0.024478999897837639
38 0.013157465081179397 0.0059763817766127682 0.034478999674320221
39 0.02688390715165 -0.0068164593788318066 0.034478999674320221
40 0.027459423217356727 0.00025195073707426878 0.034478999674320221
41 0.022137329788334766 0.0059809051013470322 0.034478999674320221
42 -1.0381632739507937e-17 -0.00043617115045439347 0.031936310115020926
43 0.001500000013038516 0.0009923210454871878 0.034478999674320221
44 0.0040694232917913064 -0.0014218343988737971 0.029352704502755192
45 0.03354661773111741 0.0130000002682209 0.029096323792990812
46 0.0073955328715985501 -0.0086489707326130403 0.034478999674320221
47 0.0015000000130385156 -0.0084958382794866338 0.034478999674320221
48 -9.8686061944695314e-18 -0.00881453910862353 0.032430360007983293
49 0.022396461443658353 -0.013000000268220903 0.034478999674320221
50 0.0054859038403825659 -0.013000000268220901 0.02978827741405778
51 0.0323589814708563 -0.0027068426722065679 0.024478999897837639
52 0.01227445445724366 0.013000000268220901 0.024478999897837639
53 0.033298149704933167 0.0063034673969668518 0.034478999674320221
54 0.028593657187991388 0.013000000268220898 0.034478999674320221
55 0.02090438861427428 0.013000000268220898 0.034478999674320221
56 0.032797413083353481 0.0064004229676141973 0.024478999897837639
57 0.039646098102454529 0.0062207466443398437 0.030211841256620426
58 0.011234336408027526 0.013000000268220901 0.034478999674320221
59 -1.0100072247156934e-17 -0.0050344084003862942 0.031766434080355503
60 -1.0684094659112847e-17 0.0045034051939859205 0.030538569256629032
$EndNodes
$Elements
114
1 4 2 0 0 28 29 44 27
2 4 2 0 0 44 17 28 11
3 4 2 0 0 22 52 23 41
4 4 2 0 0 9 35 13 39
5 4 2 0 0 22 41 13 52
6 4 2 0 0 15 39 40 13
7 4 2 0 0 11 32 17 25
8 4 2 0 0 52 32 11 25
9 4 2 0 0 27 11 15 38
10 4 2 0 0 27 32 11 38
11 4 2 0 0 14 12 3 4
12 4 2 0 0 39 3 4 14
13 4 2 0 0 7 50 28 6
14 4 2 0 0 6 27 28 11
15 4 2 0 0 15 11 13 41
16 4 2 0 0 41 11 13 52
17 4 2 0 0 3 49 9 39
18 4 2 0 0 51 3 9 39
19 4 2 0 0 15 11 41 38
20 4 2 0 0 52 23 38 58
21 4 2 0 0 38 52 31 32
22 4 2 0 0 58 38 52 31
23 4 2 0 0 58 31 52 24
24 4 2 0 0 6 27 11 35
25 4 2 0 0 5 15 27 35
26 4 2 0 0 5 49 15 35
27 4 2 0 0 35 9 5 49
28 4 2 0 0 55 22 23 41
29 4 2 0 0 54 45 22 33
30 4 2 0 0 16 57 12 14
31 4 2 0 0 1 3 12 2
32 4 2 0 0 1 12 51 16
33 4 2 0 0 14 12 51 3
34 4 2 0 0 39 51 3 14
35 4 2 0 0 44 27 29 34
36 4 2 0 0 35 15 11 13
37 4 2 0 0 6 5 27 35
38 4 2 0 0 42 44 17 37
39 4 2 0 0 42 44 60 17
40 4 2 0 0 35 9 6 5
41 4 2 0 0 38 32 11 52
42 4 2 0 0 51 1 3 12
43 4 2 0 0 3 4 12 2
44 4 2 0 0 51 40 30 14
45 4 2 0 0 14 30 51 16
46 4 2 0 0 13 30 41 33
47 4 2 0 0 56 57 16 30
48 4 2 0 0 37 44 17 28
49 4 2 0 0 44 32 27 34
50 4 2 0 0 36 29 37 7
51 4 2 0 0 36 29 7 8
52 4 2 0 0 40 39 14 51
53 4 2 0 0 35 15 27 11
54 4 2 0 0 44 32 60 17
55 4 2 0 0 35 49 15 39
56 4 2 0 0 39 9 35 49
57 4 2 0 0 50 27 6 5
58 4 2 0 0 26 25 60 32
59 4 2 0 0 59 29 37 36
60 4 2 0 0 59 29 36 48
61 4 2 0 0 18 24 26 32
62 4 2 0 0 32 26 52 24
63 4 2 0 0 31 52 24 32
64 4 2 0 0 60 25 17 32
65 4 2 0 0 44 27 32 11
66 4 2 0 0 44 43 60 32
67 4 2 0 0 50 29 28 27
68 4 2 0 0 50 27 28 6
69 4 2 0 0 38 11 41 52
70 4 2 0 0 13 51 39 40
71 4 2 0 0 54 33 21 45
72 4 2 0 0 55 41 33 22
73 4 2 0 0 52 23 41 38
74 4 2 0 0 13 40 30 51
75 4 2 0 0 39 49 4 3
76 4 2 0 0 13 35 15 39
77 4 2 0 0 7 29 37 28
78 4 2 0 0 42 43 60 44
79 4 2 0 0 13 40 15 41
80 4 2 0 0 41 13 40 30
81 4 2 0 0 22 33 13 41
82 4 2 0 0 44 34 43 32
83 4 2 0 0 8 47 29 50
84 4 2 0 0 59 44 42 37
85 4 2 0 0 45 56 19 22
86 4 2 0 0 59 10 42 44
87 4 2 0 0 45 21 20 57
88 4 2 0 0 16 30 57 14
89 4 2 0 0 56 45 19 57
90 4 2 0 0 33 57 21 45
91 4 2 0 0 48 29 36 8
92 4 2 0 0 46 29 50 27
93 4 2 0 0 10 29 44 59
94 4 2 0 0 44 32 17 11
95 4 2 0 0 53 57 33 30
96 4 2 0 0 20 57 19 45
97 4 2 0 0 50 8 7 29
98 4 2 0 0 51 9 13 39
99 4 2 0 0 12 14 51 16
100 4 2 0 0 57 33 30 56
101 4 2 0 0 32 52 26 25
102 4 2 0 0 54 22 55 33
103 4 2 0 0 7 50 29 28
104 4 2 0 0 37 29 44 28
105 4 2 0 0 44 28 27 11
106 4 2 0 0 56 33 13 22
107 4 2 0 0 56 30 13 33
108 4 2 0 0 56 33 45 57
109 4 2 0 0 56 33 22 45
110 4 2 0 0 19 16 56 57
111 4 2 0 0 16 30 51 56
112 4 2 0 0 56 51 13 30
113 4 2 0 0 59 29 44 37
114 4 2 0 0 60 18 26 32
$EndElements
