$MeshFormat
2.2 0 8
$EndMeshFormat
$Nodes
52
1 -7.9602041944577956e-19 -0.012999999999999999 0.024479000000000001
2 -7.9602041944577956e-19 -0.012999999999999999 0.031486997074932445
3 -0.026073663812309838 -0.00020265052013824421 0.024479000000000001
4 -0.0057700493229287352 -0.012999999999999999 0.034479000000000003
5 -0.015383230055783723 -0.012999999999999998 0.034479000000000003
6 -0.018846804245176346 -0.012999999999999998 0.024479000000000001
7 -0.033298149999999999 -0.012999999999999998 0.034479000000000003
8 -0.039510130000000004 -0.012999999999999998 0.031991075000000008
9 -0.040000000000000001 -0.012999999999999998 0.024479000000000001
10 -0.039245432814994409 -0.0034634427582032968 0.035260869342240757
11 -0.0015000000000000013 0.00099232107240560148 0.034479000000000003
12 1.0058238463271218e-19 0.0016426349981519823 0.024479000000000001
13 -0.011300187291536121 0.00087781125034690666 0.034479000000000003
14 -0.040000000000000001 0.0032847963520889643 0.024479000000000001
15 -0.029423402122588174 -0.012999999999999998 0.024479000000000001
16 -0.033298149999999999 0.0041401562898600135 0.034479000000000003
17 7.9602041944577956e-19 0.012999999999999999 0.024479000000000001
18 7.9268928844216208e-19 0.012945598502263072 0.030552297643792841
19 -0.011420613702762645 0.012999999999999999 0.024479000000000001
20 -0.020760681871975786 0.013000000000000001 0.034479000000000003
21 -0.033298149999999999 0.013000000000000001 0.034479000000000003
22 -0.040000000000000001 0.013000000000000001 0.024479000000000001
23 -0.032315138236406464 -0.0058510857093250872 0.024479000000000001
24 -3.477190174065337e-19 -0.0056786825009240089 0.024479000000000001
25 -0.0094234021225881731 -0.012999999999999999 0.024479000000000001
26 -0.030759833923864825 0.013000000000000001 0.024479000000000001
27 -0.0094863354051379807 -0.0063515539508253206 0.029206000837490247
28 -0.024340690027891861 -0.012999999999999998 0.034479000000000003
29 -0.0084736664731726759 0.012999999999999999 0.034479000000000003
30 -0.0045842297063948476 -0.00080392407600302931 0.029924787603015778
31 -0.0044265649751999503 0.0063567545941541131 0.030196320618596
32 -0.012819403468833498 0.0070214252563245098 0.029463836029612358
33 -0.040000000000000001 -0.0048576018239555162 0.024479000000000001
34 -0.039316507319866266 0.0046209200904645045 0.034500147387930939
35 -0.016608934238502137 -0.0059564474299837111 0.024479000000000001
36 -0.034202413532449932 -0.0011187594198362565 0.02950637188532431
37 -0.018011251229219098 0.0037695829354214595 0.024479000000000001
38 -0.027710964174711968 -0.0026346363852641002 0.034479000000000003
39 -0.026317756445921665 0.0017163639476843516 0.034479000000000003
40 -0.018046636601329984 0.006985372505531562 0.034479000000000003
41 2.6790263703412959e-19 0.0043751820887565924 0.03094439759166925
42 -0.019337362891843329 -0.00088783753112432458 0.034479000000000003
43 -0.023675869726687886 -0.0079568060642614419 0.034479000000000003
44 -0.0015000000000000011 -0.0045917885107903452 0.034479000000000003
45 -0.01544733294634535 0.013000000000000001 0.034479000000000003
46 -0.0099439325905252614 -0.00033103238504796707 0.024479000000000001
47 -0.0055903093914633053 -0.0047074883704166411 0.034479000000000003
48 -0.033298149999999999 -0.0061595264263076127 0.034479000000000003
49 -4.1642888394562245e-19 -0.0068007997772999767 0.030487859994439152
50 -2.1373790465546058e-21 -3.4906048797787772e-05 0.031773210611277677
51 4.639947474254976e-19 0.0075776092788312323 0.033943217631427353
52 -0.02151966784772965 0.013000000000000001 0.024479000000000001
$EndNodes
$Elements
95
1 4 2 0 0 3 42 39 37
2 4 2 0 0 52 32 19 37
3 4 2 0 0 6 15 3 43
4 4 2 0 0 7 43 15 28
5 4 2 0 0 3 16 14 26
6 4 2 0 0 21 16 26 22
7 4 2 0 0 15 23 3 43
8 4 2 0 0 38 23 36 48
9 4 2 0 0 23 48 38 43
10 4 2 0 0 34 22 14 16
11 4 2 0 0 3 37 39 52
12 4 2 0 0 3 39 26 52
13 4 2 0 0 25 27 46 24
14 4 2 0 0 18 31 41 17
15 4 2 0 0 22 16 26 14
16 4 2 0 0 8 48 9 7
17 4 2 0 0 6 5 28 43
18 4 2 0 0 23 33 36 48
19 4 2 0 0 39 40 20 52
20 4 2 0 0 28 43 15 6
21 4 2 0 0 32 37 42 46
22 4 2 0 0 46 37 42 35
23 4 2 0 0 46 27 42 13
24 4 2 0 0 46 42 32 13
25 4 2 0 0 46 35 42 27
26 4 2 0 0 37 32 19 46
27 4 2 0 0 32 52 40 37
28 4 2 0 0 9 48 23 15
29 4 2 0 0 9 15 7 48
30 4 2 0 0 31 13 30 46
31 4 2 0 0 32 46 13 31
32 4 2 0 0 25 49 24 1
33 4 2 0 0 39 20 26 52
34 4 2 0 0 25 27 24 49
35 4 2 0 0 19 52 45 32
36 4 2 0 0 25 5 27 4
37 4 2 0 0 16 26 20 21
38 4 2 0 0 23 9 33 48
39 4 2 0 0 51 31 41 18
40 4 2 0 0 17 31 12 19
41 4 2 0 0 35 43 3 42
42 4 2 0 0 43 6 35 3
43 4 2 0 0 50 30 44 49
44 4 2 0 0 3 36 14 16
45 4 2 0 0 3 23 14 36
46 4 2 0 0 23 33 14 36
47 4 2 0 0 14 10 16 36
48 4 2 0 0 33 10 14 36
49 4 2 0 0 37 3 42 35
50 4 2 0 0 37 42 39 40
51 4 2 0 0 16 26 39 20
52 4 2 0 0 32 31 29 19
53 4 2 0 0 19 18 31 29
54 4 2 0 0 3 38 36 16
55 4 2 0 0 43 42 38 3
56 4 2 0 0 3 23 36 38
57 4 2 0 0 23 38 3 43
58 4 2 0 0 3 42 38 39
59 4 2 0 0 3 39 16 26
60 4 2 0 0 3 39 38 16
61 4 2 0 0 24 30 46 12
62 4 2 0 0 24 27 46 30
63 4 2 0 0 32 37 40 42
64 4 2 0 0 6 5 35 25
65 4 2 0 0 9 33 48 8
66 4 2 0 0 24 49 30 12
67 4 2 0 0 15 48 23 43
68 4 2 0 0 46 32 19 31
69 4 2 0 0 30 31 46 12
70 4 2 0 0 25 49 1 2
71 4 2 0 0 41 31 12 17
72 4 2 0 0 27 5 35 42
73 4 2 0 0 6 5 43 35
74 4 2 0 0 30 46 13 27
75 4 2 0 0 41 31 11 30
76 4 2 0 0 40 45 20 52
77 4 2 0 0 40 39 37 52
78 4 2 0 0 40 32 45 52
79 4 2 0 0 18 31 17 19
80 4 2 0 0 33 10 36 48
81 4 2 0 0 25 49 2 4
82 4 2 0 0 27 49 25 4
83 4 2 0 0 32 19 29 45
84 4 2 0 0 15 43 7 48
85 4 2 0 0 5 25 27 35
86 4 2 0 0 47 49 30 27
87 4 2 0 0 46 31 19 12
88 4 2 0 0 24 27 30 49
89 4 2 0 0 42 43 5 35
90 4 2 0 0 33 10 48 8
91 4 2 0 0 41 11 50 30
92 4 2 0 0 41 31 30 12
93 4 2 0 0 30 49 50 12
94 4 2 0 0 50 41 30 12
95 4 2 0 0 35 27 46 25
$EndElements
