$MeshFormat
2.2 0 8
$EndMeshFormat
$Nodes
46
1 0.039999999105930328 -0.013000000268220903 0.024478999897837639
2 0.039128610178607144 -0.013000000268220903 0.036533585571636662
3 0.033298149704933167 -0.013000000268220903 0.034478999674320221
4 0.018846804858185351 -0.013000000268220903 0.024478999897837639
5 0.014315717737190425 -0.013000000268220903 0.034478999674320221
6 -9.6123206811547171e-18 -0.013000000268220901 0.024478999897837639
7 -9.6123206811547171e-18 -0.013000000268220901 0.033954688347876072
8 0.0015000000130385158 -0.0047933110035955906 0.034478999674320221
9 0.039538256986352133 -0.0048633038256615255 0.031623008285589359
10 0.039999999105930328 -0.0006586976303570197 0.024478999897837639
11 0.033298149704933167 0.00099299725843593283 0.034478999674320221
12 -1.0478884422399831e-17 0.0011520631378516529 0.024478999897837639
13 0.012489285444358525 0.0010852767906612689 0.024478999897837639
14 0.016385966533238816 -0.00074294373556874137 0.034478999674320221
15 0.0015000000130385163 0.0051788079726975394 0.034478999674320221
16 0.039999999105930328 0.0130000002682209 0.024478999897837639
17 0.033298149704933167 0.0130000002682209 0.034478999674320221
18 0.021938718971796334 0.0130000002682209 0.024478999897837639
19 0.015715462854132056 0.0130000002682209 0.034478999674320221
20 -1.1204361030566968e-17 0.013000000268220901 0.024478999897837639
21 -1.1204361030566968e-17 0.013000000268220901 0.031504994258284569
22 0.023806933721061796 -0.013000000268220903 0.034478999674320221
23 0.0055577797474095818 0.0070760317030362768 0.024478999897837639
24 0.01089245087801423 -0.0067426745972079954 0.0294419352908852
25 0.010653769381271921 0.0057719999152687582 0.034478999674320221
26 -1.0045602551777275e-17 -0.0059239685651846247 0.024478999897837639
27 0.0058676758024902064 0.0068455513522262786 0.02936536871370285
28 0.0061890285119593222 -0.0071907783715256437 0.034478999674320221
29 0.0034497287574652307 -0.0088150465616332521 0.03085354572409487
30 0.0045187789290380585 -0.0011345285710463145 0.03032200176284652
31 -9.8945352470770509e-18 -0.0083910856201217382 0.028219591041649381
32 0.023422747833705383 -0.005940102188973344 0.034478999674320221
33 0.02265492338381829 0.0041588871315840137 0.034478999674320221
34 0.039371598635657909 0.0049900880480992305 0.033803856362702688
35 -9.8584855947998622e-18 -0.0089798210229525971 0.032134727251779176
36 -9.6123206811547171e-18 -0.013000000268220901 0.029216844122856855
37 0.006569760053140636 -0.00012285081874829296 0.034478999674320221
38 0.0059272718242444674 -0.013000000268220901 0.034478999674320221
39 -1.0191636411295893e-17 -0.0035390498353544773 0.032168114309463883
40 -1.0600160830283661e-17 0.0031326618302841189 0.032827011637223714
41 0.011115559494819174 0.013000000268220901 0.024478999897837639
42 0.0047787920885759994 -0.0042100719021274527 0.024478999897837639
43 0.0061587702242956307 -0.013000000268220901 0.024478999897837639
44 0.025296228047043231 -0.0013387253830238212 0.024478999897837639
45 0.032392819391871636 -0.013000000268220903 0.024478999897837639
46 0.0061807818592641995 0.013000000268220901 0.034478999674320221
$EndNodes
$Elements
79
1 4 2 0 0 37 24 14 13
2 4 2 0 0 5 4 22 32
3 4 2 0 0 9 10 45 1
4 4 2 0 0 16 10 44 11
5 4 2 0 0 34 10 16 11
6 4 2 0 0 30 13 37 27
7 4 2 0 0 39 29 30 42
8 4 2 0 0 13 27 12 23
9 4 2 0 0 23 27 12 20
10 4 2 0 0 43 24 5 38
11 4 2 0 0 43 24 4 5
12 4 2 0 0 21 27 20 12
13 4 2 0 0 24 43 13 42
14 4 2 0 0 24 30 13 37
15 4 2 0 0 13 27 23 41
16 4 2 0 0 30 13 27 12
17 4 2 0 0 46 27 20 21
18 4 2 0 0 25 14 19 13
19 4 2 0 0 33 19 14 13
20 4 2 0 0 42 39 31 26
21 4 2 0 0 34 11 9 10
22 4 2 0 0 43 36 6 31
23 4 2 0 0 38 29 36 43
24 4 2 0 0 38 43 24 29
25 4 2 0 0 28 29 24 30
26 4 2 0 0 13 27 19 25
27 4 2 0 0 30 12 27 40
28 4 2 0 0 39 40 12 30
29 4 2 0 0 39 42 31 29
30 4 2 0 0 39 31 35 29
31 4 2 0 0 24 30 29 42
32 4 2 0 0 42 31 6 26
33 4 2 0 0 31 42 43 29
34 4 2 0 0 42 12 13 30
35 4 2 0 0 37 13 25 27
36 4 2 0 0 40 15 27 30
37 4 2 0 0 45 10 9 11
38 4 2 0 0 17 16 18 11
39 4 2 0 0 39 8 30 29
40 4 2 0 0 11 44 18 33
41 4 2 0 0 11 18 17 33
42 4 2 0 0 43 31 6 42
43 4 2 0 0 29 43 24 42
44 4 2 0 0 5 24 4 32
45 4 2 0 0 34 11 16 17
46 4 2 0 0 39 30 12 42
47 4 2 0 0 16 44 18 11
48 4 2 0 0 17 33 18 19
49 4 2 0 0 35 36 7 29
50 4 2 0 0 31 43 36 29
51 4 2 0 0 45 9 2 3
52 4 2 0 0 45 9 3 11
53 4 2 0 0 45 11 3 32
54 4 2 0 0 37 14 25 13
55 4 2 0 0 22 4 45 32
56 4 2 0 0 22 45 3 32
57 4 2 0 0 35 31 36 29
58 4 2 0 0 24 13 30 42
59 4 2 0 0 40 27 21 12
60 4 2 0 0 13 41 19 27
61 4 2 0 0 19 27 41 46
62 4 2 0 0 19 41 13 18
63 4 2 0 0 13 19 18 33
64 4 2 0 0 46 20 27 41
65 4 2 0 0 41 27 23 20
66 4 2 0 0 42 39 26 12
67 4 2 0 0 9 45 2 1
68 4 2 0 0 24 4 13 43
69 4 2 0 0 45 44 10 11
70 4 2 0 0 44 24 13 14
71 4 2 0 0 44 32 24 14
72 4 2 0 0 44 14 33 32
73 4 2 0 0 44 4 13 24
74 4 2 0 0 44 32 4 24
75 4 2 0 0 44 33 11 32
76 4 2 0 0 32 45 44 4
77 4 2 0 0 45 44 11 32
78 4 2 0 0 44 14 13 33
79 4 2 0 0 44 33 13 18
$EndElements
