$MeshFormat
2.2 0 8
$EndMeshFormat
$Nodes
62
1 -7.9602041944577956e-19 -0.012999999999999999 0.024479000000000001
2 -8.0957294660184836e-19 -0.012999999999999999 0.034680830394861473
3 -0.011643967077740619 -0.012999999999999999 0.029889964714470633
4 -0.0169023379633256 -0.012999999999999996 0.024479000000000001
5 -0.018568688639904924 -0.012999999999999998 0.034479000000000003
6 -0.033298149999999999 -0.012999999999999998 0.034479000000000003
7 -0.040000000000000001 -0.012999999999999998 0.024479000000000001
8 -0.0015000000000000002 -0.0039916763405934627 0.034479000000000003
9 -0.01579942743012169 -0.0037927315738165925 0.034479000000000003
10 -1.5758195665675601e-19 -0.0025735086519063409 0.024479000000000001
11 -0.033298149999999999 0.00099299730897053711 0.03447900000000001
12 -0.039675505513190247 0.00010838384930249977 0.029827013465869273
13 -0.040000000000000001 0.0032847963520889643 0.024479000000000001
14 -0.0015 0.0059763184854046648 0.034479000000000003
15 7.9602041944577956e-19 0.012999999999999999 0.024479000000000001
16 -0.0014999999999999992 0.012999999999999999 0.034479000000000003
17 -0.012378256057788467 0.012999999999999999 0.034479000000000003
18 -0.0146109163876781 0.013000000000000001 0.02948813262423048
19 -0.021938718355145607 0.013000000000000001 0.024479000000000001
20 -0.033298149999999999 0.013000000000000001 0.034479000000000003
21 -0.039510130000000004 0.013000000000000001 0.031991075000000008
22 -0.040000000000000001 0.013000000000000001 0.024479000000000001
23 -0.02593341931995246 -0.012999999999999998 0.034479000000000003
24 3.4588340219219983e-19 0.0056487046294983554 0.024479000000000001
25 -0.0094189973464581384 0.0096513373336280343 0.030810674119754692
26 -0.0074894774696049075 0.0036907862356606526 0.024479000000000001
27 -0.0047599748917942705 0.0086256294721538933 0.02909613008104232
28 -0.014772744264597053 0.0058579225914210924 0.02911836260139624
29 -0.025566294983193481 0.0046223523113765545 0.029020843871508439
30 -0.032949941375729867 0.0039163950213067077 0.029809249530427927
31 -0.0038795380053552823 0.00089374971436763221 0.029835700828625338
32 -0.0060369670799258748 0.0091192900576951893 0.034479000000000003
33 -0.0050693526769898722 -0.0060110239708785276 0.029747564414461795
34 -0.0045642610231319044 0.012999999999999999 0.02950270569953321
35 5.4919422008127338e-19 0.0089690222595387309 0.031136700986340513
36 -4.1519944159478164e-20 -0.00067807214599974403 0.030604531712334147
37 2.9097544133430334e-19 0.004751989578332165 0.032342764816570703
38 -0.0069391280288942326 0.012999999999999999 0.034479000000000003
39 -0.0035067802450996898 -0.012999999999999999 0.03041837832356311
40 -0.010781439521873128 -0.0037514239796294416 0.024479000000000001
41 -0.0089800036792367418 -0.012999999999999999 0.024479000000000001
42 -0.018642493163248477 0.0025654910176151993 0.024479000000000001
43 -4.1861322499310253e-19 -0.0068364727737753837 0.033019641609157928
44 7.9602041944577956e-19 0.012999999999999999 0.029471864331759565
45 -0.0015000000000000005 -0.0084958381702967302 0.034479000000000003
46 -0.0090060216803815735 0.012999999999999999 0.024479000000000001
47 -0.027278280472979293 -0.0050665463535651441 0.034479000000000003
48 -0.039382284169201587 0.005377785706993256 0.033664032739587263
49 -0.023714338684315897 0.0025841398414506536 0.034479000000000003
50 -0.017332816862513374 0.007870604422854522 0.034479000000000003
51 -0.028881490464843933 0.0069056432010878325 0.034479000000000003
52 -0.033298149999999999 -0.0066029210275420913 0.034479000000000003
53 -0.008101040559488723 0.0025269979910949795 0.034479000000000003
54 -0.039613766346507942 -0.0050173971409375523 0.030634916360252194
55 -0.0070547552738549424 -0.0075226961197721815 0.034479000000000003
56 -0.034578084159204582 -0.0031860096678223569 0.024479000000000001
57 -0.026694509612280936 -0.0025882324631842264 0.024479000000000001
58 -0.033841229122473684 0.0049319553382030108 0.024479000000000001
59 -0.026062152248379704 -0.012999999999999996 0.024479000000000001
60 -0.040000000000000001 -0.0025382184051145574 0.024479000000000001
61 -0.024613743040824563 0.013000000000000001 0.034479000000000003
62 -0.0015000000000000005 0.0011818884662212956 0.034479000000000003
$EndNodes
$Elements
115
1 4 2 0 0 40 3 9 33
2 4 2 0 0 18 28 17 25
3 4 2 0 0 55 39 33 3
4 4 2 0 0 57 9 4 5
5 4 2 0 0 57 5 4 59
6 4 2 0 0 5 47 23 59
7 4 2 0 0 40 42 26 28
8 4 2 0 0 57 9 5 47
9 4 2 0 0 57 47 5 59
10 4 2 0 0 39 1 33 41
11 4 2 0 0 20 61 19 29
12 4 2 0 0 58 20 19 29
13 4 2 0 0 30 29 51 20
14 4 2 0 0 58 30 20 29
15 4 2 0 0 33 1 10 41
16 4 2 0 0 33 41 10 40
17 4 2 0 0 53 40 26 28
18 4 2 0 0 53 40 31 26
19 4 2 0 0 31 53 33 40
20 4 2 0 0 53 28 9 40
21 4 2 0 0 53 9 33 40
22 4 2 0 0 58 22 21 13
23 4 2 0 0 48 58 21 13
24 4 2 0 0 27 46 34 25
25 4 2 0 0 25 28 27 46
26 4 2 0 0 33 3 39 41
27 4 2 0 0 27 24 15 46
28 4 2 0 0 43 1 10 33
29 4 2 0 0 43 2 1 39
30 4 2 0 0 43 1 33 39
31 4 2 0 0 25 28 53 27
32 4 2 0 0 27 28 53 26
33 4 2 0 0 16 35 44 27
34 4 2 0 0 25 46 38 18
35 4 2 0 0 25 46 34 38
36 4 2 0 0 31 40 10 26
37 4 2 0 0 10 26 24 31
38 4 2 0 0 10 31 33 40
39 4 2 0 0 36 10 33 43
40 4 2 0 0 27 34 16 32
41 4 2 0 0 10 31 36 33
42 4 2 0 0 10 24 36 31
43 4 2 0 0 36 24 37 31
44 4 2 0 0 27 34 32 25
45 4 2 0 0 16 27 44 34
46 4 2 0 0 45 39 43 33
47 4 2 0 0 4 9 42 40
48 4 2 0 0 56 12 30 11
49 4 2 0 0 3 40 9 4
50 4 2 0 0 3 41 40 4
51 4 2 0 0 42 9 28 40
52 4 2 0 0 42 9 57 29
53 4 2 0 0 42 4 57 9
54 4 2 0 0 42 28 9 29
55 4 2 0 0 57 11 56 30
56 4 2 0 0 40 3 33 41
57 4 2 0 0 31 26 27 53
58 4 2 0 0 59 47 6 52
59 4 2 0 0 27 14 35 37
60 4 2 0 0 31 27 37 14
61 4 2 0 0 31 27 14 53
62 4 2 0 0 36 31 8 33
63 4 2 0 0 36 43 33 8
64 4 2 0 0 20 22 21 58
65 4 2 0 0 61 28 18 19
66 4 2 0 0 44 35 15 27
67 4 2 0 0 44 27 15 34
68 4 2 0 0 31 26 24 27
69 4 2 0 0 24 27 15 35
70 4 2 0 0 27 26 24 46
71 4 2 0 0 42 28 29 19
72 4 2 0 0 46 28 27 26
73 4 2 0 0 42 28 19 46
74 4 2 0 0 61 29 28 19
75 4 2 0 0 9 4 5 3
76 4 2 0 0 34 27 15 46
77 4 2 0 0 18 19 28 46
78 4 2 0 0 31 27 24 37
79 4 2 0 0 24 27 35 37
80 4 2 0 0 36 31 37 62
81 4 2 0 0 26 42 46 28
82 4 2 0 0 48 13 12 58
83 4 2 0 0 50 28 17 18
84 4 2 0 0 9 28 49 29
85 4 2 0 0 18 61 50 28
86 4 2 0 0 28 61 49 29
87 4 2 0 0 18 28 25 46
88 4 2 0 0 58 12 48 30
89 4 2 0 0 12 30 58 56
90 4 2 0 0 30 29 57 11
91 4 2 0 0 30 57 58 56
92 4 2 0 0 23 47 6 59
93 4 2 0 0 29 19 58 42
94 4 2 0 0 51 30 11 29
95 4 2 0 0 12 56 58 13
96 4 2 0 0 58 30 48 20
97 4 2 0 0 22 20 19 58
98 4 2 0 0 58 48 21 20
99 4 2 0 0 57 30 58 29
100 4 2 0 0 57 9 47 29
101 4 2 0 0 47 11 52 57
102 4 2 0 0 56 11 54 12
103 4 2 0 0 57 52 56 11
104 4 2 0 0 57 29 47 11
105 4 2 0 0 56 52 54 11
106 4 2 0 0 59 6 7 52
107 4 2 0 0 57 58 42 29
108 4 2 0 0 52 59 57 56
109 4 2 0 0 59 52 7 56
110 4 2 0 0 48 30 12 11
111 4 2 0 0 56 52 7 54
112 4 2 0 0 60 56 54 12
113 4 2 0 0 59 52 57 47
114 4 2 0 0 60 13 56 12
115 4 2 0 0 7 54 60 56
$EndElements
